<mxfile host="app.diagrams.net" modified="2022-05-22T18:30:56.779Z" agent="5.0 (Macintosh; Intel Mac OS X 10_15_7) AppleWebKit/537.36 (KHTML, like Gecko) Chrome/101.0.4951.64 Safari/537.36" etag="ZFg0QpfhcLYpZphT1eXY" version="18.1.1" type="github" pages="3">
  <diagram id="sI4byzWZ-kidiIgmUZp2" name="Page-1">
    <mxGraphModel dx="1426" dy="769" grid="1" gridSize="100" guides="1" tooltips="1" connect="1" arrows="1" fold="1" page="1" pageScale="1" pageWidth="827" pageHeight="1169" math="0" shadow="0">
      <root>
        <mxCell id="0" />
        <mxCell id="1" parent="0" />
        <mxCell id="X2-qcZrvFNYhqB2PLZgL-110" value="" style="group;fillColor=default;" parent="1" vertex="1" connectable="0">
          <mxGeometry x="100" y="100" width="400" height="360" as="geometry" />
        </mxCell>
        <mxCell id="X2-qcZrvFNYhqB2PLZgL-109" value="" style="rounded=0;whiteSpace=wrap;html=1;strokeColor=none;strokeWidth=1;fillColor=none;dashed=1;" parent="X2-qcZrvFNYhqB2PLZgL-110" vertex="1">
          <mxGeometry width="400" height="360" as="geometry" />
        </mxCell>
        <mxCell id="X2-qcZrvFNYhqB2PLZgL-92" value="" style="group" parent="X2-qcZrvFNYhqB2PLZgL-110" vertex="1" connectable="0">
          <mxGeometry x="30" y="110" width="360" height="70" as="geometry" />
        </mxCell>
        <mxCell id="X2-qcZrvFNYhqB2PLZgL-24" value="" style="group" parent="X2-qcZrvFNYhqB2PLZgL-92" vertex="1" connectable="0">
          <mxGeometry y="10" width="360" height="60" as="geometry" />
        </mxCell>
        <mxCell id="X2-qcZrvFNYhqB2PLZgL-25" value="" style="rounded=0;whiteSpace=wrap;html=1;snapToPoint=1;allowArrows=1;perimeter=rectanglePerimeter;container=0;" parent="X2-qcZrvFNYhqB2PLZgL-24" vertex="1">
          <mxGeometry y="10" width="360" height="40" as="geometry" />
        </mxCell>
        <mxCell id="X2-qcZrvFNYhqB2PLZgL-26" value="" style="rounded=0;whiteSpace=wrap;html=1;fillColor=#dae8fc;strokeColor=#6c8ebf;" parent="X2-qcZrvFNYhqB2PLZgL-24" vertex="1">
          <mxGeometry y="10" width="360" height="20" as="geometry" />
        </mxCell>
        <mxCell id="X2-qcZrvFNYhqB2PLZgL-27" value="" style="group" parent="X2-qcZrvFNYhqB2PLZgL-24" vertex="1" connectable="0">
          <mxGeometry y="10" width="360" height="50" as="geometry" />
        </mxCell>
        <mxCell id="X2-qcZrvFNYhqB2PLZgL-28" value="" style="group" parent="X2-qcZrvFNYhqB2PLZgL-27" vertex="1" connectable="0">
          <mxGeometry width="360" height="50" as="geometry" />
        </mxCell>
        <mxCell id="X2-qcZrvFNYhqB2PLZgL-29" value="ID: 0" style="text;html=1;strokeColor=default;fillColor=none;align=center;verticalAlign=middle;whiteSpace=wrap;rounded=0;" parent="X2-qcZrvFNYhqB2PLZgL-28" vertex="1">
          <mxGeometry width="80" height="20" as="geometry" />
        </mxCell>
        <mxCell id="X2-qcZrvFNYhqB2PLZgL-30" value="ID: 1" style="text;html=1;strokeColor=default;fillColor=none;align=center;verticalAlign=middle;whiteSpace=wrap;rounded=0;" parent="X2-qcZrvFNYhqB2PLZgL-28" vertex="1">
          <mxGeometry x="80" width="80" height="20" as="geometry" />
        </mxCell>
        <mxCell id="X2-qcZrvFNYhqB2PLZgL-31" value="ID: 2" style="text;html=1;strokeColor=default;fillColor=none;align=center;verticalAlign=middle;whiteSpace=wrap;rounded=0;" parent="X2-qcZrvFNYhqB2PLZgL-28" vertex="1">
          <mxGeometry x="160" width="80" height="20" as="geometry" />
        </mxCell>
        <mxCell id="X2-qcZrvFNYhqB2PLZgL-32" value="ID: 20" style="text;html=1;strokeColor=default;fillColor=none;align=center;verticalAlign=middle;whiteSpace=wrap;rounded=0;" parent="X2-qcZrvFNYhqB2PLZgL-28" vertex="1">
          <mxGeometry x="280" width="80" height="20" as="geometry" />
        </mxCell>
        <mxCell id="X2-qcZrvFNYhqB2PLZgL-33" value="•••" style="text;html=1;strokeColor=default;fillColor=none;align=center;verticalAlign=middle;whiteSpace=wrap;rounded=0;" parent="X2-qcZrvFNYhqB2PLZgL-28" vertex="1">
          <mxGeometry x="240" width="40" height="20" as="geometry" />
        </mxCell>
        <mxCell id="X2-qcZrvFNYhqB2PLZgL-34" value="[-66, -37]" style="rounded=0;whiteSpace=wrap;html=1;strokeColor=default;" parent="X2-qcZrvFNYhqB2PLZgL-28" vertex="1">
          <mxGeometry x="80" y="20" width="80" height="20" as="geometry" />
        </mxCell>
        <mxCell id="X2-qcZrvFNYhqB2PLZgL-35" value="[-112, -103]" style="rounded=0;whiteSpace=wrap;html=1;strokeColor=default;" parent="X2-qcZrvFNYhqB2PLZgL-28" vertex="1">
          <mxGeometry x="160" y="20" width="80" height="20" as="geometry" />
        </mxCell>
        <mxCell id="X2-qcZrvFNYhqB2PLZgL-36" value="•••" style="text;html=1;strokeColor=none;fillColor=none;align=center;verticalAlign=middle;whiteSpace=wrap;rounded=0;" parent="X2-qcZrvFNYhqB2PLZgL-28" vertex="1">
          <mxGeometry x="240" y="20" width="40" height="20" as="geometry" />
        </mxCell>
        <mxCell id="X2-qcZrvFNYhqB2PLZgL-37" value="[0, 0]" style="rounded=0;whiteSpace=wrap;html=1;strokeColor=default;" parent="X2-qcZrvFNYhqB2PLZgL-24" vertex="1">
          <mxGeometry y="30" width="80" height="20" as="geometry" />
        </mxCell>
        <mxCell id="X2-qcZrvFNYhqB2PLZgL-38" value="[151, -277]" style="text;html=1;strokeColor=default;fillColor=none;align=center;verticalAlign=middle;whiteSpace=wrap;rounded=0;" parent="X2-qcZrvFNYhqB2PLZgL-24" vertex="1">
          <mxGeometry x="280" y="30" width="80" height="20" as="geometry" />
        </mxCell>
        <mxCell id="X2-qcZrvFNYhqB2PLZgL-83" value="2&lt;span style=&quot;color: rgba(0, 0, 0, 0); font-family: monospace; font-size: 0px; text-align: start;&quot;&gt;%3CmxGraphModel%3E%3Croot%3E%3CmxCell%20id%3D%220%22%2F%3E%3CmxCell%20id%3D%221%22%20parent%3D%220%22%2F%3E%3CmxCell%20id%3D%222%22%20value%3D%221%22%20style%3D%22ellipse%3BwhiteSpace%3Dwrap%3Bhtml%3D1%3Baspect%3Dfixed%3BstrokeColor%3Ddefault%3B%22%20vertex%3D%221%22%20parent%3D%221%22%3E%3CmxGeometry%20x%3D%2260%22%20y%3D%22100%22%20width%3D%2220%22%20height%3D%2220%22%20as%3D%22geometry%22%2F%3E%3C%2FmxCell%3E%3C%2Froot%3E%3C%2FmxGraphModel%3E&lt;/span&gt;" style="ellipse;whiteSpace=wrap;html=1;aspect=fixed;strokeColor=default;fontStyle=1;strokeWidth=2;" parent="X2-qcZrvFNYhqB2PLZgL-92" vertex="1">
          <mxGeometry width="20" height="20" as="geometry" />
        </mxCell>
        <mxCell id="X2-qcZrvFNYhqB2PLZgL-88" value="Относительные ID: 0 координаты" style="text;html=1;strokeColor=none;fillColor=none;align=left;verticalAlign=middle;whiteSpace=wrap;rounded=0;fontStyle=1" parent="X2-qcZrvFNYhqB2PLZgL-92" vertex="1">
          <mxGeometry x="20" width="340" height="20" as="geometry" />
        </mxCell>
        <mxCell id="X2-qcZrvFNYhqB2PLZgL-94" value="" style="group" parent="X2-qcZrvFNYhqB2PLZgL-110" vertex="1" connectable="0">
          <mxGeometry x="30" y="290" width="360" height="70" as="geometry" />
        </mxCell>
        <mxCell id="X2-qcZrvFNYhqB2PLZgL-61" value="" style="group" parent="X2-qcZrvFNYhqB2PLZgL-94" vertex="1" connectable="0">
          <mxGeometry y="10" width="360" height="60" as="geometry" />
        </mxCell>
        <mxCell id="X2-qcZrvFNYhqB2PLZgL-62" value="" style="rounded=0;whiteSpace=wrap;html=1;snapToPoint=1;allowArrows=1;perimeter=rectanglePerimeter;container=0;" parent="X2-qcZrvFNYhqB2PLZgL-61" vertex="1">
          <mxGeometry y="10" width="360" height="40" as="geometry" />
        </mxCell>
        <mxCell id="X2-qcZrvFNYhqB2PLZgL-63" value="" style="rounded=0;whiteSpace=wrap;html=1;fillColor=#dae8fc;strokeColor=#6c8ebf;" parent="X2-qcZrvFNYhqB2PLZgL-61" vertex="1">
          <mxGeometry y="10" width="360" height="20" as="geometry" />
        </mxCell>
        <mxCell id="X2-qcZrvFNYhqB2PLZgL-64" value="" style="group" parent="X2-qcZrvFNYhqB2PLZgL-61" vertex="1" connectable="0">
          <mxGeometry y="10" width="360" height="50" as="geometry" />
        </mxCell>
        <mxCell id="X2-qcZrvFNYhqB2PLZgL-65" value="" style="group" parent="X2-qcZrvFNYhqB2PLZgL-64" vertex="1" connectable="0">
          <mxGeometry width="360" height="50" as="geometry" />
        </mxCell>
        <mxCell id="X2-qcZrvFNYhqB2PLZgL-66" value="ID: 0" style="text;html=1;strokeColor=default;fillColor=none;align=center;verticalAlign=middle;whiteSpace=wrap;rounded=0;" parent="X2-qcZrvFNYhqB2PLZgL-65" vertex="1">
          <mxGeometry width="80" height="20" as="geometry" />
        </mxCell>
        <mxCell id="X2-qcZrvFNYhqB2PLZgL-67" value="ID: 1" style="text;html=1;strokeColor=default;fillColor=none;align=center;verticalAlign=middle;whiteSpace=wrap;rounded=0;" parent="X2-qcZrvFNYhqB2PLZgL-65" vertex="1">
          <mxGeometry x="80" width="80" height="20" as="geometry" />
        </mxCell>
        <mxCell id="X2-qcZrvFNYhqB2PLZgL-68" value="ID: 2" style="text;html=1;strokeColor=default;fillColor=none;align=center;verticalAlign=middle;whiteSpace=wrap;rounded=0;" parent="X2-qcZrvFNYhqB2PLZgL-65" vertex="1">
          <mxGeometry x="160" width="80" height="20" as="geometry" />
        </mxCell>
        <mxCell id="X2-qcZrvFNYhqB2PLZgL-69" value="ID: 20" style="text;html=1;strokeColor=default;fillColor=none;align=center;verticalAlign=middle;whiteSpace=wrap;rounded=0;" parent="X2-qcZrvFNYhqB2PLZgL-65" vertex="1">
          <mxGeometry x="280" width="80" height="20" as="geometry" />
        </mxCell>
        <mxCell id="X2-qcZrvFNYhqB2PLZgL-70" value="•••" style="text;html=1;strokeColor=default;fillColor=none;align=center;verticalAlign=middle;whiteSpace=wrap;rounded=0;" parent="X2-qcZrvFNYhqB2PLZgL-65" vertex="1">
          <mxGeometry x="240" width="40" height="20" as="geometry" />
        </mxCell>
        <mxCell id="X2-qcZrvFNYhqB2PLZgL-71" value="" style="edgeStyle=orthogonalEdgeStyle;rounded=0;orthogonalLoop=1;jettySize=auto;html=1;" parent="X2-qcZrvFNYhqB2PLZgL-65" source="X2-qcZrvFNYhqB2PLZgL-72" target="X2-qcZrvFNYhqB2PLZgL-73" edge="1">
          <mxGeometry relative="1" as="geometry" />
        </mxCell>
        <mxCell id="X2-qcZrvFNYhqB2PLZgL-72" value="-0.24" style="rounded=0;whiteSpace=wrap;html=1;strokeColor=default;" parent="X2-qcZrvFNYhqB2PLZgL-65" vertex="1">
          <mxGeometry x="80" y="20" width="40" height="20" as="geometry" />
        </mxCell>
        <mxCell id="X2-qcZrvFNYhqB2PLZgL-73" value="" style="rounded=0;whiteSpace=wrap;html=1;strokeColor=default;" parent="X2-qcZrvFNYhqB2PLZgL-65" vertex="1">
          <mxGeometry x="160" y="20" width="80" height="20" as="geometry" />
        </mxCell>
        <mxCell id="X2-qcZrvFNYhqB2PLZgL-74" value="•••" style="text;html=1;strokeColor=none;fillColor=none;align=center;verticalAlign=middle;whiteSpace=wrap;rounded=0;" parent="X2-qcZrvFNYhqB2PLZgL-65" vertex="1">
          <mxGeometry x="240" y="20" width="40" height="20" as="geometry" />
        </mxCell>
        <mxCell id="X2-qcZrvFNYhqB2PLZgL-75" value="-0.4" style="rounded=0;whiteSpace=wrap;html=1;strokeColor=default;" parent="X2-qcZrvFNYhqB2PLZgL-65" vertex="1">
          <mxGeometry x="160" y="20" width="40" height="20" as="geometry" />
        </mxCell>
        <mxCell id="X2-qcZrvFNYhqB2PLZgL-76" value="-0.37" style="rounded=0;whiteSpace=wrap;html=1;strokeColor=default;" parent="X2-qcZrvFNYhqB2PLZgL-65" vertex="1">
          <mxGeometry x="200" y="20" width="40" height="20" as="geometry" />
        </mxCell>
        <mxCell id="X2-qcZrvFNYhqB2PLZgL-77" value="0" style="rounded=0;whiteSpace=wrap;html=1;strokeColor=default;" parent="X2-qcZrvFNYhqB2PLZgL-61" vertex="1">
          <mxGeometry y="30" width="40" height="20" as="geometry" />
        </mxCell>
        <mxCell id="X2-qcZrvFNYhqB2PLZgL-78" value="0" style="rounded=0;whiteSpace=wrap;html=1;strokeColor=default;" parent="X2-qcZrvFNYhqB2PLZgL-61" vertex="1">
          <mxGeometry x="40" y="30" width="40" height="20" as="geometry" />
        </mxCell>
        <mxCell id="X2-qcZrvFNYhqB2PLZgL-79" value="-0.13" style="rounded=0;whiteSpace=wrap;html=1;strokeColor=default;" parent="X2-qcZrvFNYhqB2PLZgL-61" vertex="1">
          <mxGeometry x="120" y="30" width="40" height="20" as="geometry" />
        </mxCell>
        <mxCell id="X2-qcZrvFNYhqB2PLZgL-80" value="0.545" style="rounded=0;whiteSpace=wrap;html=1;strokeColor=default;" parent="X2-qcZrvFNYhqB2PLZgL-61" vertex="1">
          <mxGeometry x="280" y="30" width="40" height="20" as="geometry" />
        </mxCell>
        <mxCell id="X2-qcZrvFNYhqB2PLZgL-81" value="-1" style="rounded=0;whiteSpace=wrap;html=1;strokeColor=default;" parent="X2-qcZrvFNYhqB2PLZgL-61" vertex="1">
          <mxGeometry x="320" y="30" width="40" height="20" as="geometry" />
        </mxCell>
        <mxCell id="X2-qcZrvFNYhqB2PLZgL-85" value="4" style="ellipse;whiteSpace=wrap;html=1;aspect=fixed;strokeColor=default;fontStyle=1;strokeWidth=2;" parent="X2-qcZrvFNYhqB2PLZgL-94" vertex="1">
          <mxGeometry width="20" height="20" as="geometry" />
        </mxCell>
        <mxCell id="X2-qcZrvFNYhqB2PLZgL-90" value="Нормализованные координаты" style="text;html=1;strokeColor=none;fillColor=none;align=left;verticalAlign=middle;whiteSpace=wrap;rounded=0;fontStyle=1" parent="X2-qcZrvFNYhqB2PLZgL-94" vertex="1">
          <mxGeometry x="20" width="340" height="20" as="geometry" />
        </mxCell>
        <mxCell id="X2-qcZrvFNYhqB2PLZgL-97" value="" style="group" parent="X2-qcZrvFNYhqB2PLZgL-110" vertex="1" connectable="0">
          <mxGeometry x="30" y="20" width="360" height="70" as="geometry" />
        </mxCell>
        <mxCell id="X2-qcZrvFNYhqB2PLZgL-11" value="" style="group" parent="X2-qcZrvFNYhqB2PLZgL-97" vertex="1" connectable="0">
          <mxGeometry y="10" width="360" height="60" as="geometry" />
        </mxCell>
        <mxCell id="X2-qcZrvFNYhqB2PLZgL-1" value="" style="rounded=0;whiteSpace=wrap;html=1;snapToPoint=1;allowArrows=1;perimeter=rectanglePerimeter;container=0;" parent="X2-qcZrvFNYhqB2PLZgL-11" vertex="1">
          <mxGeometry y="10" width="360" height="40" as="geometry" />
        </mxCell>
        <mxCell id="X2-qcZrvFNYhqB2PLZgL-4" value="" style="rounded=0;whiteSpace=wrap;html=1;fillColor=#dae8fc;strokeColor=#6c8ebf;" parent="X2-qcZrvFNYhqB2PLZgL-11" vertex="1">
          <mxGeometry y="10" width="360" height="20" as="geometry" />
        </mxCell>
        <mxCell id="X2-qcZrvFNYhqB2PLZgL-13" value="[551, 465]" style="rounded=0;whiteSpace=wrap;html=1;strokeColor=default;" parent="X2-qcZrvFNYhqB2PLZgL-11" vertex="1">
          <mxGeometry y="30" width="80" height="20" as="geometry" />
        </mxCell>
        <mxCell id="X2-qcZrvFNYhqB2PLZgL-23" value="[702, 188]" style="text;html=1;strokeColor=default;fillColor=none;align=center;verticalAlign=middle;whiteSpace=wrap;rounded=0;" parent="X2-qcZrvFNYhqB2PLZgL-11" vertex="1">
          <mxGeometry x="280" y="30" width="80" height="20" as="geometry" />
        </mxCell>
        <mxCell id="X2-qcZrvFNYhqB2PLZgL-91" value="" style="group" parent="X2-qcZrvFNYhqB2PLZgL-11" vertex="1" connectable="0">
          <mxGeometry y="-10" width="360" height="70" as="geometry" />
        </mxCell>
        <mxCell id="X2-qcZrvFNYhqB2PLZgL-18" value="" style="group" parent="X2-qcZrvFNYhqB2PLZgL-91" vertex="1" connectable="0">
          <mxGeometry y="20" width="360" height="50" as="geometry" />
        </mxCell>
        <mxCell id="X2-qcZrvFNYhqB2PLZgL-20" value="" style="group" parent="X2-qcZrvFNYhqB2PLZgL-18" vertex="1" connectable="0">
          <mxGeometry width="360" height="50" as="geometry" />
        </mxCell>
        <mxCell id="X2-qcZrvFNYhqB2PLZgL-6" value="ID: 0" style="text;html=1;strokeColor=default;fillColor=none;align=center;verticalAlign=middle;whiteSpace=wrap;rounded=0;" parent="X2-qcZrvFNYhqB2PLZgL-20" vertex="1">
          <mxGeometry width="80" height="20" as="geometry" />
        </mxCell>
        <mxCell id="X2-qcZrvFNYhqB2PLZgL-7" value="ID: 1" style="text;html=1;strokeColor=default;fillColor=none;align=center;verticalAlign=middle;whiteSpace=wrap;rounded=0;" parent="X2-qcZrvFNYhqB2PLZgL-20" vertex="1">
          <mxGeometry x="80" width="80" height="20" as="geometry" />
        </mxCell>
        <mxCell id="X2-qcZrvFNYhqB2PLZgL-8" value="ID: 2" style="text;html=1;strokeColor=default;fillColor=none;align=center;verticalAlign=middle;whiteSpace=wrap;rounded=0;" parent="X2-qcZrvFNYhqB2PLZgL-20" vertex="1">
          <mxGeometry x="160" width="80" height="20" as="geometry" />
        </mxCell>
        <mxCell id="X2-qcZrvFNYhqB2PLZgL-9" value="ID: 20" style="text;html=1;strokeColor=default;fillColor=none;align=center;verticalAlign=middle;whiteSpace=wrap;rounded=0;" parent="X2-qcZrvFNYhqB2PLZgL-20" vertex="1">
          <mxGeometry x="280" width="80" height="20" as="geometry" />
        </mxCell>
        <mxCell id="X2-qcZrvFNYhqB2PLZgL-10" value="•••" style="text;html=1;strokeColor=default;fillColor=none;align=center;verticalAlign=middle;whiteSpace=wrap;rounded=0;" parent="X2-qcZrvFNYhqB2PLZgL-20" vertex="1">
          <mxGeometry x="240" width="40" height="20" as="geometry" />
        </mxCell>
        <mxCell id="X2-qcZrvFNYhqB2PLZgL-14" value="[485, 428]" style="rounded=0;whiteSpace=wrap;html=1;strokeColor=default;" parent="X2-qcZrvFNYhqB2PLZgL-20" vertex="1">
          <mxGeometry x="80" y="20" width="80" height="20" as="geometry" />
        </mxCell>
        <mxCell id="X2-qcZrvFNYhqB2PLZgL-15" value="[439, 362]" style="rounded=0;whiteSpace=wrap;html=1;strokeColor=default;" parent="X2-qcZrvFNYhqB2PLZgL-20" vertex="1">
          <mxGeometry x="160" y="20" width="80" height="20" as="geometry" />
        </mxCell>
        <mxCell id="X2-qcZrvFNYhqB2PLZgL-22" value="•••" style="text;html=1;strokeColor=none;fillColor=none;align=center;verticalAlign=middle;whiteSpace=wrap;rounded=0;" parent="X2-qcZrvFNYhqB2PLZgL-20" vertex="1">
          <mxGeometry x="240" y="20" width="40" height="20" as="geometry" />
        </mxCell>
        <mxCell id="X2-qcZrvFNYhqB2PLZgL-82" value="1" style="ellipse;whiteSpace=wrap;html=1;aspect=fixed;strokeColor=default;fontStyle=1;strokeWidth=2;" parent="X2-qcZrvFNYhqB2PLZgL-91" vertex="1">
          <mxGeometry width="20" height="20" as="geometry" />
        </mxCell>
        <mxCell id="X2-qcZrvFNYhqB2PLZgL-87" value="Исходные координаты точек" style="text;html=1;strokeColor=none;fillColor=none;align=left;verticalAlign=middle;whiteSpace=wrap;rounded=0;fontStyle=1" parent="X2-qcZrvFNYhqB2PLZgL-97" vertex="1">
          <mxGeometry x="20" width="340" height="20" as="geometry" />
        </mxCell>
        <mxCell id="X2-qcZrvFNYhqB2PLZgL-99" value="" style="group" parent="X2-qcZrvFNYhqB2PLZgL-110" vertex="1" connectable="0">
          <mxGeometry x="30" y="200" width="360" height="70" as="geometry" />
        </mxCell>
        <mxCell id="X2-qcZrvFNYhqB2PLZgL-39" value="" style="group" parent="X2-qcZrvFNYhqB2PLZgL-99" vertex="1" connectable="0">
          <mxGeometry y="10" width="360" height="60" as="geometry" />
        </mxCell>
        <mxCell id="X2-qcZrvFNYhqB2PLZgL-40" value="" style="rounded=0;whiteSpace=wrap;html=1;snapToPoint=1;allowArrows=1;perimeter=rectanglePerimeter;container=0;" parent="X2-qcZrvFNYhqB2PLZgL-39" vertex="1">
          <mxGeometry y="10" width="360" height="40" as="geometry" />
        </mxCell>
        <mxCell id="X2-qcZrvFNYhqB2PLZgL-41" value="" style="rounded=0;whiteSpace=wrap;html=1;fillColor=#dae8fc;strokeColor=#6c8ebf;" parent="X2-qcZrvFNYhqB2PLZgL-39" vertex="1">
          <mxGeometry y="10" width="360" height="20" as="geometry" />
        </mxCell>
        <mxCell id="X2-qcZrvFNYhqB2PLZgL-52" value="0" style="rounded=0;whiteSpace=wrap;html=1;strokeColor=default;" parent="X2-qcZrvFNYhqB2PLZgL-39" vertex="1">
          <mxGeometry y="30" width="40" height="20" as="geometry" />
        </mxCell>
        <mxCell id="X2-qcZrvFNYhqB2PLZgL-54" value="0" style="rounded=0;whiteSpace=wrap;html=1;strokeColor=default;" parent="X2-qcZrvFNYhqB2PLZgL-39" vertex="1">
          <mxGeometry x="40" y="30" width="40" height="20" as="geometry" />
        </mxCell>
        <mxCell id="X2-qcZrvFNYhqB2PLZgL-55" value="-37" style="rounded=0;whiteSpace=wrap;html=1;strokeColor=default;" parent="X2-qcZrvFNYhqB2PLZgL-39" vertex="1">
          <mxGeometry x="120" y="30" width="40" height="20" as="geometry" />
        </mxCell>
        <mxCell id="X2-qcZrvFNYhqB2PLZgL-59" value="151" style="rounded=0;whiteSpace=wrap;html=1;strokeColor=default;" parent="X2-qcZrvFNYhqB2PLZgL-39" vertex="1">
          <mxGeometry x="280" y="30" width="40" height="20" as="geometry" />
        </mxCell>
        <mxCell id="X2-qcZrvFNYhqB2PLZgL-60" value="-277" style="rounded=0;whiteSpace=wrap;html=1;strokeColor=default;" parent="X2-qcZrvFNYhqB2PLZgL-39" vertex="1">
          <mxGeometry x="320" y="30" width="40" height="20" as="geometry" />
        </mxCell>
        <mxCell id="X2-qcZrvFNYhqB2PLZgL-93" value="" style="group" parent="X2-qcZrvFNYhqB2PLZgL-39" vertex="1" connectable="0">
          <mxGeometry y="-10" width="360" height="70" as="geometry" />
        </mxCell>
        <mxCell id="X2-qcZrvFNYhqB2PLZgL-42" value="" style="group" parent="X2-qcZrvFNYhqB2PLZgL-93" vertex="1" connectable="0">
          <mxGeometry y="20" width="360" height="50" as="geometry" />
        </mxCell>
        <mxCell id="X2-qcZrvFNYhqB2PLZgL-43" value="" style="group" parent="X2-qcZrvFNYhqB2PLZgL-42" vertex="1" connectable="0">
          <mxGeometry width="360" height="50" as="geometry" />
        </mxCell>
        <mxCell id="X2-qcZrvFNYhqB2PLZgL-44" value="ID: 0" style="text;html=1;strokeColor=default;fillColor=none;align=center;verticalAlign=middle;whiteSpace=wrap;rounded=0;" parent="X2-qcZrvFNYhqB2PLZgL-43" vertex="1">
          <mxGeometry width="80" height="20" as="geometry" />
        </mxCell>
        <mxCell id="X2-qcZrvFNYhqB2PLZgL-45" value="ID: 1" style="text;html=1;strokeColor=default;fillColor=none;align=center;verticalAlign=middle;whiteSpace=wrap;rounded=0;" parent="X2-qcZrvFNYhqB2PLZgL-43" vertex="1">
          <mxGeometry x="80" width="80" height="20" as="geometry" />
        </mxCell>
        <mxCell id="X2-qcZrvFNYhqB2PLZgL-46" value="ID: 2" style="text;html=1;strokeColor=default;fillColor=none;align=center;verticalAlign=middle;whiteSpace=wrap;rounded=0;" parent="X2-qcZrvFNYhqB2PLZgL-43" vertex="1">
          <mxGeometry x="160" width="80" height="20" as="geometry" />
        </mxCell>
        <mxCell id="X2-qcZrvFNYhqB2PLZgL-47" value="ID: 20" style="text;html=1;strokeColor=default;fillColor=none;align=center;verticalAlign=middle;whiteSpace=wrap;rounded=0;" parent="X2-qcZrvFNYhqB2PLZgL-43" vertex="1">
          <mxGeometry x="280" width="80" height="20" as="geometry" />
        </mxCell>
        <mxCell id="X2-qcZrvFNYhqB2PLZgL-48" value="•••" style="text;html=1;strokeColor=default;fillColor=none;align=center;verticalAlign=middle;whiteSpace=wrap;rounded=0;" parent="X2-qcZrvFNYhqB2PLZgL-43" vertex="1">
          <mxGeometry x="240" width="40" height="20" as="geometry" />
        </mxCell>
        <mxCell id="X2-qcZrvFNYhqB2PLZgL-49" value="-66" style="rounded=0;whiteSpace=wrap;html=1;strokeColor=default;" parent="X2-qcZrvFNYhqB2PLZgL-43" vertex="1">
          <mxGeometry x="80" y="20" width="40" height="20" as="geometry" />
        </mxCell>
        <mxCell id="X2-qcZrvFNYhqB2PLZgL-50" value="" style="rounded=0;whiteSpace=wrap;html=1;strokeColor=default;" parent="X2-qcZrvFNYhqB2PLZgL-43" vertex="1">
          <mxGeometry x="160" y="20" width="80" height="20" as="geometry" />
        </mxCell>
        <mxCell id="X2-qcZrvFNYhqB2PLZgL-51" value="•••" style="text;html=1;strokeColor=none;fillColor=none;align=center;verticalAlign=middle;whiteSpace=wrap;rounded=0;" parent="X2-qcZrvFNYhqB2PLZgL-43" vertex="1">
          <mxGeometry x="240" y="20" width="40" height="20" as="geometry" />
        </mxCell>
        <mxCell id="X2-qcZrvFNYhqB2PLZgL-57" value="-112" style="rounded=0;whiteSpace=wrap;html=1;strokeColor=default;" parent="X2-qcZrvFNYhqB2PLZgL-43" vertex="1">
          <mxGeometry x="160" y="20" width="40" height="20" as="geometry" />
        </mxCell>
        <mxCell id="X2-qcZrvFNYhqB2PLZgL-58" value="-103" style="rounded=0;whiteSpace=wrap;html=1;strokeColor=default;" parent="X2-qcZrvFNYhqB2PLZgL-43" vertex="1">
          <mxGeometry x="200" y="20" width="40" height="20" as="geometry" />
        </mxCell>
        <mxCell id="X2-qcZrvFNYhqB2PLZgL-84" value="3" style="ellipse;whiteSpace=wrap;html=1;aspect=fixed;strokeColor=default;fontStyle=1;strokeWidth=2;" parent="X2-qcZrvFNYhqB2PLZgL-93" vertex="1">
          <mxGeometry width="20" height="20" as="geometry" />
        </mxCell>
        <mxCell id="X2-qcZrvFNYhqB2PLZgL-89" value="Преобразование к массиву одной размерности" style="text;html=1;strokeColor=none;fillColor=none;align=left;verticalAlign=middle;whiteSpace=wrap;rounded=0;fontStyle=1" parent="X2-qcZrvFNYhqB2PLZgL-99" vertex="1">
          <mxGeometry x="20" width="340" height="20" as="geometry" />
        </mxCell>
        <mxCell id="X2-qcZrvFNYhqB2PLZgL-105" style="edgeStyle=orthogonalEdgeStyle;rounded=0;orthogonalLoop=1;jettySize=auto;html=1;exitX=0;exitY=0;exitDx=0;exitDy=0;entryX=0;entryY=0;entryDx=0;entryDy=0;strokeWidth=2;endSize=6;startSize=6;jumpSize=6;shadow=0;" parent="X2-qcZrvFNYhqB2PLZgL-110" source="X2-qcZrvFNYhqB2PLZgL-82" target="X2-qcZrvFNYhqB2PLZgL-83" edge="1">
          <mxGeometry relative="1" as="geometry">
            <Array as="points">
              <mxPoint x="10" y="23" />
              <mxPoint x="10" y="113" />
            </Array>
          </mxGeometry>
        </mxCell>
        <mxCell id="X2-qcZrvFNYhqB2PLZgL-106" style="edgeStyle=orthogonalEdgeStyle;rounded=0;orthogonalLoop=1;jettySize=auto;html=1;exitX=0;exitY=0.5;exitDx=0;exitDy=0;entryX=0;entryY=0;entryDx=0;entryDy=0;strokeWidth=2;" parent="X2-qcZrvFNYhqB2PLZgL-110" source="X2-qcZrvFNYhqB2PLZgL-83" target="X2-qcZrvFNYhqB2PLZgL-84" edge="1">
          <mxGeometry relative="1" as="geometry">
            <Array as="points">
              <mxPoint x="10" y="120" />
              <mxPoint x="10" y="203" />
            </Array>
          </mxGeometry>
        </mxCell>
        <mxCell id="X2-qcZrvFNYhqB2PLZgL-107" style="edgeStyle=orthogonalEdgeStyle;rounded=0;orthogonalLoop=1;jettySize=auto;html=1;exitX=0;exitY=0.5;exitDx=0;exitDy=0;entryX=0;entryY=0;entryDx=0;entryDy=0;strokeWidth=2;" parent="X2-qcZrvFNYhqB2PLZgL-110" source="X2-qcZrvFNYhqB2PLZgL-84" target="X2-qcZrvFNYhqB2PLZgL-85" edge="1">
          <mxGeometry relative="1" as="geometry">
            <Array as="points">
              <mxPoint x="10" y="210" />
              <mxPoint x="10" y="293" />
            </Array>
          </mxGeometry>
        </mxCell>
      </root>
    </mxGraphModel>
  </diagram>
  <diagram id="WrXaxHJBQKNkWM8daFef" name="Page-2">
    <mxGraphModel dx="5704" dy="4473" grid="1" gridSize="43" guides="1" tooltips="1" connect="1" arrows="1" fold="1" page="1" pageScale="1" pageWidth="827" pageHeight="1169" math="0" shadow="0">
      <root>
        <mxCell id="0" />
        <mxCell id="1" parent="0" />
        <mxCell id="uaP6zwDsvVWyuOUaEy8a-1" value="" style="group" parent="1" vertex="1" connectable="0">
          <mxGeometry x="107.5" y="-602" width="2558.5" height="2021" as="geometry" />
        </mxCell>
        <mxCell id="vhUVrHwWMQ6QW9J7ZPH3-52" value="" style="rounded=0;whiteSpace=wrap;html=1;shadow=0;glass=0;labelBackgroundColor=none;labelBorderColor=none;fontFamily=Helvetica;fontSize=50;strokeWidth=5;fillColor=none;strokeColor=none;" parent="uaP6zwDsvVWyuOUaEy8a-1" vertex="1">
          <mxGeometry width="2558.5" height="2021" as="geometry" />
        </mxCell>
        <mxCell id="vQEVoECj0ROeTH8SETTA-7" value="" style="rounded=0;whiteSpace=wrap;html=1;labelBorderColor=none;fontSize=37;strokeColor=#666666;strokeWidth=2;fillColor=#f5f5f5;dashed=1;fontColor=#333333;" parent="uaP6zwDsvVWyuOUaEy8a-1" vertex="1">
          <mxGeometry x="64.5" y="714" width="2408" height="447" as="geometry" />
        </mxCell>
        <mxCell id="ei4XDJJB2DjugkBJXN4E-1" value="" style="group;fillColor=none;horizontal=0;verticalAlign=middle;html=1;" parent="uaP6zwDsvVWyuOUaEy8a-1" vertex="1" connectable="0">
          <mxGeometry x="150.5" y="774" width="344" height="344" as="geometry" />
        </mxCell>
        <mxCell id="ei4XDJJB2DjugkBJXN4E-2" value="" style="rounded=0;whiteSpace=wrap;html=1;strokeColor=#ae4132;strokeWidth=1;fillColor=#fad9d5;dashed=1;" parent="ei4XDJJB2DjugkBJXN4E-1" vertex="1">
          <mxGeometry width="344" height="344" as="geometry" />
        </mxCell>
        <mxCell id="ei4XDJJB2DjugkBJXN4E-3" value="" style="group" parent="ei4XDJJB2DjugkBJXN4E-1" vertex="1" connectable="0">
          <mxGeometry x="25.8" y="105.1111111111111" width="309.6" height="66.88888888888889" as="geometry" />
        </mxCell>
        <mxCell id="ei4XDJJB2DjugkBJXN4E-4" value="" style="group" parent="ei4XDJJB2DjugkBJXN4E-3" vertex="1" connectable="0">
          <mxGeometry y="9.555555555555554" width="309.6" height="57.33333333333333" as="geometry" />
        </mxCell>
        <mxCell id="ei4XDJJB2DjugkBJXN4E-5" value="" style="rounded=0;whiteSpace=wrap;html=1;snapToPoint=1;allowArrows=1;perimeter=rectanglePerimeter;container=0;" parent="ei4XDJJB2DjugkBJXN4E-4" vertex="1">
          <mxGeometry y="9.555555555555555" width="309.6" height="38.22222222222222" as="geometry" />
        </mxCell>
        <mxCell id="ei4XDJJB2DjugkBJXN4E-6" value="" style="rounded=0;whiteSpace=wrap;html=1;fillColor=#dae8fc;strokeColor=#6c8ebf;" parent="ei4XDJJB2DjugkBJXN4E-4" vertex="1">
          <mxGeometry y="9.555555555555555" width="309.6" height="19.11111111111111" as="geometry" />
        </mxCell>
        <mxCell id="ei4XDJJB2DjugkBJXN4E-7" value="" style="group" parent="ei4XDJJB2DjugkBJXN4E-4" vertex="1" connectable="0">
          <mxGeometry y="9.555555555555555" width="309.6" height="47.777777777777786" as="geometry" />
        </mxCell>
        <mxCell id="ei4XDJJB2DjugkBJXN4E-8" value="" style="group" parent="ei4XDJJB2DjugkBJXN4E-7" vertex="1" connectable="0">
          <mxGeometry width="309.6" height="47.777777777777786" as="geometry" />
        </mxCell>
        <mxCell id="ei4XDJJB2DjugkBJXN4E-9" value="ID: 0" style="text;html=1;strokeColor=default;fillColor=none;align=center;verticalAlign=middle;whiteSpace=wrap;rounded=0;" parent="ei4XDJJB2DjugkBJXN4E-8" vertex="1">
          <mxGeometry width="68.8" height="19.111111111111114" as="geometry" />
        </mxCell>
        <mxCell id="ei4XDJJB2DjugkBJXN4E-10" value="ID: 1" style="text;html=1;strokeColor=default;fillColor=none;align=center;verticalAlign=middle;whiteSpace=wrap;rounded=0;" parent="ei4XDJJB2DjugkBJXN4E-8" vertex="1">
          <mxGeometry x="68.8" width="68.8" height="19.111111111111114" as="geometry" />
        </mxCell>
        <mxCell id="ei4XDJJB2DjugkBJXN4E-11" value="ID: 2" style="text;html=1;strokeColor=default;fillColor=none;align=center;verticalAlign=middle;whiteSpace=wrap;rounded=0;" parent="ei4XDJJB2DjugkBJXN4E-8" vertex="1">
          <mxGeometry x="137.6" width="68.8" height="19.111111111111114" as="geometry" />
        </mxCell>
        <mxCell id="ei4XDJJB2DjugkBJXN4E-12" value="ID: 20" style="text;html=1;strokeColor=default;fillColor=none;align=center;verticalAlign=middle;whiteSpace=wrap;rounded=0;" parent="ei4XDJJB2DjugkBJXN4E-8" vertex="1">
          <mxGeometry x="240.8" width="68.8" height="19.111111111111114" as="geometry" />
        </mxCell>
        <mxCell id="ei4XDJJB2DjugkBJXN4E-13" value="•••" style="text;html=1;strokeColor=default;fillColor=none;align=center;verticalAlign=middle;whiteSpace=wrap;rounded=0;" parent="ei4XDJJB2DjugkBJXN4E-8" vertex="1">
          <mxGeometry x="206.4" width="34.4" height="19.111111111111114" as="geometry" />
        </mxCell>
        <mxCell id="ei4XDJJB2DjugkBJXN4E-14" value="[-66, -37]" style="rounded=0;whiteSpace=wrap;html=1;strokeColor=default;" parent="ei4XDJJB2DjugkBJXN4E-8" vertex="1">
          <mxGeometry x="68.8" y="19.111111111111114" width="68.8" height="19.111111111111114" as="geometry" />
        </mxCell>
        <mxCell id="ei4XDJJB2DjugkBJXN4E-15" value="[-112, -103]" style="rounded=0;whiteSpace=wrap;html=1;strokeColor=default;" parent="ei4XDJJB2DjugkBJXN4E-8" vertex="1">
          <mxGeometry x="137.6" y="19.111111111111114" width="68.8" height="19.111111111111114" as="geometry" />
        </mxCell>
        <mxCell id="ei4XDJJB2DjugkBJXN4E-16" value="•••" style="text;html=1;strokeColor=none;fillColor=none;align=center;verticalAlign=middle;whiteSpace=wrap;rounded=0;" parent="ei4XDJJB2DjugkBJXN4E-8" vertex="1">
          <mxGeometry x="206.4" y="19.111111111111114" width="34.4" height="19.111111111111114" as="geometry" />
        </mxCell>
        <mxCell id="ei4XDJJB2DjugkBJXN4E-17" value="[0, 0]" style="rounded=0;whiteSpace=wrap;html=1;strokeColor=default;" parent="ei4XDJJB2DjugkBJXN4E-4" vertex="1">
          <mxGeometry y="28.666666666666664" width="68.8" height="19.11111111111111" as="geometry" />
        </mxCell>
        <mxCell id="ei4XDJJB2DjugkBJXN4E-18" value="[151, -277]" style="text;html=1;strokeColor=default;fillColor=none;align=center;verticalAlign=middle;whiteSpace=wrap;rounded=0;" parent="ei4XDJJB2DjugkBJXN4E-4" vertex="1">
          <mxGeometry x="240.8" y="28.666666666666664" width="68.8" height="19.11111111111111" as="geometry" />
        </mxCell>
        <mxCell id="ei4XDJJB2DjugkBJXN4E-19" value="2&lt;span style=&quot;color: rgba(0, 0, 0, 0); font-family: monospace; font-size: 0px; text-align: start;&quot;&gt;%3CmxGraphModel%3E%3Croot%3E%3CmxCell%20id%3D%220%22%2F%3E%3CmxCell%20id%3D%221%22%20parent%3D%220%22%2F%3E%3CmxCell%20id%3D%222%22%20value%3D%221%22%20style%3D%22ellipse%3BwhiteSpace%3Dwrap%3Bhtml%3D1%3Baspect%3Dfixed%3BstrokeColor%3Ddefault%3B%22%20vertex%3D%221%22%20parent%3D%221%22%3E%3CmxGeometry%20x%3D%2260%22%20y%3D%22100%22%20width%3D%2220%22%20height%3D%2220%22%20as%3D%22geometry%22%2F%3E%3C%2FmxCell%3E%3C%2Froot%3E%3C%2FmxGraphModel%3E&lt;/span&gt;" style="ellipse;whiteSpace=wrap;html=1;aspect=fixed;strokeColor=default;fontStyle=1;strokeWidth=2;" parent="ei4XDJJB2DjugkBJXN4E-3" vertex="1">
          <mxGeometry width="14.156493506493508" height="14.156493506493508" as="geometry" />
        </mxCell>
        <mxCell id="ei4XDJJB2DjugkBJXN4E-20" value="Относительные ID: 0 координаты" style="text;html=1;strokeColor=none;fillColor=none;align=left;verticalAlign=middle;whiteSpace=wrap;rounded=0;fontStyle=1" parent="ei4XDJJB2DjugkBJXN4E-3" vertex="1">
          <mxGeometry x="17.2" width="292.40000000000003" height="19.111111111111107" as="geometry" />
        </mxCell>
        <mxCell id="ei4XDJJB2DjugkBJXN4E-21" value="" style="group" parent="ei4XDJJB2DjugkBJXN4E-1" vertex="1" connectable="0">
          <mxGeometry x="25.8" y="277.11111111111114" width="309.6" height="66.88888888888889" as="geometry" />
        </mxCell>
        <mxCell id="ei4XDJJB2DjugkBJXN4E-22" value="" style="group" parent="ei4XDJJB2DjugkBJXN4E-21" vertex="1" connectable="0">
          <mxGeometry y="9.555555555555554" width="309.6" height="57.33333333333333" as="geometry" />
        </mxCell>
        <mxCell id="ei4XDJJB2DjugkBJXN4E-23" value="" style="rounded=0;whiteSpace=wrap;html=1;snapToPoint=1;allowArrows=1;perimeter=rectanglePerimeter;container=0;" parent="ei4XDJJB2DjugkBJXN4E-22" vertex="1">
          <mxGeometry y="9.555555555555555" width="309.6" height="38.22222222222222" as="geometry" />
        </mxCell>
        <mxCell id="ei4XDJJB2DjugkBJXN4E-24" value="" style="rounded=0;whiteSpace=wrap;html=1;fillColor=#dae8fc;strokeColor=#6c8ebf;" parent="ei4XDJJB2DjugkBJXN4E-22" vertex="1">
          <mxGeometry y="9.555555555555555" width="309.6" height="19.11111111111111" as="geometry" />
        </mxCell>
        <mxCell id="ei4XDJJB2DjugkBJXN4E-25" value="" style="group" parent="ei4XDJJB2DjugkBJXN4E-22" vertex="1" connectable="0">
          <mxGeometry y="9.555555555555555" width="309.6" height="47.777777777777786" as="geometry" />
        </mxCell>
        <mxCell id="ei4XDJJB2DjugkBJXN4E-26" value="" style="group" parent="ei4XDJJB2DjugkBJXN4E-25" vertex="1" connectable="0">
          <mxGeometry width="309.6" height="47.777777777777786" as="geometry" />
        </mxCell>
        <mxCell id="ei4XDJJB2DjugkBJXN4E-27" value="ID: 0" style="text;html=1;strokeColor=default;fillColor=none;align=center;verticalAlign=middle;whiteSpace=wrap;rounded=0;" parent="ei4XDJJB2DjugkBJXN4E-26" vertex="1">
          <mxGeometry width="68.8" height="19.111111111111114" as="geometry" />
        </mxCell>
        <mxCell id="ei4XDJJB2DjugkBJXN4E-28" value="ID: 1" style="text;html=1;strokeColor=default;fillColor=none;align=center;verticalAlign=middle;whiteSpace=wrap;rounded=0;" parent="ei4XDJJB2DjugkBJXN4E-26" vertex="1">
          <mxGeometry x="68.8" width="68.8" height="19.111111111111114" as="geometry" />
        </mxCell>
        <mxCell id="ei4XDJJB2DjugkBJXN4E-29" value="ID: 2" style="text;html=1;strokeColor=default;fillColor=none;align=center;verticalAlign=middle;whiteSpace=wrap;rounded=0;" parent="ei4XDJJB2DjugkBJXN4E-26" vertex="1">
          <mxGeometry x="137.6" width="68.8" height="19.111111111111114" as="geometry" />
        </mxCell>
        <mxCell id="ei4XDJJB2DjugkBJXN4E-30" value="ID: 20" style="text;html=1;strokeColor=default;fillColor=none;align=center;verticalAlign=middle;whiteSpace=wrap;rounded=0;" parent="ei4XDJJB2DjugkBJXN4E-26" vertex="1">
          <mxGeometry x="240.8" width="68.8" height="19.111111111111114" as="geometry" />
        </mxCell>
        <mxCell id="ei4XDJJB2DjugkBJXN4E-31" value="•••" style="text;html=1;strokeColor=default;fillColor=none;align=center;verticalAlign=middle;whiteSpace=wrap;rounded=0;" parent="ei4XDJJB2DjugkBJXN4E-26" vertex="1">
          <mxGeometry x="206.4" width="34.4" height="19.111111111111114" as="geometry" />
        </mxCell>
        <mxCell id="ei4XDJJB2DjugkBJXN4E-32" value="" style="edgeStyle=orthogonalEdgeStyle;rounded=0;orthogonalLoop=1;jettySize=auto;html=1;" parent="ei4XDJJB2DjugkBJXN4E-26" source="ei4XDJJB2DjugkBJXN4E-33" target="ei4XDJJB2DjugkBJXN4E-34" edge="1">
          <mxGeometry relative="1" as="geometry" />
        </mxCell>
        <mxCell id="ei4XDJJB2DjugkBJXN4E-33" value="-0.24" style="rounded=0;whiteSpace=wrap;html=1;strokeColor=default;" parent="ei4XDJJB2DjugkBJXN4E-26" vertex="1">
          <mxGeometry x="68.8" y="19.111111111111114" width="34.4" height="19.111111111111114" as="geometry" />
        </mxCell>
        <mxCell id="ei4XDJJB2DjugkBJXN4E-34" value="" style="rounded=0;whiteSpace=wrap;html=1;strokeColor=default;" parent="ei4XDJJB2DjugkBJXN4E-26" vertex="1">
          <mxGeometry x="137.6" y="19.111111111111114" width="68.8" height="19.111111111111114" as="geometry" />
        </mxCell>
        <mxCell id="ei4XDJJB2DjugkBJXN4E-35" value="•••" style="text;html=1;strokeColor=none;fillColor=none;align=center;verticalAlign=middle;whiteSpace=wrap;rounded=0;" parent="ei4XDJJB2DjugkBJXN4E-26" vertex="1">
          <mxGeometry x="206.4" y="19.111111111111114" width="34.4" height="19.111111111111114" as="geometry" />
        </mxCell>
        <mxCell id="ei4XDJJB2DjugkBJXN4E-36" value="-0.4" style="rounded=0;whiteSpace=wrap;html=1;strokeColor=default;" parent="ei4XDJJB2DjugkBJXN4E-26" vertex="1">
          <mxGeometry x="137.6" y="19.111111111111114" width="34.4" height="19.111111111111114" as="geometry" />
        </mxCell>
        <mxCell id="ei4XDJJB2DjugkBJXN4E-37" value="-0.37" style="rounded=0;whiteSpace=wrap;html=1;strokeColor=default;" parent="ei4XDJJB2DjugkBJXN4E-26" vertex="1">
          <mxGeometry x="172" y="19.111111111111114" width="34.4" height="19.111111111111114" as="geometry" />
        </mxCell>
        <mxCell id="ei4XDJJB2DjugkBJXN4E-38" value="0" style="rounded=0;whiteSpace=wrap;html=1;strokeColor=default;" parent="ei4XDJJB2DjugkBJXN4E-22" vertex="1">
          <mxGeometry y="28.666666666666664" width="34.4" height="19.11111111111111" as="geometry" />
        </mxCell>
        <mxCell id="ei4XDJJB2DjugkBJXN4E-39" value="0" style="rounded=0;whiteSpace=wrap;html=1;strokeColor=default;" parent="ei4XDJJB2DjugkBJXN4E-22" vertex="1">
          <mxGeometry x="34.4" y="28.666666666666664" width="34.4" height="19.11111111111111" as="geometry" />
        </mxCell>
        <mxCell id="ei4XDJJB2DjugkBJXN4E-40" value="-0.13" style="rounded=0;whiteSpace=wrap;html=1;strokeColor=default;" parent="ei4XDJJB2DjugkBJXN4E-22" vertex="1">
          <mxGeometry x="103.2" y="28.666666666666664" width="34.4" height="19.11111111111111" as="geometry" />
        </mxCell>
        <mxCell id="ei4XDJJB2DjugkBJXN4E-41" value="0.545" style="rounded=0;whiteSpace=wrap;html=1;strokeColor=default;" parent="ei4XDJJB2DjugkBJXN4E-22" vertex="1">
          <mxGeometry x="240.8" y="28.666666666666664" width="34.4" height="19.11111111111111" as="geometry" />
        </mxCell>
        <mxCell id="ei4XDJJB2DjugkBJXN4E-42" value="-1" style="rounded=0;whiteSpace=wrap;html=1;strokeColor=default;" parent="ei4XDJJB2DjugkBJXN4E-22" vertex="1">
          <mxGeometry x="275.2" y="28.666666666666664" width="34.4" height="19.11111111111111" as="geometry" />
        </mxCell>
        <mxCell id="ei4XDJJB2DjugkBJXN4E-43" value="4" style="ellipse;whiteSpace=wrap;html=1;aspect=fixed;strokeColor=default;fontStyle=1;strokeWidth=2;" parent="ei4XDJJB2DjugkBJXN4E-21" vertex="1">
          <mxGeometry width="14.156493506493508" height="14.156493506493508" as="geometry" />
        </mxCell>
        <mxCell id="ei4XDJJB2DjugkBJXN4E-44" value="Нормализованные координаты" style="text;html=1;strokeColor=none;fillColor=none;align=left;verticalAlign=middle;whiteSpace=wrap;rounded=0;fontStyle=1" parent="ei4XDJJB2DjugkBJXN4E-21" vertex="1">
          <mxGeometry x="17.2" width="292.40000000000003" height="19.111111111111107" as="geometry" />
        </mxCell>
        <mxCell id="ei4XDJJB2DjugkBJXN4E-45" value="" style="group" parent="ei4XDJJB2DjugkBJXN4E-1" vertex="1" connectable="0">
          <mxGeometry x="25.8" y="19.111111111111107" width="309.6" height="66.88888888888889" as="geometry" />
        </mxCell>
        <mxCell id="ei4XDJJB2DjugkBJXN4E-46" value="" style="group" parent="ei4XDJJB2DjugkBJXN4E-45" vertex="1" connectable="0">
          <mxGeometry y="9.555555555555554" width="309.6" height="57.33333333333333" as="geometry" />
        </mxCell>
        <mxCell id="ei4XDJJB2DjugkBJXN4E-47" value="" style="rounded=0;whiteSpace=wrap;html=1;snapToPoint=1;allowArrows=1;perimeter=rectanglePerimeter;container=0;" parent="ei4XDJJB2DjugkBJXN4E-46" vertex="1">
          <mxGeometry y="9.555555555555555" width="309.6" height="38.22222222222222" as="geometry" />
        </mxCell>
        <mxCell id="ei4XDJJB2DjugkBJXN4E-48" value="" style="rounded=0;whiteSpace=wrap;html=1;fillColor=#dae8fc;strokeColor=#6c8ebf;" parent="ei4XDJJB2DjugkBJXN4E-46" vertex="1">
          <mxGeometry y="9.555555555555555" width="309.6" height="19.11111111111111" as="geometry" />
        </mxCell>
        <mxCell id="ei4XDJJB2DjugkBJXN4E-49" value="[551, 465]" style="rounded=0;whiteSpace=wrap;html=1;strokeColor=default;" parent="ei4XDJJB2DjugkBJXN4E-46" vertex="1">
          <mxGeometry y="28.666666666666664" width="68.8" height="19.11111111111111" as="geometry" />
        </mxCell>
        <mxCell id="ei4XDJJB2DjugkBJXN4E-50" value="[702, 188]" style="text;html=1;strokeColor=default;fillColor=none;align=center;verticalAlign=middle;whiteSpace=wrap;rounded=0;" parent="ei4XDJJB2DjugkBJXN4E-46" vertex="1">
          <mxGeometry x="240.8" y="28.666666666666664" width="68.8" height="19.11111111111111" as="geometry" />
        </mxCell>
        <mxCell id="ei4XDJJB2DjugkBJXN4E-51" value="" style="group" parent="ei4XDJJB2DjugkBJXN4E-46" vertex="1" connectable="0">
          <mxGeometry y="-9.555555555555555" width="309.6" height="66.8888888888889" as="geometry" />
        </mxCell>
        <mxCell id="ei4XDJJB2DjugkBJXN4E-52" value="" style="group" parent="ei4XDJJB2DjugkBJXN4E-51" vertex="1" connectable="0">
          <mxGeometry y="19.111111111111114" width="309.6" height="47.77777777777779" as="geometry" />
        </mxCell>
        <mxCell id="ei4XDJJB2DjugkBJXN4E-53" value="" style="group" parent="ei4XDJJB2DjugkBJXN4E-52" vertex="1" connectable="0">
          <mxGeometry width="309.6" height="47.77777777777779" as="geometry" />
        </mxCell>
        <mxCell id="ei4XDJJB2DjugkBJXN4E-54" value="ID: 0" style="text;html=1;strokeColor=default;fillColor=none;align=center;verticalAlign=middle;whiteSpace=wrap;rounded=0;" parent="ei4XDJJB2DjugkBJXN4E-53" vertex="1">
          <mxGeometry width="68.8" height="19.111111111111118" as="geometry" />
        </mxCell>
        <mxCell id="ei4XDJJB2DjugkBJXN4E-55" value="ID: 1" style="text;html=1;strokeColor=default;fillColor=none;align=center;verticalAlign=middle;whiteSpace=wrap;rounded=0;" parent="ei4XDJJB2DjugkBJXN4E-53" vertex="1">
          <mxGeometry x="68.8" width="68.8" height="19.111111111111118" as="geometry" />
        </mxCell>
        <mxCell id="ei4XDJJB2DjugkBJXN4E-56" value="ID: 2" style="text;html=1;strokeColor=default;fillColor=none;align=center;verticalAlign=middle;whiteSpace=wrap;rounded=0;" parent="ei4XDJJB2DjugkBJXN4E-53" vertex="1">
          <mxGeometry x="137.6" width="68.8" height="19.111111111111118" as="geometry" />
        </mxCell>
        <mxCell id="ei4XDJJB2DjugkBJXN4E-57" value="ID: 20" style="text;html=1;strokeColor=default;fillColor=none;align=center;verticalAlign=middle;whiteSpace=wrap;rounded=0;" parent="ei4XDJJB2DjugkBJXN4E-53" vertex="1">
          <mxGeometry x="240.8" width="68.8" height="19.111111111111118" as="geometry" />
        </mxCell>
        <mxCell id="ei4XDJJB2DjugkBJXN4E-58" value="•••" style="text;html=1;strokeColor=default;fillColor=none;align=center;verticalAlign=middle;whiteSpace=wrap;rounded=0;" parent="ei4XDJJB2DjugkBJXN4E-53" vertex="1">
          <mxGeometry x="206.4" width="34.4" height="19.111111111111118" as="geometry" />
        </mxCell>
        <mxCell id="ei4XDJJB2DjugkBJXN4E-59" value="[485, 428]" style="rounded=0;whiteSpace=wrap;html=1;strokeColor=default;" parent="ei4XDJJB2DjugkBJXN4E-53" vertex="1">
          <mxGeometry x="68.8" y="19.111111111111118" width="68.8" height="19.111111111111118" as="geometry" />
        </mxCell>
        <mxCell id="ei4XDJJB2DjugkBJXN4E-60" value="[439, 362]" style="rounded=0;whiteSpace=wrap;html=1;strokeColor=default;" parent="ei4XDJJB2DjugkBJXN4E-53" vertex="1">
          <mxGeometry x="137.6" y="19.111111111111118" width="68.8" height="19.111111111111118" as="geometry" />
        </mxCell>
        <mxCell id="ei4XDJJB2DjugkBJXN4E-61" value="•••" style="text;html=1;strokeColor=none;fillColor=none;align=center;verticalAlign=middle;whiteSpace=wrap;rounded=0;" parent="ei4XDJJB2DjugkBJXN4E-53" vertex="1">
          <mxGeometry x="206.4" y="19.111111111111118" width="34.4" height="19.111111111111118" as="geometry" />
        </mxCell>
        <mxCell id="ei4XDJJB2DjugkBJXN4E-62" value="1" style="ellipse;whiteSpace=wrap;html=1;aspect=fixed;strokeColor=default;fontStyle=1;strokeWidth=2;" parent="ei4XDJJB2DjugkBJXN4E-51" vertex="1">
          <mxGeometry width="14.156493506493508" height="14.156493506493508" as="geometry" />
        </mxCell>
        <mxCell id="ei4XDJJB2DjugkBJXN4E-63" value="Исходные координаты точек" style="text;html=1;strokeColor=none;fillColor=none;align=left;verticalAlign=middle;whiteSpace=wrap;rounded=0;fontStyle=1" parent="ei4XDJJB2DjugkBJXN4E-45" vertex="1">
          <mxGeometry x="17.2" width="292.40000000000003" height="19.111111111111107" as="geometry" />
        </mxCell>
        <mxCell id="ei4XDJJB2DjugkBJXN4E-64" value="" style="group" parent="ei4XDJJB2DjugkBJXN4E-1" vertex="1" connectable="0">
          <mxGeometry x="25.8" y="191.11111111111111" width="309.6" height="66.88888888888889" as="geometry" />
        </mxCell>
        <mxCell id="ei4XDJJB2DjugkBJXN4E-65" value="" style="group" parent="ei4XDJJB2DjugkBJXN4E-64" vertex="1" connectable="0">
          <mxGeometry y="9.555555555555554" width="309.6" height="57.33333333333333" as="geometry" />
        </mxCell>
        <mxCell id="ei4XDJJB2DjugkBJXN4E-66" value="" style="rounded=0;whiteSpace=wrap;html=1;snapToPoint=1;allowArrows=1;perimeter=rectanglePerimeter;container=0;" parent="ei4XDJJB2DjugkBJXN4E-65" vertex="1">
          <mxGeometry y="9.555555555555555" width="309.6" height="38.22222222222222" as="geometry" />
        </mxCell>
        <mxCell id="ei4XDJJB2DjugkBJXN4E-67" value="" style="rounded=0;whiteSpace=wrap;html=1;fillColor=#dae8fc;strokeColor=#6c8ebf;" parent="ei4XDJJB2DjugkBJXN4E-65" vertex="1">
          <mxGeometry y="9.555555555555555" width="309.6" height="19.11111111111111" as="geometry" />
        </mxCell>
        <mxCell id="ei4XDJJB2DjugkBJXN4E-68" value="0" style="rounded=0;whiteSpace=wrap;html=1;strokeColor=default;" parent="ei4XDJJB2DjugkBJXN4E-65" vertex="1">
          <mxGeometry y="28.666666666666664" width="34.4" height="19.11111111111111" as="geometry" />
        </mxCell>
        <mxCell id="ei4XDJJB2DjugkBJXN4E-69" value="0" style="rounded=0;whiteSpace=wrap;html=1;strokeColor=default;" parent="ei4XDJJB2DjugkBJXN4E-65" vertex="1">
          <mxGeometry x="34.4" y="28.666666666666664" width="34.4" height="19.11111111111111" as="geometry" />
        </mxCell>
        <mxCell id="ei4XDJJB2DjugkBJXN4E-70" value="-37" style="rounded=0;whiteSpace=wrap;html=1;strokeColor=default;" parent="ei4XDJJB2DjugkBJXN4E-65" vertex="1">
          <mxGeometry x="103.2" y="28.666666666666664" width="34.4" height="19.11111111111111" as="geometry" />
        </mxCell>
        <mxCell id="ei4XDJJB2DjugkBJXN4E-71" value="151" style="rounded=0;whiteSpace=wrap;html=1;strokeColor=default;" parent="ei4XDJJB2DjugkBJXN4E-65" vertex="1">
          <mxGeometry x="240.8" y="28.666666666666664" width="34.4" height="19.11111111111111" as="geometry" />
        </mxCell>
        <mxCell id="ei4XDJJB2DjugkBJXN4E-72" value="-277" style="rounded=0;whiteSpace=wrap;html=1;strokeColor=default;" parent="ei4XDJJB2DjugkBJXN4E-65" vertex="1">
          <mxGeometry x="275.2" y="28.666666666666664" width="34.4" height="19.11111111111111" as="geometry" />
        </mxCell>
        <mxCell id="ei4XDJJB2DjugkBJXN4E-73" value="" style="group" parent="ei4XDJJB2DjugkBJXN4E-65" vertex="1" connectable="0">
          <mxGeometry y="-9.555555555555555" width="309.6" height="66.8888888888889" as="geometry" />
        </mxCell>
        <mxCell id="ei4XDJJB2DjugkBJXN4E-74" value="" style="group" parent="ei4XDJJB2DjugkBJXN4E-73" vertex="1" connectable="0">
          <mxGeometry y="19.111111111111114" width="309.6" height="47.77777777777779" as="geometry" />
        </mxCell>
        <mxCell id="ei4XDJJB2DjugkBJXN4E-75" value="" style="group" parent="ei4XDJJB2DjugkBJXN4E-74" vertex="1" connectable="0">
          <mxGeometry width="309.6" height="47.77777777777779" as="geometry" />
        </mxCell>
        <mxCell id="ei4XDJJB2DjugkBJXN4E-76" value="ID: 0" style="text;html=1;strokeColor=default;fillColor=none;align=center;verticalAlign=middle;whiteSpace=wrap;rounded=0;" parent="ei4XDJJB2DjugkBJXN4E-75" vertex="1">
          <mxGeometry width="68.8" height="19.111111111111118" as="geometry" />
        </mxCell>
        <mxCell id="ei4XDJJB2DjugkBJXN4E-77" value="ID: 1" style="text;html=1;strokeColor=default;fillColor=none;align=center;verticalAlign=middle;whiteSpace=wrap;rounded=0;" parent="ei4XDJJB2DjugkBJXN4E-75" vertex="1">
          <mxGeometry x="68.8" width="68.8" height="19.111111111111118" as="geometry" />
        </mxCell>
        <mxCell id="ei4XDJJB2DjugkBJXN4E-78" value="ID: 2" style="text;html=1;strokeColor=default;fillColor=none;align=center;verticalAlign=middle;whiteSpace=wrap;rounded=0;" parent="ei4XDJJB2DjugkBJXN4E-75" vertex="1">
          <mxGeometry x="137.6" width="68.8" height="19.111111111111118" as="geometry" />
        </mxCell>
        <mxCell id="ei4XDJJB2DjugkBJXN4E-79" value="ID: 20" style="text;html=1;strokeColor=default;fillColor=none;align=center;verticalAlign=middle;whiteSpace=wrap;rounded=0;" parent="ei4XDJJB2DjugkBJXN4E-75" vertex="1">
          <mxGeometry x="240.8" width="68.8" height="19.111111111111118" as="geometry" />
        </mxCell>
        <mxCell id="ei4XDJJB2DjugkBJXN4E-80" value="•••" style="text;html=1;strokeColor=default;fillColor=none;align=center;verticalAlign=middle;whiteSpace=wrap;rounded=0;" parent="ei4XDJJB2DjugkBJXN4E-75" vertex="1">
          <mxGeometry x="206.4" width="34.4" height="19.111111111111118" as="geometry" />
        </mxCell>
        <mxCell id="ei4XDJJB2DjugkBJXN4E-81" value="-66" style="rounded=0;whiteSpace=wrap;html=1;strokeColor=default;" parent="ei4XDJJB2DjugkBJXN4E-75" vertex="1">
          <mxGeometry x="68.8" y="19.111111111111118" width="34.4" height="19.111111111111118" as="geometry" />
        </mxCell>
        <mxCell id="ei4XDJJB2DjugkBJXN4E-82" value="" style="rounded=0;whiteSpace=wrap;html=1;strokeColor=default;" parent="ei4XDJJB2DjugkBJXN4E-75" vertex="1">
          <mxGeometry x="137.6" y="19.111111111111118" width="68.8" height="19.111111111111118" as="geometry" />
        </mxCell>
        <mxCell id="ei4XDJJB2DjugkBJXN4E-83" value="•••" style="text;html=1;strokeColor=none;fillColor=none;align=center;verticalAlign=middle;whiteSpace=wrap;rounded=0;" parent="ei4XDJJB2DjugkBJXN4E-75" vertex="1">
          <mxGeometry x="206.4" y="19.111111111111118" width="34.4" height="19.111111111111118" as="geometry" />
        </mxCell>
        <mxCell id="ei4XDJJB2DjugkBJXN4E-84" value="-112" style="rounded=0;whiteSpace=wrap;html=1;strokeColor=default;" parent="ei4XDJJB2DjugkBJXN4E-75" vertex="1">
          <mxGeometry x="137.6" y="19.111111111111118" width="34.4" height="19.111111111111118" as="geometry" />
        </mxCell>
        <mxCell id="ei4XDJJB2DjugkBJXN4E-85" value="-103" style="rounded=0;whiteSpace=wrap;html=1;strokeColor=default;" parent="ei4XDJJB2DjugkBJXN4E-75" vertex="1">
          <mxGeometry x="172" y="19.111111111111118" width="34.4" height="19.111111111111118" as="geometry" />
        </mxCell>
        <mxCell id="ei4XDJJB2DjugkBJXN4E-86" value="3" style="ellipse;whiteSpace=wrap;html=1;aspect=fixed;strokeColor=default;fontStyle=1;strokeWidth=2;" parent="ei4XDJJB2DjugkBJXN4E-73" vertex="1">
          <mxGeometry width="14.156493506493508" height="14.156493506493508" as="geometry" />
        </mxCell>
        <mxCell id="ei4XDJJB2DjugkBJXN4E-87" value="Преобразование к массиву одной размерности" style="text;html=1;strokeColor=none;fillColor=none;align=left;verticalAlign=middle;whiteSpace=wrap;rounded=0;fontStyle=1" parent="ei4XDJJB2DjugkBJXN4E-64" vertex="1">
          <mxGeometry x="17.2" width="292.40000000000003" height="19.111111111111107" as="geometry" />
        </mxCell>
        <mxCell id="ei4XDJJB2DjugkBJXN4E-88" style="edgeStyle=orthogonalEdgeStyle;rounded=0;orthogonalLoop=1;jettySize=auto;html=1;exitX=0;exitY=0;exitDx=0;exitDy=0;entryX=0;entryY=0;entryDx=0;entryDy=0;strokeWidth=2;endSize=6;startSize=6;jumpSize=6;shadow=0;" parent="ei4XDJJB2DjugkBJXN4E-1" source="ei4XDJJB2DjugkBJXN4E-62" target="ei4XDJJB2DjugkBJXN4E-19" edge="1">
          <mxGeometry relative="1" as="geometry">
            <Array as="points">
              <mxPoint x="8.6" y="21.977777777777778" />
              <mxPoint x="8.6" y="107.97777777777776" />
            </Array>
          </mxGeometry>
        </mxCell>
        <mxCell id="ei4XDJJB2DjugkBJXN4E-89" style="edgeStyle=orthogonalEdgeStyle;rounded=0;orthogonalLoop=1;jettySize=auto;html=1;exitX=0;exitY=0.5;exitDx=0;exitDy=0;entryX=0;entryY=0;entryDx=0;entryDy=0;strokeWidth=2;" parent="ei4XDJJB2DjugkBJXN4E-1" source="ei4XDJJB2DjugkBJXN4E-19" target="ei4XDJJB2DjugkBJXN4E-86" edge="1">
          <mxGeometry relative="1" as="geometry">
            <Array as="points">
              <mxPoint x="8.6" y="114.66666666666666" />
              <mxPoint x="8.6" y="193.97777777777776" />
            </Array>
          </mxGeometry>
        </mxCell>
        <mxCell id="ei4XDJJB2DjugkBJXN4E-90" style="edgeStyle=orthogonalEdgeStyle;rounded=0;orthogonalLoop=1;jettySize=auto;html=1;exitX=0;exitY=0.5;exitDx=0;exitDy=0;entryX=0;entryY=0;entryDx=0;entryDy=0;strokeWidth=2;" parent="ei4XDJJB2DjugkBJXN4E-1" source="ei4XDJJB2DjugkBJXN4E-86" target="ei4XDJJB2DjugkBJXN4E-43" edge="1">
          <mxGeometry relative="1" as="geometry">
            <Array as="points">
              <mxPoint x="8.6" y="200.66666666666666" />
              <mxPoint x="8.6" y="279.97777777777776" />
            </Array>
          </mxGeometry>
        </mxCell>
        <mxCell id="ei4XDJJB2DjugkBJXN4E-91" value="" style="group;fillColor=none;horizontal=0;verticalAlign=middle;html=1;" parent="uaP6zwDsvVWyuOUaEy8a-1" vertex="1" connectable="0">
          <mxGeometry x="666.5" y="774" width="344" height="344" as="geometry" />
        </mxCell>
        <mxCell id="ei4XDJJB2DjugkBJXN4E-92" value="" style="rounded=0;whiteSpace=wrap;html=1;strokeColor=#ae4132;strokeWidth=1;fillColor=#fad9d5;dashed=1;" parent="ei4XDJJB2DjugkBJXN4E-91" vertex="1">
          <mxGeometry width="344" height="344" as="geometry" />
        </mxCell>
        <mxCell id="ei4XDJJB2DjugkBJXN4E-93" value="" style="group" parent="ei4XDJJB2DjugkBJXN4E-91" vertex="1" connectable="0">
          <mxGeometry x="25.8" y="105.1111111111111" width="309.6" height="66.88888888888889" as="geometry" />
        </mxCell>
        <mxCell id="ei4XDJJB2DjugkBJXN4E-94" value="" style="group" parent="ei4XDJJB2DjugkBJXN4E-93" vertex="1" connectable="0">
          <mxGeometry y="9.555555555555554" width="309.6" height="57.33333333333333" as="geometry" />
        </mxCell>
        <mxCell id="ei4XDJJB2DjugkBJXN4E-95" value="" style="rounded=0;whiteSpace=wrap;html=1;snapToPoint=1;allowArrows=1;perimeter=rectanglePerimeter;container=0;" parent="ei4XDJJB2DjugkBJXN4E-94" vertex="1">
          <mxGeometry y="9.555555555555555" width="309.6" height="38.22222222222222" as="geometry" />
        </mxCell>
        <mxCell id="ei4XDJJB2DjugkBJXN4E-96" value="" style="rounded=0;whiteSpace=wrap;html=1;fillColor=#dae8fc;strokeColor=#6c8ebf;" parent="ei4XDJJB2DjugkBJXN4E-94" vertex="1">
          <mxGeometry y="9.555555555555555" width="309.6" height="19.11111111111111" as="geometry" />
        </mxCell>
        <mxCell id="ei4XDJJB2DjugkBJXN4E-97" value="" style="group" parent="ei4XDJJB2DjugkBJXN4E-94" vertex="1" connectable="0">
          <mxGeometry y="9.555555555555555" width="309.6" height="47.777777777777786" as="geometry" />
        </mxCell>
        <mxCell id="ei4XDJJB2DjugkBJXN4E-98" value="" style="group" parent="ei4XDJJB2DjugkBJXN4E-97" vertex="1" connectable="0">
          <mxGeometry width="309.6" height="47.777777777777786" as="geometry" />
        </mxCell>
        <mxCell id="ei4XDJJB2DjugkBJXN4E-99" value="ID: 0" style="text;html=1;strokeColor=default;fillColor=none;align=center;verticalAlign=middle;whiteSpace=wrap;rounded=0;" parent="ei4XDJJB2DjugkBJXN4E-98" vertex="1">
          <mxGeometry width="68.8" height="19.111111111111114" as="geometry" />
        </mxCell>
        <mxCell id="ei4XDJJB2DjugkBJXN4E-100" value="ID: 1" style="text;html=1;strokeColor=default;fillColor=none;align=center;verticalAlign=middle;whiteSpace=wrap;rounded=0;" parent="ei4XDJJB2DjugkBJXN4E-98" vertex="1">
          <mxGeometry x="68.8" width="68.8" height="19.111111111111114" as="geometry" />
        </mxCell>
        <mxCell id="ei4XDJJB2DjugkBJXN4E-101" value="ID: 2" style="text;html=1;strokeColor=default;fillColor=none;align=center;verticalAlign=middle;whiteSpace=wrap;rounded=0;" parent="ei4XDJJB2DjugkBJXN4E-98" vertex="1">
          <mxGeometry x="137.6" width="68.8" height="19.111111111111114" as="geometry" />
        </mxCell>
        <mxCell id="ei4XDJJB2DjugkBJXN4E-102" value="ID: 20" style="text;html=1;strokeColor=default;fillColor=none;align=center;verticalAlign=middle;whiteSpace=wrap;rounded=0;" parent="ei4XDJJB2DjugkBJXN4E-98" vertex="1">
          <mxGeometry x="240.8" width="68.8" height="19.111111111111114" as="geometry" />
        </mxCell>
        <mxCell id="ei4XDJJB2DjugkBJXN4E-103" value="•••" style="text;html=1;strokeColor=default;fillColor=none;align=center;verticalAlign=middle;whiteSpace=wrap;rounded=0;" parent="ei4XDJJB2DjugkBJXN4E-98" vertex="1">
          <mxGeometry x="206.4" width="34.4" height="19.111111111111114" as="geometry" />
        </mxCell>
        <mxCell id="ei4XDJJB2DjugkBJXN4E-104" value="[-66, -37]" style="rounded=0;whiteSpace=wrap;html=1;strokeColor=default;" parent="ei4XDJJB2DjugkBJXN4E-98" vertex="1">
          <mxGeometry x="68.8" y="19.111111111111114" width="68.8" height="19.111111111111114" as="geometry" />
        </mxCell>
        <mxCell id="ei4XDJJB2DjugkBJXN4E-105" value="[-112, -103]" style="rounded=0;whiteSpace=wrap;html=1;strokeColor=default;" parent="ei4XDJJB2DjugkBJXN4E-98" vertex="1">
          <mxGeometry x="137.6" y="19.111111111111114" width="68.8" height="19.111111111111114" as="geometry" />
        </mxCell>
        <mxCell id="ei4XDJJB2DjugkBJXN4E-106" value="•••" style="text;html=1;strokeColor=none;fillColor=none;align=center;verticalAlign=middle;whiteSpace=wrap;rounded=0;" parent="ei4XDJJB2DjugkBJXN4E-98" vertex="1">
          <mxGeometry x="206.4" y="19.111111111111114" width="34.4" height="19.111111111111114" as="geometry" />
        </mxCell>
        <mxCell id="ei4XDJJB2DjugkBJXN4E-107" value="[0, 0]" style="rounded=0;whiteSpace=wrap;html=1;strokeColor=default;" parent="ei4XDJJB2DjugkBJXN4E-94" vertex="1">
          <mxGeometry y="28.666666666666664" width="68.8" height="19.11111111111111" as="geometry" />
        </mxCell>
        <mxCell id="ei4XDJJB2DjugkBJXN4E-108" value="[151, -277]" style="text;html=1;strokeColor=default;fillColor=none;align=center;verticalAlign=middle;whiteSpace=wrap;rounded=0;" parent="ei4XDJJB2DjugkBJXN4E-94" vertex="1">
          <mxGeometry x="240.8" y="28.666666666666664" width="68.8" height="19.11111111111111" as="geometry" />
        </mxCell>
        <mxCell id="ei4XDJJB2DjugkBJXN4E-109" value="2&lt;span style=&quot;color: rgba(0, 0, 0, 0); font-family: monospace; font-size: 0px; text-align: start;&quot;&gt;%3CmxGraphModel%3E%3Croot%3E%3CmxCell%20id%3D%220%22%2F%3E%3CmxCell%20id%3D%221%22%20parent%3D%220%22%2F%3E%3CmxCell%20id%3D%222%22%20value%3D%221%22%20style%3D%22ellipse%3BwhiteSpace%3Dwrap%3Bhtml%3D1%3Baspect%3Dfixed%3BstrokeColor%3Ddefault%3B%22%20vertex%3D%221%22%20parent%3D%221%22%3E%3CmxGeometry%20x%3D%2260%22%20y%3D%22100%22%20width%3D%2220%22%20height%3D%2220%22%20as%3D%22geometry%22%2F%3E%3C%2FmxCell%3E%3C%2Froot%3E%3C%2FmxGraphModel%3E&lt;/span&gt;" style="ellipse;whiteSpace=wrap;html=1;aspect=fixed;strokeColor=default;fontStyle=1;strokeWidth=2;" parent="ei4XDJJB2DjugkBJXN4E-93" vertex="1">
          <mxGeometry width="14.156493506493508" height="14.156493506493508" as="geometry" />
        </mxCell>
        <mxCell id="ei4XDJJB2DjugkBJXN4E-110" value="Относительные ID: 0 координаты" style="text;html=1;strokeColor=none;fillColor=none;align=left;verticalAlign=middle;whiteSpace=wrap;rounded=0;fontStyle=1" parent="ei4XDJJB2DjugkBJXN4E-93" vertex="1">
          <mxGeometry x="17.2" width="292.40000000000003" height="19.111111111111107" as="geometry" />
        </mxCell>
        <mxCell id="ei4XDJJB2DjugkBJXN4E-111" value="" style="group" parent="ei4XDJJB2DjugkBJXN4E-91" vertex="1" connectable="0">
          <mxGeometry x="25.8" y="277.11111111111114" width="309.6" height="66.88888888888889" as="geometry" />
        </mxCell>
        <mxCell id="ei4XDJJB2DjugkBJXN4E-112" value="" style="group" parent="ei4XDJJB2DjugkBJXN4E-111" vertex="1" connectable="0">
          <mxGeometry y="9.555555555555554" width="309.6" height="57.33333333333333" as="geometry" />
        </mxCell>
        <mxCell id="ei4XDJJB2DjugkBJXN4E-113" value="" style="rounded=0;whiteSpace=wrap;html=1;snapToPoint=1;allowArrows=1;perimeter=rectanglePerimeter;container=0;" parent="ei4XDJJB2DjugkBJXN4E-112" vertex="1">
          <mxGeometry y="9.555555555555555" width="309.6" height="38.22222222222222" as="geometry" />
        </mxCell>
        <mxCell id="ei4XDJJB2DjugkBJXN4E-114" value="" style="rounded=0;whiteSpace=wrap;html=1;fillColor=#dae8fc;strokeColor=#6c8ebf;" parent="ei4XDJJB2DjugkBJXN4E-112" vertex="1">
          <mxGeometry y="9.555555555555555" width="309.6" height="19.11111111111111" as="geometry" />
        </mxCell>
        <mxCell id="ei4XDJJB2DjugkBJXN4E-115" value="" style="group" parent="ei4XDJJB2DjugkBJXN4E-112" vertex="1" connectable="0">
          <mxGeometry y="9.555555555555555" width="309.6" height="47.777777777777786" as="geometry" />
        </mxCell>
        <mxCell id="ei4XDJJB2DjugkBJXN4E-116" value="" style="group" parent="ei4XDJJB2DjugkBJXN4E-115" vertex="1" connectable="0">
          <mxGeometry width="309.6" height="47.777777777777786" as="geometry" />
        </mxCell>
        <mxCell id="ei4XDJJB2DjugkBJXN4E-117" value="ID: 0" style="text;html=1;strokeColor=default;fillColor=none;align=center;verticalAlign=middle;whiteSpace=wrap;rounded=0;" parent="ei4XDJJB2DjugkBJXN4E-116" vertex="1">
          <mxGeometry width="68.8" height="19.111111111111114" as="geometry" />
        </mxCell>
        <mxCell id="ei4XDJJB2DjugkBJXN4E-118" value="ID: 1" style="text;html=1;strokeColor=default;fillColor=none;align=center;verticalAlign=middle;whiteSpace=wrap;rounded=0;" parent="ei4XDJJB2DjugkBJXN4E-116" vertex="1">
          <mxGeometry x="68.8" width="68.8" height="19.111111111111114" as="geometry" />
        </mxCell>
        <mxCell id="ei4XDJJB2DjugkBJXN4E-119" value="ID: 2" style="text;html=1;strokeColor=default;fillColor=none;align=center;verticalAlign=middle;whiteSpace=wrap;rounded=0;" parent="ei4XDJJB2DjugkBJXN4E-116" vertex="1">
          <mxGeometry x="137.6" width="68.8" height="19.111111111111114" as="geometry" />
        </mxCell>
        <mxCell id="ei4XDJJB2DjugkBJXN4E-120" value="ID: 20" style="text;html=1;strokeColor=default;fillColor=none;align=center;verticalAlign=middle;whiteSpace=wrap;rounded=0;" parent="ei4XDJJB2DjugkBJXN4E-116" vertex="1">
          <mxGeometry x="240.8" width="68.8" height="19.111111111111114" as="geometry" />
        </mxCell>
        <mxCell id="ei4XDJJB2DjugkBJXN4E-121" value="•••" style="text;html=1;strokeColor=default;fillColor=none;align=center;verticalAlign=middle;whiteSpace=wrap;rounded=0;" parent="ei4XDJJB2DjugkBJXN4E-116" vertex="1">
          <mxGeometry x="206.4" width="34.4" height="19.111111111111114" as="geometry" />
        </mxCell>
        <mxCell id="ei4XDJJB2DjugkBJXN4E-122" value="" style="edgeStyle=orthogonalEdgeStyle;rounded=0;orthogonalLoop=1;jettySize=auto;html=1;" parent="ei4XDJJB2DjugkBJXN4E-116" source="ei4XDJJB2DjugkBJXN4E-123" target="ei4XDJJB2DjugkBJXN4E-124" edge="1">
          <mxGeometry relative="1" as="geometry" />
        </mxCell>
        <mxCell id="ei4XDJJB2DjugkBJXN4E-123" value="-0.24" style="rounded=0;whiteSpace=wrap;html=1;strokeColor=default;" parent="ei4XDJJB2DjugkBJXN4E-116" vertex="1">
          <mxGeometry x="68.8" y="19.111111111111114" width="34.4" height="19.111111111111114" as="geometry" />
        </mxCell>
        <mxCell id="ei4XDJJB2DjugkBJXN4E-124" value="" style="rounded=0;whiteSpace=wrap;html=1;strokeColor=default;" parent="ei4XDJJB2DjugkBJXN4E-116" vertex="1">
          <mxGeometry x="137.6" y="19.111111111111114" width="68.8" height="19.111111111111114" as="geometry" />
        </mxCell>
        <mxCell id="ei4XDJJB2DjugkBJXN4E-125" value="•••" style="text;html=1;strokeColor=none;fillColor=none;align=center;verticalAlign=middle;whiteSpace=wrap;rounded=0;" parent="ei4XDJJB2DjugkBJXN4E-116" vertex="1">
          <mxGeometry x="206.4" y="19.111111111111114" width="34.4" height="19.111111111111114" as="geometry" />
        </mxCell>
        <mxCell id="ei4XDJJB2DjugkBJXN4E-126" value="-0.4" style="rounded=0;whiteSpace=wrap;html=1;strokeColor=default;" parent="ei4XDJJB2DjugkBJXN4E-116" vertex="1">
          <mxGeometry x="137.6" y="19.111111111111114" width="34.4" height="19.111111111111114" as="geometry" />
        </mxCell>
        <mxCell id="ei4XDJJB2DjugkBJXN4E-127" value="-0.37" style="rounded=0;whiteSpace=wrap;html=1;strokeColor=default;" parent="ei4XDJJB2DjugkBJXN4E-116" vertex="1">
          <mxGeometry x="172" y="19.111111111111114" width="34.4" height="19.111111111111114" as="geometry" />
        </mxCell>
        <mxCell id="ei4XDJJB2DjugkBJXN4E-128" value="0" style="rounded=0;whiteSpace=wrap;html=1;strokeColor=default;" parent="ei4XDJJB2DjugkBJXN4E-112" vertex="1">
          <mxGeometry y="28.666666666666664" width="34.4" height="19.11111111111111" as="geometry" />
        </mxCell>
        <mxCell id="ei4XDJJB2DjugkBJXN4E-129" value="0" style="rounded=0;whiteSpace=wrap;html=1;strokeColor=default;" parent="ei4XDJJB2DjugkBJXN4E-112" vertex="1">
          <mxGeometry x="34.4" y="28.666666666666664" width="34.4" height="19.11111111111111" as="geometry" />
        </mxCell>
        <mxCell id="ei4XDJJB2DjugkBJXN4E-130" value="-0.13" style="rounded=0;whiteSpace=wrap;html=1;strokeColor=default;" parent="ei4XDJJB2DjugkBJXN4E-112" vertex="1">
          <mxGeometry x="103.2" y="28.666666666666664" width="34.4" height="19.11111111111111" as="geometry" />
        </mxCell>
        <mxCell id="ei4XDJJB2DjugkBJXN4E-131" value="0.545" style="rounded=0;whiteSpace=wrap;html=1;strokeColor=default;" parent="ei4XDJJB2DjugkBJXN4E-112" vertex="1">
          <mxGeometry x="240.8" y="28.666666666666664" width="34.4" height="19.11111111111111" as="geometry" />
        </mxCell>
        <mxCell id="ei4XDJJB2DjugkBJXN4E-132" value="-1" style="rounded=0;whiteSpace=wrap;html=1;strokeColor=default;" parent="ei4XDJJB2DjugkBJXN4E-112" vertex="1">
          <mxGeometry x="275.2" y="28.666666666666664" width="34.4" height="19.11111111111111" as="geometry" />
        </mxCell>
        <mxCell id="ei4XDJJB2DjugkBJXN4E-133" value="4" style="ellipse;whiteSpace=wrap;html=1;aspect=fixed;strokeColor=default;fontStyle=1;strokeWidth=2;" parent="ei4XDJJB2DjugkBJXN4E-111" vertex="1">
          <mxGeometry width="14.156493506493508" height="14.156493506493508" as="geometry" />
        </mxCell>
        <mxCell id="ei4XDJJB2DjugkBJXN4E-134" value="Нормализованные координаты" style="text;html=1;strokeColor=none;fillColor=none;align=left;verticalAlign=middle;whiteSpace=wrap;rounded=0;fontStyle=1" parent="ei4XDJJB2DjugkBJXN4E-111" vertex="1">
          <mxGeometry x="17.2" width="292.40000000000003" height="19.111111111111107" as="geometry" />
        </mxCell>
        <mxCell id="ei4XDJJB2DjugkBJXN4E-135" value="" style="group" parent="ei4XDJJB2DjugkBJXN4E-91" vertex="1" connectable="0">
          <mxGeometry x="25.8" y="19.111111111111107" width="309.6" height="66.88888888888889" as="geometry" />
        </mxCell>
        <mxCell id="ei4XDJJB2DjugkBJXN4E-136" value="" style="group" parent="ei4XDJJB2DjugkBJXN4E-135" vertex="1" connectable="0">
          <mxGeometry y="9.555555555555554" width="309.6" height="57.33333333333333" as="geometry" />
        </mxCell>
        <mxCell id="ei4XDJJB2DjugkBJXN4E-137" value="" style="rounded=0;whiteSpace=wrap;html=1;snapToPoint=1;allowArrows=1;perimeter=rectanglePerimeter;container=0;" parent="ei4XDJJB2DjugkBJXN4E-136" vertex="1">
          <mxGeometry y="9.555555555555555" width="309.6" height="38.22222222222222" as="geometry" />
        </mxCell>
        <mxCell id="ei4XDJJB2DjugkBJXN4E-138" value="" style="rounded=0;whiteSpace=wrap;html=1;fillColor=#dae8fc;strokeColor=#6c8ebf;" parent="ei4XDJJB2DjugkBJXN4E-136" vertex="1">
          <mxGeometry y="9.555555555555555" width="309.6" height="19.11111111111111" as="geometry" />
        </mxCell>
        <mxCell id="ei4XDJJB2DjugkBJXN4E-139" value="[551, 465]" style="rounded=0;whiteSpace=wrap;html=1;strokeColor=default;" parent="ei4XDJJB2DjugkBJXN4E-136" vertex="1">
          <mxGeometry y="28.666666666666664" width="68.8" height="19.11111111111111" as="geometry" />
        </mxCell>
        <mxCell id="ei4XDJJB2DjugkBJXN4E-140" value="[702, 188]" style="text;html=1;strokeColor=default;fillColor=none;align=center;verticalAlign=middle;whiteSpace=wrap;rounded=0;" parent="ei4XDJJB2DjugkBJXN4E-136" vertex="1">
          <mxGeometry x="240.8" y="28.666666666666664" width="68.8" height="19.11111111111111" as="geometry" />
        </mxCell>
        <mxCell id="ei4XDJJB2DjugkBJXN4E-141" value="" style="group" parent="ei4XDJJB2DjugkBJXN4E-136" vertex="1" connectable="0">
          <mxGeometry y="-9.555555555555555" width="309.6" height="66.8888888888889" as="geometry" />
        </mxCell>
        <mxCell id="ei4XDJJB2DjugkBJXN4E-142" value="" style="group" parent="ei4XDJJB2DjugkBJXN4E-141" vertex="1" connectable="0">
          <mxGeometry y="19.111111111111114" width="309.6" height="47.77777777777779" as="geometry" />
        </mxCell>
        <mxCell id="ei4XDJJB2DjugkBJXN4E-143" value="" style="group" parent="ei4XDJJB2DjugkBJXN4E-142" vertex="1" connectable="0">
          <mxGeometry width="309.6" height="47.77777777777779" as="geometry" />
        </mxCell>
        <mxCell id="ei4XDJJB2DjugkBJXN4E-144" value="ID: 0" style="text;html=1;strokeColor=default;fillColor=none;align=center;verticalAlign=middle;whiteSpace=wrap;rounded=0;" parent="ei4XDJJB2DjugkBJXN4E-143" vertex="1">
          <mxGeometry width="68.8" height="19.111111111111118" as="geometry" />
        </mxCell>
        <mxCell id="ei4XDJJB2DjugkBJXN4E-145" value="ID: 1" style="text;html=1;strokeColor=default;fillColor=none;align=center;verticalAlign=middle;whiteSpace=wrap;rounded=0;" parent="ei4XDJJB2DjugkBJXN4E-143" vertex="1">
          <mxGeometry x="68.8" width="68.8" height="19.111111111111118" as="geometry" />
        </mxCell>
        <mxCell id="ei4XDJJB2DjugkBJXN4E-146" value="ID: 2" style="text;html=1;strokeColor=default;fillColor=none;align=center;verticalAlign=middle;whiteSpace=wrap;rounded=0;" parent="ei4XDJJB2DjugkBJXN4E-143" vertex="1">
          <mxGeometry x="137.6" width="68.8" height="19.111111111111118" as="geometry" />
        </mxCell>
        <mxCell id="ei4XDJJB2DjugkBJXN4E-147" value="ID: 20" style="text;html=1;strokeColor=default;fillColor=none;align=center;verticalAlign=middle;whiteSpace=wrap;rounded=0;" parent="ei4XDJJB2DjugkBJXN4E-143" vertex="1">
          <mxGeometry x="240.8" width="68.8" height="19.111111111111118" as="geometry" />
        </mxCell>
        <mxCell id="ei4XDJJB2DjugkBJXN4E-148" value="•••" style="text;html=1;strokeColor=default;fillColor=none;align=center;verticalAlign=middle;whiteSpace=wrap;rounded=0;" parent="ei4XDJJB2DjugkBJXN4E-143" vertex="1">
          <mxGeometry x="206.4" width="34.4" height="19.111111111111118" as="geometry" />
        </mxCell>
        <mxCell id="ei4XDJJB2DjugkBJXN4E-149" value="[485, 428]" style="rounded=0;whiteSpace=wrap;html=1;strokeColor=default;" parent="ei4XDJJB2DjugkBJXN4E-143" vertex="1">
          <mxGeometry x="68.8" y="19.111111111111118" width="68.8" height="19.111111111111118" as="geometry" />
        </mxCell>
        <mxCell id="ei4XDJJB2DjugkBJXN4E-150" value="[439, 362]" style="rounded=0;whiteSpace=wrap;html=1;strokeColor=default;" parent="ei4XDJJB2DjugkBJXN4E-143" vertex="1">
          <mxGeometry x="137.6" y="19.111111111111118" width="68.8" height="19.111111111111118" as="geometry" />
        </mxCell>
        <mxCell id="ei4XDJJB2DjugkBJXN4E-151" value="•••" style="text;html=1;strokeColor=none;fillColor=none;align=center;verticalAlign=middle;whiteSpace=wrap;rounded=0;" parent="ei4XDJJB2DjugkBJXN4E-143" vertex="1">
          <mxGeometry x="206.4" y="19.111111111111118" width="34.4" height="19.111111111111118" as="geometry" />
        </mxCell>
        <mxCell id="ei4XDJJB2DjugkBJXN4E-152" value="1" style="ellipse;whiteSpace=wrap;html=1;aspect=fixed;strokeColor=default;fontStyle=1;strokeWidth=2;" parent="ei4XDJJB2DjugkBJXN4E-141" vertex="1">
          <mxGeometry width="14.156493506493508" height="14.156493506493508" as="geometry" />
        </mxCell>
        <mxCell id="ei4XDJJB2DjugkBJXN4E-153" value="Исходные координаты точек" style="text;html=1;strokeColor=none;fillColor=none;align=left;verticalAlign=middle;whiteSpace=wrap;rounded=0;fontStyle=1" parent="ei4XDJJB2DjugkBJXN4E-135" vertex="1">
          <mxGeometry x="17.2" width="292.40000000000003" height="19.111111111111107" as="geometry" />
        </mxCell>
        <mxCell id="ei4XDJJB2DjugkBJXN4E-154" value="" style="group" parent="ei4XDJJB2DjugkBJXN4E-91" vertex="1" connectable="0">
          <mxGeometry x="25.8" y="191.11111111111111" width="309.6" height="66.88888888888889" as="geometry" />
        </mxCell>
        <mxCell id="ei4XDJJB2DjugkBJXN4E-155" value="" style="group" parent="ei4XDJJB2DjugkBJXN4E-154" vertex="1" connectable="0">
          <mxGeometry y="9.555555555555554" width="309.6" height="57.33333333333333" as="geometry" />
        </mxCell>
        <mxCell id="ei4XDJJB2DjugkBJXN4E-156" value="" style="rounded=0;whiteSpace=wrap;html=1;snapToPoint=1;allowArrows=1;perimeter=rectanglePerimeter;container=0;" parent="ei4XDJJB2DjugkBJXN4E-155" vertex="1">
          <mxGeometry y="9.555555555555555" width="309.6" height="38.22222222222222" as="geometry" />
        </mxCell>
        <mxCell id="ei4XDJJB2DjugkBJXN4E-157" value="" style="rounded=0;whiteSpace=wrap;html=1;fillColor=#dae8fc;strokeColor=#6c8ebf;" parent="ei4XDJJB2DjugkBJXN4E-155" vertex="1">
          <mxGeometry y="9.555555555555555" width="309.6" height="19.11111111111111" as="geometry" />
        </mxCell>
        <mxCell id="ei4XDJJB2DjugkBJXN4E-158" value="0" style="rounded=0;whiteSpace=wrap;html=1;strokeColor=default;" parent="ei4XDJJB2DjugkBJXN4E-155" vertex="1">
          <mxGeometry y="28.666666666666664" width="34.4" height="19.11111111111111" as="geometry" />
        </mxCell>
        <mxCell id="ei4XDJJB2DjugkBJXN4E-159" value="0" style="rounded=0;whiteSpace=wrap;html=1;strokeColor=default;" parent="ei4XDJJB2DjugkBJXN4E-155" vertex="1">
          <mxGeometry x="34.4" y="28.666666666666664" width="34.4" height="19.11111111111111" as="geometry" />
        </mxCell>
        <mxCell id="ei4XDJJB2DjugkBJXN4E-160" value="-37" style="rounded=0;whiteSpace=wrap;html=1;strokeColor=default;" parent="ei4XDJJB2DjugkBJXN4E-155" vertex="1">
          <mxGeometry x="103.2" y="28.666666666666664" width="34.4" height="19.11111111111111" as="geometry" />
        </mxCell>
        <mxCell id="ei4XDJJB2DjugkBJXN4E-161" value="151" style="rounded=0;whiteSpace=wrap;html=1;strokeColor=default;" parent="ei4XDJJB2DjugkBJXN4E-155" vertex="1">
          <mxGeometry x="240.8" y="28.666666666666664" width="34.4" height="19.11111111111111" as="geometry" />
        </mxCell>
        <mxCell id="ei4XDJJB2DjugkBJXN4E-162" value="-277" style="rounded=0;whiteSpace=wrap;html=1;strokeColor=default;" parent="ei4XDJJB2DjugkBJXN4E-155" vertex="1">
          <mxGeometry x="275.2" y="28.666666666666664" width="34.4" height="19.11111111111111" as="geometry" />
        </mxCell>
        <mxCell id="ei4XDJJB2DjugkBJXN4E-163" value="" style="group" parent="ei4XDJJB2DjugkBJXN4E-155" vertex="1" connectable="0">
          <mxGeometry y="-9.555555555555555" width="309.6" height="66.8888888888889" as="geometry" />
        </mxCell>
        <mxCell id="ei4XDJJB2DjugkBJXN4E-164" value="" style="group" parent="ei4XDJJB2DjugkBJXN4E-163" vertex="1" connectable="0">
          <mxGeometry y="19.111111111111114" width="309.6" height="47.77777777777779" as="geometry" />
        </mxCell>
        <mxCell id="ei4XDJJB2DjugkBJXN4E-165" value="" style="group" parent="ei4XDJJB2DjugkBJXN4E-164" vertex="1" connectable="0">
          <mxGeometry width="309.6" height="47.77777777777779" as="geometry" />
        </mxCell>
        <mxCell id="ei4XDJJB2DjugkBJXN4E-166" value="ID: 0" style="text;html=1;strokeColor=default;fillColor=none;align=center;verticalAlign=middle;whiteSpace=wrap;rounded=0;" parent="ei4XDJJB2DjugkBJXN4E-165" vertex="1">
          <mxGeometry width="68.8" height="19.111111111111118" as="geometry" />
        </mxCell>
        <mxCell id="ei4XDJJB2DjugkBJXN4E-167" value="ID: 1" style="text;html=1;strokeColor=default;fillColor=none;align=center;verticalAlign=middle;whiteSpace=wrap;rounded=0;" parent="ei4XDJJB2DjugkBJXN4E-165" vertex="1">
          <mxGeometry x="68.8" width="68.8" height="19.111111111111118" as="geometry" />
        </mxCell>
        <mxCell id="ei4XDJJB2DjugkBJXN4E-168" value="ID: 2" style="text;html=1;strokeColor=default;fillColor=none;align=center;verticalAlign=middle;whiteSpace=wrap;rounded=0;" parent="ei4XDJJB2DjugkBJXN4E-165" vertex="1">
          <mxGeometry x="137.6" width="68.8" height="19.111111111111118" as="geometry" />
        </mxCell>
        <mxCell id="ei4XDJJB2DjugkBJXN4E-169" value="ID: 20" style="text;html=1;strokeColor=default;fillColor=none;align=center;verticalAlign=middle;whiteSpace=wrap;rounded=0;" parent="ei4XDJJB2DjugkBJXN4E-165" vertex="1">
          <mxGeometry x="240.8" width="68.8" height="19.111111111111118" as="geometry" />
        </mxCell>
        <mxCell id="ei4XDJJB2DjugkBJXN4E-170" value="•••" style="text;html=1;strokeColor=default;fillColor=none;align=center;verticalAlign=middle;whiteSpace=wrap;rounded=0;" parent="ei4XDJJB2DjugkBJXN4E-165" vertex="1">
          <mxGeometry x="206.4" width="34.4" height="19.111111111111118" as="geometry" />
        </mxCell>
        <mxCell id="ei4XDJJB2DjugkBJXN4E-171" value="-66" style="rounded=0;whiteSpace=wrap;html=1;strokeColor=default;" parent="ei4XDJJB2DjugkBJXN4E-165" vertex="1">
          <mxGeometry x="68.8" y="19.111111111111118" width="34.4" height="19.111111111111118" as="geometry" />
        </mxCell>
        <mxCell id="ei4XDJJB2DjugkBJXN4E-172" value="" style="rounded=0;whiteSpace=wrap;html=1;strokeColor=default;" parent="ei4XDJJB2DjugkBJXN4E-165" vertex="1">
          <mxGeometry x="137.6" y="19.111111111111118" width="68.8" height="19.111111111111118" as="geometry" />
        </mxCell>
        <mxCell id="ei4XDJJB2DjugkBJXN4E-173" value="•••" style="text;html=1;strokeColor=none;fillColor=none;align=center;verticalAlign=middle;whiteSpace=wrap;rounded=0;" parent="ei4XDJJB2DjugkBJXN4E-165" vertex="1">
          <mxGeometry x="206.4" y="19.111111111111118" width="34.4" height="19.111111111111118" as="geometry" />
        </mxCell>
        <mxCell id="ei4XDJJB2DjugkBJXN4E-174" value="-112" style="rounded=0;whiteSpace=wrap;html=1;strokeColor=default;" parent="ei4XDJJB2DjugkBJXN4E-165" vertex="1">
          <mxGeometry x="137.6" y="19.111111111111118" width="34.4" height="19.111111111111118" as="geometry" />
        </mxCell>
        <mxCell id="ei4XDJJB2DjugkBJXN4E-175" value="-103" style="rounded=0;whiteSpace=wrap;html=1;strokeColor=default;" parent="ei4XDJJB2DjugkBJXN4E-165" vertex="1">
          <mxGeometry x="172" y="19.111111111111118" width="34.4" height="19.111111111111118" as="geometry" />
        </mxCell>
        <mxCell id="ei4XDJJB2DjugkBJXN4E-176" value="3" style="ellipse;whiteSpace=wrap;html=1;aspect=fixed;strokeColor=default;fontStyle=1;strokeWidth=2;" parent="ei4XDJJB2DjugkBJXN4E-163" vertex="1">
          <mxGeometry width="14.156493506493508" height="14.156493506493508" as="geometry" />
        </mxCell>
        <mxCell id="ei4XDJJB2DjugkBJXN4E-177" value="Преобразование к массиву одной размерности" style="text;html=1;strokeColor=none;fillColor=none;align=left;verticalAlign=middle;whiteSpace=wrap;rounded=0;fontStyle=1" parent="ei4XDJJB2DjugkBJXN4E-154" vertex="1">
          <mxGeometry x="17.2" width="292.40000000000003" height="19.111111111111107" as="geometry" />
        </mxCell>
        <mxCell id="ei4XDJJB2DjugkBJXN4E-178" style="edgeStyle=orthogonalEdgeStyle;rounded=0;orthogonalLoop=1;jettySize=auto;html=1;exitX=0;exitY=0;exitDx=0;exitDy=0;entryX=0;entryY=0;entryDx=0;entryDy=0;strokeWidth=2;endSize=6;startSize=6;jumpSize=6;shadow=0;" parent="ei4XDJJB2DjugkBJXN4E-91" source="ei4XDJJB2DjugkBJXN4E-152" target="ei4XDJJB2DjugkBJXN4E-109" edge="1">
          <mxGeometry relative="1" as="geometry">
            <Array as="points">
              <mxPoint x="8.6" y="21.977777777777778" />
              <mxPoint x="8.6" y="107.97777777777776" />
            </Array>
          </mxGeometry>
        </mxCell>
        <mxCell id="ei4XDJJB2DjugkBJXN4E-179" style="edgeStyle=orthogonalEdgeStyle;rounded=0;orthogonalLoop=1;jettySize=auto;html=1;exitX=0;exitY=0.5;exitDx=0;exitDy=0;entryX=0;entryY=0;entryDx=0;entryDy=0;strokeWidth=2;" parent="ei4XDJJB2DjugkBJXN4E-91" source="ei4XDJJB2DjugkBJXN4E-109" target="ei4XDJJB2DjugkBJXN4E-176" edge="1">
          <mxGeometry relative="1" as="geometry">
            <Array as="points">
              <mxPoint x="8.6" y="114.66666666666666" />
              <mxPoint x="8.6" y="193.97777777777776" />
            </Array>
          </mxGeometry>
        </mxCell>
        <mxCell id="ei4XDJJB2DjugkBJXN4E-180" style="edgeStyle=orthogonalEdgeStyle;rounded=0;orthogonalLoop=1;jettySize=auto;html=1;exitX=0;exitY=0.5;exitDx=0;exitDy=0;entryX=0;entryY=0;entryDx=0;entryDy=0;strokeWidth=2;" parent="ei4XDJJB2DjugkBJXN4E-91" source="ei4XDJJB2DjugkBJXN4E-176" target="ei4XDJJB2DjugkBJXN4E-133" edge="1">
          <mxGeometry relative="1" as="geometry">
            <Array as="points">
              <mxPoint x="8.6" y="200.66666666666666" />
              <mxPoint x="8.6" y="279.97777777777776" />
            </Array>
          </mxGeometry>
        </mxCell>
        <mxCell id="ei4XDJJB2DjugkBJXN4E-181" value="" style="group;fillColor=none;horizontal=0;verticalAlign=middle;html=1;" parent="uaP6zwDsvVWyuOUaEy8a-1" vertex="1" connectable="0">
          <mxGeometry x="1182.5" y="774" width="344" height="344" as="geometry" />
        </mxCell>
        <mxCell id="ei4XDJJB2DjugkBJXN4E-182" value="" style="rounded=0;whiteSpace=wrap;html=1;strokeColor=#ae4132;strokeWidth=1;fillColor=#fad9d5;dashed=1;" parent="ei4XDJJB2DjugkBJXN4E-181" vertex="1">
          <mxGeometry width="344" height="344" as="geometry" />
        </mxCell>
        <mxCell id="ei4XDJJB2DjugkBJXN4E-183" value="" style="group" parent="ei4XDJJB2DjugkBJXN4E-181" vertex="1" connectable="0">
          <mxGeometry x="25.8" y="105.1111111111111" width="309.6" height="66.88888888888889" as="geometry" />
        </mxCell>
        <mxCell id="ei4XDJJB2DjugkBJXN4E-184" value="" style="group" parent="ei4XDJJB2DjugkBJXN4E-183" vertex="1" connectable="0">
          <mxGeometry y="9.555555555555554" width="309.6" height="57.33333333333333" as="geometry" />
        </mxCell>
        <mxCell id="ei4XDJJB2DjugkBJXN4E-185" value="" style="rounded=0;whiteSpace=wrap;html=1;snapToPoint=1;allowArrows=1;perimeter=rectanglePerimeter;container=0;" parent="ei4XDJJB2DjugkBJXN4E-184" vertex="1">
          <mxGeometry y="9.555555555555555" width="309.6" height="38.22222222222222" as="geometry" />
        </mxCell>
        <mxCell id="ei4XDJJB2DjugkBJXN4E-186" value="" style="rounded=0;whiteSpace=wrap;html=1;fillColor=#dae8fc;strokeColor=#6c8ebf;" parent="ei4XDJJB2DjugkBJXN4E-184" vertex="1">
          <mxGeometry y="9.555555555555555" width="309.6" height="19.11111111111111" as="geometry" />
        </mxCell>
        <mxCell id="ei4XDJJB2DjugkBJXN4E-187" value="" style="group" parent="ei4XDJJB2DjugkBJXN4E-184" vertex="1" connectable="0">
          <mxGeometry y="9.555555555555555" width="309.6" height="47.777777777777786" as="geometry" />
        </mxCell>
        <mxCell id="ei4XDJJB2DjugkBJXN4E-188" value="" style="group" parent="ei4XDJJB2DjugkBJXN4E-187" vertex="1" connectable="0">
          <mxGeometry width="309.6" height="47.777777777777786" as="geometry" />
        </mxCell>
        <mxCell id="ei4XDJJB2DjugkBJXN4E-189" value="ID: 0" style="text;html=1;strokeColor=default;fillColor=none;align=center;verticalAlign=middle;whiteSpace=wrap;rounded=0;" parent="ei4XDJJB2DjugkBJXN4E-188" vertex="1">
          <mxGeometry width="68.8" height="19.111111111111114" as="geometry" />
        </mxCell>
        <mxCell id="ei4XDJJB2DjugkBJXN4E-190" value="ID: 1" style="text;html=1;strokeColor=default;fillColor=none;align=center;verticalAlign=middle;whiteSpace=wrap;rounded=0;" parent="ei4XDJJB2DjugkBJXN4E-188" vertex="1">
          <mxGeometry x="68.8" width="68.8" height="19.111111111111114" as="geometry" />
        </mxCell>
        <mxCell id="ei4XDJJB2DjugkBJXN4E-191" value="ID: 2" style="text;html=1;strokeColor=default;fillColor=none;align=center;verticalAlign=middle;whiteSpace=wrap;rounded=0;" parent="ei4XDJJB2DjugkBJXN4E-188" vertex="1">
          <mxGeometry x="137.6" width="68.8" height="19.111111111111114" as="geometry" />
        </mxCell>
        <mxCell id="ei4XDJJB2DjugkBJXN4E-192" value="ID: 20" style="text;html=1;strokeColor=default;fillColor=none;align=center;verticalAlign=middle;whiteSpace=wrap;rounded=0;" parent="ei4XDJJB2DjugkBJXN4E-188" vertex="1">
          <mxGeometry x="240.8" width="68.8" height="19.111111111111114" as="geometry" />
        </mxCell>
        <mxCell id="ei4XDJJB2DjugkBJXN4E-193" value="•••" style="text;html=1;strokeColor=default;fillColor=none;align=center;verticalAlign=middle;whiteSpace=wrap;rounded=0;" parent="ei4XDJJB2DjugkBJXN4E-188" vertex="1">
          <mxGeometry x="206.4" width="34.4" height="19.111111111111114" as="geometry" />
        </mxCell>
        <mxCell id="ei4XDJJB2DjugkBJXN4E-194" value="[-66, -37]" style="rounded=0;whiteSpace=wrap;html=1;strokeColor=default;" parent="ei4XDJJB2DjugkBJXN4E-188" vertex="1">
          <mxGeometry x="68.8" y="19.111111111111114" width="68.8" height="19.111111111111114" as="geometry" />
        </mxCell>
        <mxCell id="ei4XDJJB2DjugkBJXN4E-195" value="[-112, -103]" style="rounded=0;whiteSpace=wrap;html=1;strokeColor=default;" parent="ei4XDJJB2DjugkBJXN4E-188" vertex="1">
          <mxGeometry x="137.6" y="19.111111111111114" width="68.8" height="19.111111111111114" as="geometry" />
        </mxCell>
        <mxCell id="ei4XDJJB2DjugkBJXN4E-196" value="•••" style="text;html=1;strokeColor=none;fillColor=none;align=center;verticalAlign=middle;whiteSpace=wrap;rounded=0;" parent="ei4XDJJB2DjugkBJXN4E-188" vertex="1">
          <mxGeometry x="206.4" y="19.111111111111114" width="34.4" height="19.111111111111114" as="geometry" />
        </mxCell>
        <mxCell id="ei4XDJJB2DjugkBJXN4E-197" value="[0, 0]" style="rounded=0;whiteSpace=wrap;html=1;strokeColor=default;" parent="ei4XDJJB2DjugkBJXN4E-184" vertex="1">
          <mxGeometry y="28.666666666666664" width="68.8" height="19.11111111111111" as="geometry" />
        </mxCell>
        <mxCell id="ei4XDJJB2DjugkBJXN4E-198" value="[151, -277]" style="text;html=1;strokeColor=default;fillColor=none;align=center;verticalAlign=middle;whiteSpace=wrap;rounded=0;" parent="ei4XDJJB2DjugkBJXN4E-184" vertex="1">
          <mxGeometry x="240.8" y="28.666666666666664" width="68.8" height="19.11111111111111" as="geometry" />
        </mxCell>
        <mxCell id="ei4XDJJB2DjugkBJXN4E-199" value="2&lt;span style=&quot;color: rgba(0, 0, 0, 0); font-family: monospace; font-size: 0px; text-align: start;&quot;&gt;%3CmxGraphModel%3E%3Croot%3E%3CmxCell%20id%3D%220%22%2F%3E%3CmxCell%20id%3D%221%22%20parent%3D%220%22%2F%3E%3CmxCell%20id%3D%222%22%20value%3D%221%22%20style%3D%22ellipse%3BwhiteSpace%3Dwrap%3Bhtml%3D1%3Baspect%3Dfixed%3BstrokeColor%3Ddefault%3B%22%20vertex%3D%221%22%20parent%3D%221%22%3E%3CmxGeometry%20x%3D%2260%22%20y%3D%22100%22%20width%3D%2220%22%20height%3D%2220%22%20as%3D%22geometry%22%2F%3E%3C%2FmxCell%3E%3C%2Froot%3E%3C%2FmxGraphModel%3E&lt;/span&gt;" style="ellipse;whiteSpace=wrap;html=1;aspect=fixed;strokeColor=default;fontStyle=1;strokeWidth=2;" parent="ei4XDJJB2DjugkBJXN4E-183" vertex="1">
          <mxGeometry width="14.156493506493508" height="14.156493506493508" as="geometry" />
        </mxCell>
        <mxCell id="ei4XDJJB2DjugkBJXN4E-200" value="Относительные ID: 0 координаты" style="text;html=1;strokeColor=none;fillColor=none;align=left;verticalAlign=middle;whiteSpace=wrap;rounded=0;fontStyle=1" parent="ei4XDJJB2DjugkBJXN4E-183" vertex="1">
          <mxGeometry x="17.2" width="292.40000000000003" height="19.111111111111107" as="geometry" />
        </mxCell>
        <mxCell id="ei4XDJJB2DjugkBJXN4E-201" value="" style="group" parent="ei4XDJJB2DjugkBJXN4E-181" vertex="1" connectable="0">
          <mxGeometry x="25.8" y="277.11111111111114" width="309.6" height="66.88888888888889" as="geometry" />
        </mxCell>
        <mxCell id="ei4XDJJB2DjugkBJXN4E-202" value="" style="group" parent="ei4XDJJB2DjugkBJXN4E-201" vertex="1" connectable="0">
          <mxGeometry y="9.555555555555554" width="309.6" height="57.33333333333333" as="geometry" />
        </mxCell>
        <mxCell id="ei4XDJJB2DjugkBJXN4E-203" value="" style="rounded=0;whiteSpace=wrap;html=1;snapToPoint=1;allowArrows=1;perimeter=rectanglePerimeter;container=0;" parent="ei4XDJJB2DjugkBJXN4E-202" vertex="1">
          <mxGeometry y="9.555555555555555" width="309.6" height="38.22222222222222" as="geometry" />
        </mxCell>
        <mxCell id="ei4XDJJB2DjugkBJXN4E-204" value="" style="rounded=0;whiteSpace=wrap;html=1;fillColor=#dae8fc;strokeColor=#6c8ebf;" parent="ei4XDJJB2DjugkBJXN4E-202" vertex="1">
          <mxGeometry y="9.555555555555555" width="309.6" height="19.11111111111111" as="geometry" />
        </mxCell>
        <mxCell id="ei4XDJJB2DjugkBJXN4E-205" value="" style="group" parent="ei4XDJJB2DjugkBJXN4E-202" vertex="1" connectable="0">
          <mxGeometry y="9.555555555555555" width="309.6" height="47.777777777777786" as="geometry" />
        </mxCell>
        <mxCell id="ei4XDJJB2DjugkBJXN4E-206" value="" style="group" parent="ei4XDJJB2DjugkBJXN4E-205" vertex="1" connectable="0">
          <mxGeometry width="309.6" height="47.777777777777786" as="geometry" />
        </mxCell>
        <mxCell id="ei4XDJJB2DjugkBJXN4E-207" value="ID: 0" style="text;html=1;strokeColor=default;fillColor=none;align=center;verticalAlign=middle;whiteSpace=wrap;rounded=0;" parent="ei4XDJJB2DjugkBJXN4E-206" vertex="1">
          <mxGeometry width="68.8" height="19.111111111111114" as="geometry" />
        </mxCell>
        <mxCell id="ei4XDJJB2DjugkBJXN4E-208" value="ID: 1" style="text;html=1;strokeColor=default;fillColor=none;align=center;verticalAlign=middle;whiteSpace=wrap;rounded=0;" parent="ei4XDJJB2DjugkBJXN4E-206" vertex="1">
          <mxGeometry x="68.8" width="68.8" height="19.111111111111114" as="geometry" />
        </mxCell>
        <mxCell id="ei4XDJJB2DjugkBJXN4E-209" value="ID: 2" style="text;html=1;strokeColor=default;fillColor=none;align=center;verticalAlign=middle;whiteSpace=wrap;rounded=0;" parent="ei4XDJJB2DjugkBJXN4E-206" vertex="1">
          <mxGeometry x="137.6" width="68.8" height="19.111111111111114" as="geometry" />
        </mxCell>
        <mxCell id="ei4XDJJB2DjugkBJXN4E-210" value="ID: 20" style="text;html=1;strokeColor=default;fillColor=none;align=center;verticalAlign=middle;whiteSpace=wrap;rounded=0;" parent="ei4XDJJB2DjugkBJXN4E-206" vertex="1">
          <mxGeometry x="240.8" width="68.8" height="19.111111111111114" as="geometry" />
        </mxCell>
        <mxCell id="ei4XDJJB2DjugkBJXN4E-211" value="•••" style="text;html=1;strokeColor=default;fillColor=none;align=center;verticalAlign=middle;whiteSpace=wrap;rounded=0;" parent="ei4XDJJB2DjugkBJXN4E-206" vertex="1">
          <mxGeometry x="206.4" width="34.4" height="19.111111111111114" as="geometry" />
        </mxCell>
        <mxCell id="ei4XDJJB2DjugkBJXN4E-212" value="" style="edgeStyle=orthogonalEdgeStyle;rounded=0;orthogonalLoop=1;jettySize=auto;html=1;" parent="ei4XDJJB2DjugkBJXN4E-206" source="ei4XDJJB2DjugkBJXN4E-213" target="ei4XDJJB2DjugkBJXN4E-214" edge="1">
          <mxGeometry relative="1" as="geometry" />
        </mxCell>
        <mxCell id="ei4XDJJB2DjugkBJXN4E-213" value="-0.24" style="rounded=0;whiteSpace=wrap;html=1;strokeColor=default;" parent="ei4XDJJB2DjugkBJXN4E-206" vertex="1">
          <mxGeometry x="68.8" y="19.111111111111114" width="34.4" height="19.111111111111114" as="geometry" />
        </mxCell>
        <mxCell id="ei4XDJJB2DjugkBJXN4E-214" value="" style="rounded=0;whiteSpace=wrap;html=1;strokeColor=default;" parent="ei4XDJJB2DjugkBJXN4E-206" vertex="1">
          <mxGeometry x="137.6" y="19.111111111111114" width="68.8" height="19.111111111111114" as="geometry" />
        </mxCell>
        <mxCell id="ei4XDJJB2DjugkBJXN4E-215" value="•••" style="text;html=1;strokeColor=none;fillColor=none;align=center;verticalAlign=middle;whiteSpace=wrap;rounded=0;" parent="ei4XDJJB2DjugkBJXN4E-206" vertex="1">
          <mxGeometry x="206.4" y="19.111111111111114" width="34.4" height="19.111111111111114" as="geometry" />
        </mxCell>
        <mxCell id="ei4XDJJB2DjugkBJXN4E-216" value="-0.4" style="rounded=0;whiteSpace=wrap;html=1;strokeColor=default;" parent="ei4XDJJB2DjugkBJXN4E-206" vertex="1">
          <mxGeometry x="137.6" y="19.111111111111114" width="34.4" height="19.111111111111114" as="geometry" />
        </mxCell>
        <mxCell id="ei4XDJJB2DjugkBJXN4E-217" value="-0.37" style="rounded=0;whiteSpace=wrap;html=1;strokeColor=default;" parent="ei4XDJJB2DjugkBJXN4E-206" vertex="1">
          <mxGeometry x="172" y="19.111111111111114" width="34.4" height="19.111111111111114" as="geometry" />
        </mxCell>
        <mxCell id="ei4XDJJB2DjugkBJXN4E-218" value="0" style="rounded=0;whiteSpace=wrap;html=1;strokeColor=default;" parent="ei4XDJJB2DjugkBJXN4E-202" vertex="1">
          <mxGeometry y="28.666666666666664" width="34.4" height="19.11111111111111" as="geometry" />
        </mxCell>
        <mxCell id="ei4XDJJB2DjugkBJXN4E-219" value="0" style="rounded=0;whiteSpace=wrap;html=1;strokeColor=default;" parent="ei4XDJJB2DjugkBJXN4E-202" vertex="1">
          <mxGeometry x="34.4" y="28.666666666666664" width="34.4" height="19.11111111111111" as="geometry" />
        </mxCell>
        <mxCell id="ei4XDJJB2DjugkBJXN4E-220" value="-0.13" style="rounded=0;whiteSpace=wrap;html=1;strokeColor=default;" parent="ei4XDJJB2DjugkBJXN4E-202" vertex="1">
          <mxGeometry x="103.2" y="28.666666666666664" width="34.4" height="19.11111111111111" as="geometry" />
        </mxCell>
        <mxCell id="ei4XDJJB2DjugkBJXN4E-221" value="0.545" style="rounded=0;whiteSpace=wrap;html=1;strokeColor=default;" parent="ei4XDJJB2DjugkBJXN4E-202" vertex="1">
          <mxGeometry x="240.8" y="28.666666666666664" width="34.4" height="19.11111111111111" as="geometry" />
        </mxCell>
        <mxCell id="ei4XDJJB2DjugkBJXN4E-222" value="-1" style="rounded=0;whiteSpace=wrap;html=1;strokeColor=default;" parent="ei4XDJJB2DjugkBJXN4E-202" vertex="1">
          <mxGeometry x="275.2" y="28.666666666666664" width="34.4" height="19.11111111111111" as="geometry" />
        </mxCell>
        <mxCell id="ei4XDJJB2DjugkBJXN4E-223" value="4" style="ellipse;whiteSpace=wrap;html=1;aspect=fixed;strokeColor=default;fontStyle=1;strokeWidth=2;" parent="ei4XDJJB2DjugkBJXN4E-201" vertex="1">
          <mxGeometry width="14.156493506493508" height="14.156493506493508" as="geometry" />
        </mxCell>
        <mxCell id="ei4XDJJB2DjugkBJXN4E-224" value="Нормализованные координаты" style="text;html=1;strokeColor=none;fillColor=none;align=left;verticalAlign=middle;whiteSpace=wrap;rounded=0;fontStyle=1" parent="ei4XDJJB2DjugkBJXN4E-201" vertex="1">
          <mxGeometry x="17.2" width="292.40000000000003" height="19.111111111111107" as="geometry" />
        </mxCell>
        <mxCell id="ei4XDJJB2DjugkBJXN4E-225" value="" style="group" parent="ei4XDJJB2DjugkBJXN4E-181" vertex="1" connectable="0">
          <mxGeometry x="25.8" y="19.111111111111107" width="309.6" height="66.88888888888889" as="geometry" />
        </mxCell>
        <mxCell id="ei4XDJJB2DjugkBJXN4E-226" value="" style="group" parent="ei4XDJJB2DjugkBJXN4E-225" vertex="1" connectable="0">
          <mxGeometry y="9.555555555555554" width="309.6" height="57.33333333333333" as="geometry" />
        </mxCell>
        <mxCell id="ei4XDJJB2DjugkBJXN4E-227" value="" style="rounded=0;whiteSpace=wrap;html=1;snapToPoint=1;allowArrows=1;perimeter=rectanglePerimeter;container=0;" parent="ei4XDJJB2DjugkBJXN4E-226" vertex="1">
          <mxGeometry y="9.555555555555555" width="309.6" height="38.22222222222222" as="geometry" />
        </mxCell>
        <mxCell id="ei4XDJJB2DjugkBJXN4E-228" value="" style="rounded=0;whiteSpace=wrap;html=1;fillColor=#dae8fc;strokeColor=#6c8ebf;" parent="ei4XDJJB2DjugkBJXN4E-226" vertex="1">
          <mxGeometry y="9.555555555555555" width="309.6" height="19.11111111111111" as="geometry" />
        </mxCell>
        <mxCell id="ei4XDJJB2DjugkBJXN4E-229" value="[551, 465]" style="rounded=0;whiteSpace=wrap;html=1;strokeColor=default;" parent="ei4XDJJB2DjugkBJXN4E-226" vertex="1">
          <mxGeometry y="28.666666666666664" width="68.8" height="19.11111111111111" as="geometry" />
        </mxCell>
        <mxCell id="ei4XDJJB2DjugkBJXN4E-230" value="[702, 188]" style="text;html=1;strokeColor=default;fillColor=none;align=center;verticalAlign=middle;whiteSpace=wrap;rounded=0;" parent="ei4XDJJB2DjugkBJXN4E-226" vertex="1">
          <mxGeometry x="240.8" y="28.666666666666664" width="68.8" height="19.11111111111111" as="geometry" />
        </mxCell>
        <mxCell id="ei4XDJJB2DjugkBJXN4E-231" value="" style="group" parent="ei4XDJJB2DjugkBJXN4E-226" vertex="1" connectable="0">
          <mxGeometry y="-9.555555555555555" width="309.6" height="66.8888888888889" as="geometry" />
        </mxCell>
        <mxCell id="ei4XDJJB2DjugkBJXN4E-232" value="" style="group" parent="ei4XDJJB2DjugkBJXN4E-231" vertex="1" connectable="0">
          <mxGeometry y="19.111111111111114" width="309.6" height="47.77777777777779" as="geometry" />
        </mxCell>
        <mxCell id="ei4XDJJB2DjugkBJXN4E-233" value="" style="group" parent="ei4XDJJB2DjugkBJXN4E-232" vertex="1" connectable="0">
          <mxGeometry width="309.6" height="47.77777777777779" as="geometry" />
        </mxCell>
        <mxCell id="ei4XDJJB2DjugkBJXN4E-234" value="ID: 0" style="text;html=1;strokeColor=default;fillColor=none;align=center;verticalAlign=middle;whiteSpace=wrap;rounded=0;" parent="ei4XDJJB2DjugkBJXN4E-233" vertex="1">
          <mxGeometry width="68.8" height="19.111111111111118" as="geometry" />
        </mxCell>
        <mxCell id="ei4XDJJB2DjugkBJXN4E-235" value="ID: 1" style="text;html=1;strokeColor=default;fillColor=none;align=center;verticalAlign=middle;whiteSpace=wrap;rounded=0;" parent="ei4XDJJB2DjugkBJXN4E-233" vertex="1">
          <mxGeometry x="68.8" width="68.8" height="19.111111111111118" as="geometry" />
        </mxCell>
        <mxCell id="ei4XDJJB2DjugkBJXN4E-236" value="ID: 2" style="text;html=1;strokeColor=default;fillColor=none;align=center;verticalAlign=middle;whiteSpace=wrap;rounded=0;" parent="ei4XDJJB2DjugkBJXN4E-233" vertex="1">
          <mxGeometry x="137.6" width="68.8" height="19.111111111111118" as="geometry" />
        </mxCell>
        <mxCell id="ei4XDJJB2DjugkBJXN4E-237" value="ID: 20" style="text;html=1;strokeColor=default;fillColor=none;align=center;verticalAlign=middle;whiteSpace=wrap;rounded=0;" parent="ei4XDJJB2DjugkBJXN4E-233" vertex="1">
          <mxGeometry x="240.8" width="68.8" height="19.111111111111118" as="geometry" />
        </mxCell>
        <mxCell id="ei4XDJJB2DjugkBJXN4E-238" value="•••" style="text;html=1;strokeColor=default;fillColor=none;align=center;verticalAlign=middle;whiteSpace=wrap;rounded=0;" parent="ei4XDJJB2DjugkBJXN4E-233" vertex="1">
          <mxGeometry x="206.4" width="34.4" height="19.111111111111118" as="geometry" />
        </mxCell>
        <mxCell id="ei4XDJJB2DjugkBJXN4E-239" value="[485, 428]" style="rounded=0;whiteSpace=wrap;html=1;strokeColor=default;" parent="ei4XDJJB2DjugkBJXN4E-233" vertex="1">
          <mxGeometry x="68.8" y="19.111111111111118" width="68.8" height="19.111111111111118" as="geometry" />
        </mxCell>
        <mxCell id="ei4XDJJB2DjugkBJXN4E-240" value="[439, 362]" style="rounded=0;whiteSpace=wrap;html=1;strokeColor=default;" parent="ei4XDJJB2DjugkBJXN4E-233" vertex="1">
          <mxGeometry x="137.6" y="19.111111111111118" width="68.8" height="19.111111111111118" as="geometry" />
        </mxCell>
        <mxCell id="ei4XDJJB2DjugkBJXN4E-241" value="•••" style="text;html=1;strokeColor=none;fillColor=none;align=center;verticalAlign=middle;whiteSpace=wrap;rounded=0;" parent="ei4XDJJB2DjugkBJXN4E-233" vertex="1">
          <mxGeometry x="206.4" y="19.111111111111118" width="34.4" height="19.111111111111118" as="geometry" />
        </mxCell>
        <mxCell id="ei4XDJJB2DjugkBJXN4E-242" value="1" style="ellipse;whiteSpace=wrap;html=1;aspect=fixed;strokeColor=default;fontStyle=1;strokeWidth=2;" parent="ei4XDJJB2DjugkBJXN4E-231" vertex="1">
          <mxGeometry width="14.156493506493508" height="14.156493506493508" as="geometry" />
        </mxCell>
        <mxCell id="ei4XDJJB2DjugkBJXN4E-243" value="Исходные координаты точек" style="text;html=1;strokeColor=none;fillColor=none;align=left;verticalAlign=middle;whiteSpace=wrap;rounded=0;fontStyle=1" parent="ei4XDJJB2DjugkBJXN4E-225" vertex="1">
          <mxGeometry x="17.2" width="292.40000000000003" height="19.111111111111107" as="geometry" />
        </mxCell>
        <mxCell id="ei4XDJJB2DjugkBJXN4E-244" value="" style="group" parent="ei4XDJJB2DjugkBJXN4E-181" vertex="1" connectable="0">
          <mxGeometry x="25.8" y="191.11111111111111" width="309.6" height="66.88888888888889" as="geometry" />
        </mxCell>
        <mxCell id="ei4XDJJB2DjugkBJXN4E-245" value="" style="group" parent="ei4XDJJB2DjugkBJXN4E-244" vertex="1" connectable="0">
          <mxGeometry y="9.555555555555554" width="309.6" height="57.33333333333333" as="geometry" />
        </mxCell>
        <mxCell id="ei4XDJJB2DjugkBJXN4E-246" value="" style="rounded=0;whiteSpace=wrap;html=1;snapToPoint=1;allowArrows=1;perimeter=rectanglePerimeter;container=0;" parent="ei4XDJJB2DjugkBJXN4E-245" vertex="1">
          <mxGeometry y="9.555555555555555" width="309.6" height="38.22222222222222" as="geometry" />
        </mxCell>
        <mxCell id="ei4XDJJB2DjugkBJXN4E-247" value="" style="rounded=0;whiteSpace=wrap;html=1;fillColor=#dae8fc;strokeColor=#6c8ebf;" parent="ei4XDJJB2DjugkBJXN4E-245" vertex="1">
          <mxGeometry y="9.555555555555555" width="309.6" height="19.11111111111111" as="geometry" />
        </mxCell>
        <mxCell id="ei4XDJJB2DjugkBJXN4E-248" value="0" style="rounded=0;whiteSpace=wrap;html=1;strokeColor=default;" parent="ei4XDJJB2DjugkBJXN4E-245" vertex="1">
          <mxGeometry y="28.666666666666664" width="34.4" height="19.11111111111111" as="geometry" />
        </mxCell>
        <mxCell id="ei4XDJJB2DjugkBJXN4E-249" value="0" style="rounded=0;whiteSpace=wrap;html=1;strokeColor=default;" parent="ei4XDJJB2DjugkBJXN4E-245" vertex="1">
          <mxGeometry x="34.4" y="28.666666666666664" width="34.4" height="19.11111111111111" as="geometry" />
        </mxCell>
        <mxCell id="ei4XDJJB2DjugkBJXN4E-250" value="-37" style="rounded=0;whiteSpace=wrap;html=1;strokeColor=default;" parent="ei4XDJJB2DjugkBJXN4E-245" vertex="1">
          <mxGeometry x="103.2" y="28.666666666666664" width="34.4" height="19.11111111111111" as="geometry" />
        </mxCell>
        <mxCell id="ei4XDJJB2DjugkBJXN4E-251" value="151" style="rounded=0;whiteSpace=wrap;html=1;strokeColor=default;" parent="ei4XDJJB2DjugkBJXN4E-245" vertex="1">
          <mxGeometry x="240.8" y="28.666666666666664" width="34.4" height="19.11111111111111" as="geometry" />
        </mxCell>
        <mxCell id="ei4XDJJB2DjugkBJXN4E-252" value="-277" style="rounded=0;whiteSpace=wrap;html=1;strokeColor=default;" parent="ei4XDJJB2DjugkBJXN4E-245" vertex="1">
          <mxGeometry x="275.2" y="28.666666666666664" width="34.4" height="19.11111111111111" as="geometry" />
        </mxCell>
        <mxCell id="ei4XDJJB2DjugkBJXN4E-253" value="" style="group" parent="ei4XDJJB2DjugkBJXN4E-245" vertex="1" connectable="0">
          <mxGeometry y="-9.555555555555555" width="309.6" height="66.8888888888889" as="geometry" />
        </mxCell>
        <mxCell id="ei4XDJJB2DjugkBJXN4E-254" value="" style="group" parent="ei4XDJJB2DjugkBJXN4E-253" vertex="1" connectable="0">
          <mxGeometry y="19.111111111111114" width="309.6" height="47.77777777777779" as="geometry" />
        </mxCell>
        <mxCell id="ei4XDJJB2DjugkBJXN4E-255" value="" style="group" parent="ei4XDJJB2DjugkBJXN4E-254" vertex="1" connectable="0">
          <mxGeometry width="309.6" height="47.77777777777779" as="geometry" />
        </mxCell>
        <mxCell id="ei4XDJJB2DjugkBJXN4E-256" value="ID: 0" style="text;html=1;strokeColor=default;fillColor=none;align=center;verticalAlign=middle;whiteSpace=wrap;rounded=0;" parent="ei4XDJJB2DjugkBJXN4E-255" vertex="1">
          <mxGeometry width="68.8" height="19.111111111111118" as="geometry" />
        </mxCell>
        <mxCell id="ei4XDJJB2DjugkBJXN4E-257" value="ID: 1" style="text;html=1;strokeColor=default;fillColor=none;align=center;verticalAlign=middle;whiteSpace=wrap;rounded=0;" parent="ei4XDJJB2DjugkBJXN4E-255" vertex="1">
          <mxGeometry x="68.8" width="68.8" height="19.111111111111118" as="geometry" />
        </mxCell>
        <mxCell id="ei4XDJJB2DjugkBJXN4E-258" value="ID: 2" style="text;html=1;strokeColor=default;fillColor=none;align=center;verticalAlign=middle;whiteSpace=wrap;rounded=0;" parent="ei4XDJJB2DjugkBJXN4E-255" vertex="1">
          <mxGeometry x="137.6" width="68.8" height="19.111111111111118" as="geometry" />
        </mxCell>
        <mxCell id="ei4XDJJB2DjugkBJXN4E-259" value="ID: 20" style="text;html=1;strokeColor=default;fillColor=none;align=center;verticalAlign=middle;whiteSpace=wrap;rounded=0;" parent="ei4XDJJB2DjugkBJXN4E-255" vertex="1">
          <mxGeometry x="240.8" width="68.8" height="19.111111111111118" as="geometry" />
        </mxCell>
        <mxCell id="ei4XDJJB2DjugkBJXN4E-260" value="•••" style="text;html=1;strokeColor=default;fillColor=none;align=center;verticalAlign=middle;whiteSpace=wrap;rounded=0;" parent="ei4XDJJB2DjugkBJXN4E-255" vertex="1">
          <mxGeometry x="206.4" width="34.4" height="19.111111111111118" as="geometry" />
        </mxCell>
        <mxCell id="ei4XDJJB2DjugkBJXN4E-261" value="-66" style="rounded=0;whiteSpace=wrap;html=1;strokeColor=default;" parent="ei4XDJJB2DjugkBJXN4E-255" vertex="1">
          <mxGeometry x="68.8" y="19.111111111111118" width="34.4" height="19.111111111111118" as="geometry" />
        </mxCell>
        <mxCell id="ei4XDJJB2DjugkBJXN4E-262" value="" style="rounded=0;whiteSpace=wrap;html=1;strokeColor=default;" parent="ei4XDJJB2DjugkBJXN4E-255" vertex="1">
          <mxGeometry x="137.6" y="19.111111111111118" width="68.8" height="19.111111111111118" as="geometry" />
        </mxCell>
        <mxCell id="ei4XDJJB2DjugkBJXN4E-263" value="•••" style="text;html=1;strokeColor=none;fillColor=none;align=center;verticalAlign=middle;whiteSpace=wrap;rounded=0;" parent="ei4XDJJB2DjugkBJXN4E-255" vertex="1">
          <mxGeometry x="206.4" y="19.111111111111118" width="34.4" height="19.111111111111118" as="geometry" />
        </mxCell>
        <mxCell id="ei4XDJJB2DjugkBJXN4E-264" value="-112" style="rounded=0;whiteSpace=wrap;html=1;strokeColor=default;" parent="ei4XDJJB2DjugkBJXN4E-255" vertex="1">
          <mxGeometry x="137.6" y="19.111111111111118" width="34.4" height="19.111111111111118" as="geometry" />
        </mxCell>
        <mxCell id="ei4XDJJB2DjugkBJXN4E-265" value="-103" style="rounded=0;whiteSpace=wrap;html=1;strokeColor=default;" parent="ei4XDJJB2DjugkBJXN4E-255" vertex="1">
          <mxGeometry x="172" y="19.111111111111118" width="34.4" height="19.111111111111118" as="geometry" />
        </mxCell>
        <mxCell id="ei4XDJJB2DjugkBJXN4E-266" value="3" style="ellipse;whiteSpace=wrap;html=1;aspect=fixed;strokeColor=default;fontStyle=1;strokeWidth=2;" parent="ei4XDJJB2DjugkBJXN4E-253" vertex="1">
          <mxGeometry width="14.156493506493508" height="14.156493506493508" as="geometry" />
        </mxCell>
        <mxCell id="ei4XDJJB2DjugkBJXN4E-267" value="Преобразование к массиву одной размерности" style="text;html=1;strokeColor=none;fillColor=none;align=left;verticalAlign=middle;whiteSpace=wrap;rounded=0;fontStyle=1" parent="ei4XDJJB2DjugkBJXN4E-244" vertex="1">
          <mxGeometry x="17.2" width="292.40000000000003" height="19.111111111111107" as="geometry" />
        </mxCell>
        <mxCell id="ei4XDJJB2DjugkBJXN4E-268" style="edgeStyle=orthogonalEdgeStyle;rounded=0;orthogonalLoop=1;jettySize=auto;html=1;exitX=0;exitY=0;exitDx=0;exitDy=0;entryX=0;entryY=0;entryDx=0;entryDy=0;strokeWidth=2;endSize=6;startSize=6;jumpSize=6;shadow=0;" parent="ei4XDJJB2DjugkBJXN4E-181" source="ei4XDJJB2DjugkBJXN4E-242" target="ei4XDJJB2DjugkBJXN4E-199" edge="1">
          <mxGeometry relative="1" as="geometry">
            <Array as="points">
              <mxPoint x="8.6" y="21.977777777777778" />
              <mxPoint x="8.6" y="107.97777777777776" />
            </Array>
          </mxGeometry>
        </mxCell>
        <mxCell id="ei4XDJJB2DjugkBJXN4E-269" style="edgeStyle=orthogonalEdgeStyle;rounded=0;orthogonalLoop=1;jettySize=auto;html=1;exitX=0;exitY=0.5;exitDx=0;exitDy=0;entryX=0;entryY=0;entryDx=0;entryDy=0;strokeWidth=2;" parent="ei4XDJJB2DjugkBJXN4E-181" source="ei4XDJJB2DjugkBJXN4E-199" target="ei4XDJJB2DjugkBJXN4E-266" edge="1">
          <mxGeometry relative="1" as="geometry">
            <Array as="points">
              <mxPoint x="8.6" y="114.66666666666666" />
              <mxPoint x="8.6" y="193.97777777777776" />
            </Array>
          </mxGeometry>
        </mxCell>
        <mxCell id="ei4XDJJB2DjugkBJXN4E-270" style="edgeStyle=orthogonalEdgeStyle;rounded=0;orthogonalLoop=1;jettySize=auto;html=1;exitX=0;exitY=0.5;exitDx=0;exitDy=0;entryX=0;entryY=0;entryDx=0;entryDy=0;strokeWidth=2;" parent="ei4XDJJB2DjugkBJXN4E-181" source="ei4XDJJB2DjugkBJXN4E-266" target="ei4XDJJB2DjugkBJXN4E-223" edge="1">
          <mxGeometry relative="1" as="geometry">
            <Array as="points">
              <mxPoint x="8.6" y="200.66666666666666" />
              <mxPoint x="8.6" y="279.97777777777776" />
            </Array>
          </mxGeometry>
        </mxCell>
        <mxCell id="ei4XDJJB2DjugkBJXN4E-271" value="" style="group;fillColor=none;horizontal=0;verticalAlign=middle;html=1;" parent="uaP6zwDsvVWyuOUaEy8a-1" vertex="1" connectable="0">
          <mxGeometry x="1870.5" y="774" width="344" height="344" as="geometry" />
        </mxCell>
        <mxCell id="ei4XDJJB2DjugkBJXN4E-272" value="" style="rounded=0;whiteSpace=wrap;html=1;strokeColor=#ae4132;strokeWidth=1;fillColor=#fad9d5;dashed=1;" parent="ei4XDJJB2DjugkBJXN4E-271" vertex="1">
          <mxGeometry width="344" height="344" as="geometry" />
        </mxCell>
        <mxCell id="ei4XDJJB2DjugkBJXN4E-273" value="" style="group" parent="ei4XDJJB2DjugkBJXN4E-271" vertex="1" connectable="0">
          <mxGeometry x="25.8" y="105.1111111111111" width="309.6" height="66.88888888888889" as="geometry" />
        </mxCell>
        <mxCell id="ei4XDJJB2DjugkBJXN4E-274" value="" style="group" parent="ei4XDJJB2DjugkBJXN4E-273" vertex="1" connectable="0">
          <mxGeometry y="9.555555555555554" width="309.6" height="57.33333333333333" as="geometry" />
        </mxCell>
        <mxCell id="ei4XDJJB2DjugkBJXN4E-275" value="" style="rounded=0;whiteSpace=wrap;html=1;snapToPoint=1;allowArrows=1;perimeter=rectanglePerimeter;container=0;" parent="ei4XDJJB2DjugkBJXN4E-274" vertex="1">
          <mxGeometry y="9.555555555555555" width="309.6" height="38.22222222222222" as="geometry" />
        </mxCell>
        <mxCell id="ei4XDJJB2DjugkBJXN4E-276" value="" style="rounded=0;whiteSpace=wrap;html=1;fillColor=#dae8fc;strokeColor=#6c8ebf;" parent="ei4XDJJB2DjugkBJXN4E-274" vertex="1">
          <mxGeometry y="9.555555555555555" width="309.6" height="19.11111111111111" as="geometry" />
        </mxCell>
        <mxCell id="ei4XDJJB2DjugkBJXN4E-277" value="" style="group" parent="ei4XDJJB2DjugkBJXN4E-274" vertex="1" connectable="0">
          <mxGeometry y="9.555555555555555" width="309.6" height="47.777777777777786" as="geometry" />
        </mxCell>
        <mxCell id="ei4XDJJB2DjugkBJXN4E-278" value="" style="group" parent="ei4XDJJB2DjugkBJXN4E-277" vertex="1" connectable="0">
          <mxGeometry width="309.6" height="47.777777777777786" as="geometry" />
        </mxCell>
        <mxCell id="ei4XDJJB2DjugkBJXN4E-279" value="ID: 0" style="text;html=1;strokeColor=default;fillColor=none;align=center;verticalAlign=middle;whiteSpace=wrap;rounded=0;" parent="ei4XDJJB2DjugkBJXN4E-278" vertex="1">
          <mxGeometry width="68.8" height="19.111111111111114" as="geometry" />
        </mxCell>
        <mxCell id="ei4XDJJB2DjugkBJXN4E-280" value="ID: 1" style="text;html=1;strokeColor=default;fillColor=none;align=center;verticalAlign=middle;whiteSpace=wrap;rounded=0;" parent="ei4XDJJB2DjugkBJXN4E-278" vertex="1">
          <mxGeometry x="68.8" width="68.8" height="19.111111111111114" as="geometry" />
        </mxCell>
        <mxCell id="ei4XDJJB2DjugkBJXN4E-281" value="ID: 2" style="text;html=1;strokeColor=default;fillColor=none;align=center;verticalAlign=middle;whiteSpace=wrap;rounded=0;" parent="ei4XDJJB2DjugkBJXN4E-278" vertex="1">
          <mxGeometry x="137.6" width="68.8" height="19.111111111111114" as="geometry" />
        </mxCell>
        <mxCell id="ei4XDJJB2DjugkBJXN4E-282" value="ID: 20" style="text;html=1;strokeColor=default;fillColor=none;align=center;verticalAlign=middle;whiteSpace=wrap;rounded=0;" parent="ei4XDJJB2DjugkBJXN4E-278" vertex="1">
          <mxGeometry x="240.8" width="68.8" height="19.111111111111114" as="geometry" />
        </mxCell>
        <mxCell id="ei4XDJJB2DjugkBJXN4E-283" value="•••" style="text;html=1;strokeColor=default;fillColor=none;align=center;verticalAlign=middle;whiteSpace=wrap;rounded=0;" parent="ei4XDJJB2DjugkBJXN4E-278" vertex="1">
          <mxGeometry x="206.4" width="34.4" height="19.111111111111114" as="geometry" />
        </mxCell>
        <mxCell id="ei4XDJJB2DjugkBJXN4E-284" value="[-66, -37]" style="rounded=0;whiteSpace=wrap;html=1;strokeColor=default;" parent="ei4XDJJB2DjugkBJXN4E-278" vertex="1">
          <mxGeometry x="68.8" y="19.111111111111114" width="68.8" height="19.111111111111114" as="geometry" />
        </mxCell>
        <mxCell id="ei4XDJJB2DjugkBJXN4E-285" value="[-112, -103]" style="rounded=0;whiteSpace=wrap;html=1;strokeColor=default;" parent="ei4XDJJB2DjugkBJXN4E-278" vertex="1">
          <mxGeometry x="137.6" y="19.111111111111114" width="68.8" height="19.111111111111114" as="geometry" />
        </mxCell>
        <mxCell id="ei4XDJJB2DjugkBJXN4E-286" value="•••" style="text;html=1;strokeColor=none;fillColor=none;align=center;verticalAlign=middle;whiteSpace=wrap;rounded=0;" parent="ei4XDJJB2DjugkBJXN4E-278" vertex="1">
          <mxGeometry x="206.4" y="19.111111111111114" width="34.4" height="19.111111111111114" as="geometry" />
        </mxCell>
        <mxCell id="ei4XDJJB2DjugkBJXN4E-287" value="[0, 0]" style="rounded=0;whiteSpace=wrap;html=1;strokeColor=default;" parent="ei4XDJJB2DjugkBJXN4E-274" vertex="1">
          <mxGeometry y="28.666666666666664" width="68.8" height="19.11111111111111" as="geometry" />
        </mxCell>
        <mxCell id="ei4XDJJB2DjugkBJXN4E-288" value="[151, -277]" style="text;html=1;strokeColor=default;fillColor=none;align=center;verticalAlign=middle;whiteSpace=wrap;rounded=0;" parent="ei4XDJJB2DjugkBJXN4E-274" vertex="1">
          <mxGeometry x="240.8" y="28.666666666666664" width="68.8" height="19.11111111111111" as="geometry" />
        </mxCell>
        <mxCell id="ei4XDJJB2DjugkBJXN4E-289" value="2&lt;span style=&quot;color: rgba(0, 0, 0, 0); font-family: monospace; font-size: 0px; text-align: start;&quot;&gt;%3CmxGraphModel%3E%3Croot%3E%3CmxCell%20id%3D%220%22%2F%3E%3CmxCell%20id%3D%221%22%20parent%3D%220%22%2F%3E%3CmxCell%20id%3D%222%22%20value%3D%221%22%20style%3D%22ellipse%3BwhiteSpace%3Dwrap%3Bhtml%3D1%3Baspect%3Dfixed%3BstrokeColor%3Ddefault%3B%22%20vertex%3D%221%22%20parent%3D%221%22%3E%3CmxGeometry%20x%3D%2260%22%20y%3D%22100%22%20width%3D%2220%22%20height%3D%2220%22%20as%3D%22geometry%22%2F%3E%3C%2FmxCell%3E%3C%2Froot%3E%3C%2FmxGraphModel%3E&lt;/span&gt;" style="ellipse;whiteSpace=wrap;html=1;aspect=fixed;strokeColor=default;fontStyle=1;strokeWidth=2;" parent="ei4XDJJB2DjugkBJXN4E-273" vertex="1">
          <mxGeometry width="14.156493506493508" height="14.156493506493508" as="geometry" />
        </mxCell>
        <mxCell id="ei4XDJJB2DjugkBJXN4E-290" value="Относительные ID: 0 координаты" style="text;html=1;strokeColor=none;fillColor=none;align=left;verticalAlign=middle;whiteSpace=wrap;rounded=0;fontStyle=1" parent="ei4XDJJB2DjugkBJXN4E-273" vertex="1">
          <mxGeometry x="17.2" width="292.40000000000003" height="19.111111111111107" as="geometry" />
        </mxCell>
        <mxCell id="ei4XDJJB2DjugkBJXN4E-291" value="" style="group" parent="ei4XDJJB2DjugkBJXN4E-271" vertex="1" connectable="0">
          <mxGeometry x="25.8" y="277.11111111111114" width="309.6" height="66.88888888888889" as="geometry" />
        </mxCell>
        <mxCell id="ei4XDJJB2DjugkBJXN4E-292" value="" style="group" parent="ei4XDJJB2DjugkBJXN4E-291" vertex="1" connectable="0">
          <mxGeometry y="9.555555555555554" width="309.6" height="57.33333333333333" as="geometry" />
        </mxCell>
        <mxCell id="ei4XDJJB2DjugkBJXN4E-293" value="" style="rounded=0;whiteSpace=wrap;html=1;snapToPoint=1;allowArrows=1;perimeter=rectanglePerimeter;container=0;" parent="ei4XDJJB2DjugkBJXN4E-292" vertex="1">
          <mxGeometry y="9.555555555555555" width="309.6" height="38.22222222222222" as="geometry" />
        </mxCell>
        <mxCell id="ei4XDJJB2DjugkBJXN4E-294" value="" style="rounded=0;whiteSpace=wrap;html=1;fillColor=#dae8fc;strokeColor=#6c8ebf;" parent="ei4XDJJB2DjugkBJXN4E-292" vertex="1">
          <mxGeometry y="9.555555555555555" width="309.6" height="19.11111111111111" as="geometry" />
        </mxCell>
        <mxCell id="ei4XDJJB2DjugkBJXN4E-295" value="" style="group" parent="ei4XDJJB2DjugkBJXN4E-292" vertex="1" connectable="0">
          <mxGeometry y="9.555555555555555" width="309.6" height="47.777777777777786" as="geometry" />
        </mxCell>
        <mxCell id="ei4XDJJB2DjugkBJXN4E-296" value="" style="group" parent="ei4XDJJB2DjugkBJXN4E-295" vertex="1" connectable="0">
          <mxGeometry width="309.6" height="47.777777777777786" as="geometry" />
        </mxCell>
        <mxCell id="ei4XDJJB2DjugkBJXN4E-297" value="ID: 0" style="text;html=1;strokeColor=default;fillColor=none;align=center;verticalAlign=middle;whiteSpace=wrap;rounded=0;" parent="ei4XDJJB2DjugkBJXN4E-296" vertex="1">
          <mxGeometry width="68.8" height="19.111111111111114" as="geometry" />
        </mxCell>
        <mxCell id="ei4XDJJB2DjugkBJXN4E-298" value="ID: 1" style="text;html=1;strokeColor=default;fillColor=none;align=center;verticalAlign=middle;whiteSpace=wrap;rounded=0;" parent="ei4XDJJB2DjugkBJXN4E-296" vertex="1">
          <mxGeometry x="68.8" width="68.8" height="19.111111111111114" as="geometry" />
        </mxCell>
        <mxCell id="ei4XDJJB2DjugkBJXN4E-299" value="ID: 2" style="text;html=1;strokeColor=default;fillColor=none;align=center;verticalAlign=middle;whiteSpace=wrap;rounded=0;" parent="ei4XDJJB2DjugkBJXN4E-296" vertex="1">
          <mxGeometry x="137.6" width="68.8" height="19.111111111111114" as="geometry" />
        </mxCell>
        <mxCell id="ei4XDJJB2DjugkBJXN4E-300" value="ID: 20" style="text;html=1;strokeColor=default;fillColor=none;align=center;verticalAlign=middle;whiteSpace=wrap;rounded=0;" parent="ei4XDJJB2DjugkBJXN4E-296" vertex="1">
          <mxGeometry x="240.8" width="68.8" height="19.111111111111114" as="geometry" />
        </mxCell>
        <mxCell id="ei4XDJJB2DjugkBJXN4E-301" value="•••" style="text;html=1;strokeColor=default;fillColor=none;align=center;verticalAlign=middle;whiteSpace=wrap;rounded=0;" parent="ei4XDJJB2DjugkBJXN4E-296" vertex="1">
          <mxGeometry x="206.4" width="34.4" height="19.111111111111114" as="geometry" />
        </mxCell>
        <mxCell id="ei4XDJJB2DjugkBJXN4E-302" value="" style="edgeStyle=orthogonalEdgeStyle;rounded=0;orthogonalLoop=1;jettySize=auto;html=1;" parent="ei4XDJJB2DjugkBJXN4E-296" source="ei4XDJJB2DjugkBJXN4E-303" target="ei4XDJJB2DjugkBJXN4E-304" edge="1">
          <mxGeometry relative="1" as="geometry" />
        </mxCell>
        <mxCell id="ei4XDJJB2DjugkBJXN4E-303" value="-0.24" style="rounded=0;whiteSpace=wrap;html=1;strokeColor=default;" parent="ei4XDJJB2DjugkBJXN4E-296" vertex="1">
          <mxGeometry x="68.8" y="19.111111111111114" width="34.4" height="19.111111111111114" as="geometry" />
        </mxCell>
        <mxCell id="ei4XDJJB2DjugkBJXN4E-304" value="" style="rounded=0;whiteSpace=wrap;html=1;strokeColor=default;" parent="ei4XDJJB2DjugkBJXN4E-296" vertex="1">
          <mxGeometry x="137.6" y="19.111111111111114" width="68.8" height="19.111111111111114" as="geometry" />
        </mxCell>
        <mxCell id="ei4XDJJB2DjugkBJXN4E-305" value="•••" style="text;html=1;strokeColor=none;fillColor=none;align=center;verticalAlign=middle;whiteSpace=wrap;rounded=0;" parent="ei4XDJJB2DjugkBJXN4E-296" vertex="1">
          <mxGeometry x="206.4" y="19.111111111111114" width="34.4" height="19.111111111111114" as="geometry" />
        </mxCell>
        <mxCell id="ei4XDJJB2DjugkBJXN4E-306" value="-0.4" style="rounded=0;whiteSpace=wrap;html=1;strokeColor=default;" parent="ei4XDJJB2DjugkBJXN4E-296" vertex="1">
          <mxGeometry x="137.6" y="19.111111111111114" width="34.4" height="19.111111111111114" as="geometry" />
        </mxCell>
        <mxCell id="ei4XDJJB2DjugkBJXN4E-307" value="-0.37" style="rounded=0;whiteSpace=wrap;html=1;strokeColor=default;" parent="ei4XDJJB2DjugkBJXN4E-296" vertex="1">
          <mxGeometry x="172" y="19.111111111111114" width="34.4" height="19.111111111111114" as="geometry" />
        </mxCell>
        <mxCell id="ei4XDJJB2DjugkBJXN4E-308" value="0" style="rounded=0;whiteSpace=wrap;html=1;strokeColor=default;" parent="ei4XDJJB2DjugkBJXN4E-292" vertex="1">
          <mxGeometry y="28.666666666666664" width="34.4" height="19.11111111111111" as="geometry" />
        </mxCell>
        <mxCell id="ei4XDJJB2DjugkBJXN4E-309" value="0" style="rounded=0;whiteSpace=wrap;html=1;strokeColor=default;" parent="ei4XDJJB2DjugkBJXN4E-292" vertex="1">
          <mxGeometry x="34.4" y="28.666666666666664" width="34.4" height="19.11111111111111" as="geometry" />
        </mxCell>
        <mxCell id="ei4XDJJB2DjugkBJXN4E-310" value="-0.13" style="rounded=0;whiteSpace=wrap;html=1;strokeColor=default;" parent="ei4XDJJB2DjugkBJXN4E-292" vertex="1">
          <mxGeometry x="103.2" y="28.666666666666664" width="34.4" height="19.11111111111111" as="geometry" />
        </mxCell>
        <mxCell id="ei4XDJJB2DjugkBJXN4E-311" value="0.545" style="rounded=0;whiteSpace=wrap;html=1;strokeColor=default;" parent="ei4XDJJB2DjugkBJXN4E-292" vertex="1">
          <mxGeometry x="240.8" y="28.666666666666664" width="34.4" height="19.11111111111111" as="geometry" />
        </mxCell>
        <mxCell id="ei4XDJJB2DjugkBJXN4E-312" value="-1" style="rounded=0;whiteSpace=wrap;html=1;strokeColor=default;" parent="ei4XDJJB2DjugkBJXN4E-292" vertex="1">
          <mxGeometry x="275.2" y="28.666666666666664" width="34.4" height="19.11111111111111" as="geometry" />
        </mxCell>
        <mxCell id="ei4XDJJB2DjugkBJXN4E-313" value="4" style="ellipse;whiteSpace=wrap;html=1;aspect=fixed;strokeColor=default;fontStyle=1;strokeWidth=2;" parent="ei4XDJJB2DjugkBJXN4E-291" vertex="1">
          <mxGeometry width="14.156493506493508" height="14.156493506493508" as="geometry" />
        </mxCell>
        <mxCell id="ei4XDJJB2DjugkBJXN4E-314" value="Нормализованные координаты" style="text;html=1;strokeColor=none;fillColor=none;align=left;verticalAlign=middle;whiteSpace=wrap;rounded=0;fontStyle=1" parent="ei4XDJJB2DjugkBJXN4E-291" vertex="1">
          <mxGeometry x="17.2" width="292.40000000000003" height="19.111111111111107" as="geometry" />
        </mxCell>
        <mxCell id="ei4XDJJB2DjugkBJXN4E-315" value="" style="group" parent="ei4XDJJB2DjugkBJXN4E-271" vertex="1" connectable="0">
          <mxGeometry x="25.8" y="19.111111111111107" width="309.6" height="66.88888888888889" as="geometry" />
        </mxCell>
        <mxCell id="ei4XDJJB2DjugkBJXN4E-316" value="" style="group" parent="ei4XDJJB2DjugkBJXN4E-315" vertex="1" connectable="0">
          <mxGeometry y="9.555555555555554" width="309.6" height="57.33333333333333" as="geometry" />
        </mxCell>
        <mxCell id="ei4XDJJB2DjugkBJXN4E-317" value="" style="rounded=0;whiteSpace=wrap;html=1;snapToPoint=1;allowArrows=1;perimeter=rectanglePerimeter;container=0;" parent="ei4XDJJB2DjugkBJXN4E-316" vertex="1">
          <mxGeometry y="9.555555555555555" width="309.6" height="38.22222222222222" as="geometry" />
        </mxCell>
        <mxCell id="ei4XDJJB2DjugkBJXN4E-318" value="" style="rounded=0;whiteSpace=wrap;html=1;fillColor=#dae8fc;strokeColor=#6c8ebf;" parent="ei4XDJJB2DjugkBJXN4E-316" vertex="1">
          <mxGeometry y="9.555555555555555" width="309.6" height="19.11111111111111" as="geometry" />
        </mxCell>
        <mxCell id="ei4XDJJB2DjugkBJXN4E-319" value="[551, 465]" style="rounded=0;whiteSpace=wrap;html=1;strokeColor=default;" parent="ei4XDJJB2DjugkBJXN4E-316" vertex="1">
          <mxGeometry y="28.666666666666664" width="68.8" height="19.11111111111111" as="geometry" />
        </mxCell>
        <mxCell id="ei4XDJJB2DjugkBJXN4E-320" value="[702, 188]" style="text;html=1;strokeColor=default;fillColor=none;align=center;verticalAlign=middle;whiteSpace=wrap;rounded=0;" parent="ei4XDJJB2DjugkBJXN4E-316" vertex="1">
          <mxGeometry x="240.8" y="28.666666666666664" width="68.8" height="19.11111111111111" as="geometry" />
        </mxCell>
        <mxCell id="ei4XDJJB2DjugkBJXN4E-321" value="" style="group" parent="ei4XDJJB2DjugkBJXN4E-316" vertex="1" connectable="0">
          <mxGeometry y="-9.555555555555555" width="309.6" height="66.8888888888889" as="geometry" />
        </mxCell>
        <mxCell id="ei4XDJJB2DjugkBJXN4E-322" value="" style="group" parent="ei4XDJJB2DjugkBJXN4E-321" vertex="1" connectable="0">
          <mxGeometry y="19.111111111111114" width="309.6" height="47.77777777777779" as="geometry" />
        </mxCell>
        <mxCell id="ei4XDJJB2DjugkBJXN4E-323" value="" style="group" parent="ei4XDJJB2DjugkBJXN4E-322" vertex="1" connectable="0">
          <mxGeometry width="309.6" height="47.77777777777779" as="geometry" />
        </mxCell>
        <mxCell id="ei4XDJJB2DjugkBJXN4E-324" value="ID: 0" style="text;html=1;strokeColor=default;fillColor=none;align=center;verticalAlign=middle;whiteSpace=wrap;rounded=0;" parent="ei4XDJJB2DjugkBJXN4E-323" vertex="1">
          <mxGeometry width="68.8" height="19.111111111111118" as="geometry" />
        </mxCell>
        <mxCell id="ei4XDJJB2DjugkBJXN4E-325" value="ID: 1" style="text;html=1;strokeColor=default;fillColor=none;align=center;verticalAlign=middle;whiteSpace=wrap;rounded=0;" parent="ei4XDJJB2DjugkBJXN4E-323" vertex="1">
          <mxGeometry x="68.8" width="68.8" height="19.111111111111118" as="geometry" />
        </mxCell>
        <mxCell id="ei4XDJJB2DjugkBJXN4E-326" value="ID: 2" style="text;html=1;strokeColor=default;fillColor=none;align=center;verticalAlign=middle;whiteSpace=wrap;rounded=0;" parent="ei4XDJJB2DjugkBJXN4E-323" vertex="1">
          <mxGeometry x="137.6" width="68.8" height="19.111111111111118" as="geometry" />
        </mxCell>
        <mxCell id="ei4XDJJB2DjugkBJXN4E-327" value="ID: 20" style="text;html=1;strokeColor=default;fillColor=none;align=center;verticalAlign=middle;whiteSpace=wrap;rounded=0;" parent="ei4XDJJB2DjugkBJXN4E-323" vertex="1">
          <mxGeometry x="240.8" width="68.8" height="19.111111111111118" as="geometry" />
        </mxCell>
        <mxCell id="ei4XDJJB2DjugkBJXN4E-328" value="•••" style="text;html=1;strokeColor=default;fillColor=none;align=center;verticalAlign=middle;whiteSpace=wrap;rounded=0;" parent="ei4XDJJB2DjugkBJXN4E-323" vertex="1">
          <mxGeometry x="206.4" width="34.4" height="19.111111111111118" as="geometry" />
        </mxCell>
        <mxCell id="ei4XDJJB2DjugkBJXN4E-329" value="[485, 428]" style="rounded=0;whiteSpace=wrap;html=1;strokeColor=default;" parent="ei4XDJJB2DjugkBJXN4E-323" vertex="1">
          <mxGeometry x="68.8" y="19.111111111111118" width="68.8" height="19.111111111111118" as="geometry" />
        </mxCell>
        <mxCell id="ei4XDJJB2DjugkBJXN4E-330" value="[439, 362]" style="rounded=0;whiteSpace=wrap;html=1;strokeColor=default;" parent="ei4XDJJB2DjugkBJXN4E-323" vertex="1">
          <mxGeometry x="137.6" y="19.111111111111118" width="68.8" height="19.111111111111118" as="geometry" />
        </mxCell>
        <mxCell id="ei4XDJJB2DjugkBJXN4E-331" value="•••" style="text;html=1;strokeColor=none;fillColor=none;align=center;verticalAlign=middle;whiteSpace=wrap;rounded=0;" parent="ei4XDJJB2DjugkBJXN4E-323" vertex="1">
          <mxGeometry x="206.4" y="19.111111111111118" width="34.4" height="19.111111111111118" as="geometry" />
        </mxCell>
        <mxCell id="ei4XDJJB2DjugkBJXN4E-332" value="1" style="ellipse;whiteSpace=wrap;html=1;aspect=fixed;strokeColor=default;fontStyle=1;strokeWidth=2;" parent="ei4XDJJB2DjugkBJXN4E-321" vertex="1">
          <mxGeometry width="14.156493506493508" height="14.156493506493508" as="geometry" />
        </mxCell>
        <mxCell id="ei4XDJJB2DjugkBJXN4E-333" value="Исходные координаты точек" style="text;html=1;strokeColor=none;fillColor=none;align=left;verticalAlign=middle;whiteSpace=wrap;rounded=0;fontStyle=1" parent="ei4XDJJB2DjugkBJXN4E-315" vertex="1">
          <mxGeometry x="17.2" width="292.40000000000003" height="19.111111111111107" as="geometry" />
        </mxCell>
        <mxCell id="ei4XDJJB2DjugkBJXN4E-334" value="" style="group" parent="ei4XDJJB2DjugkBJXN4E-271" vertex="1" connectable="0">
          <mxGeometry x="25.8" y="191.11111111111111" width="309.6" height="66.88888888888889" as="geometry" />
        </mxCell>
        <mxCell id="ei4XDJJB2DjugkBJXN4E-335" value="" style="group" parent="ei4XDJJB2DjugkBJXN4E-334" vertex="1" connectable="0">
          <mxGeometry y="9.555555555555554" width="309.6" height="57.33333333333333" as="geometry" />
        </mxCell>
        <mxCell id="ei4XDJJB2DjugkBJXN4E-336" value="" style="rounded=0;whiteSpace=wrap;html=1;snapToPoint=1;allowArrows=1;perimeter=rectanglePerimeter;container=0;" parent="ei4XDJJB2DjugkBJXN4E-335" vertex="1">
          <mxGeometry y="9.555555555555555" width="309.6" height="38.22222222222222" as="geometry" />
        </mxCell>
        <mxCell id="ei4XDJJB2DjugkBJXN4E-337" value="" style="rounded=0;whiteSpace=wrap;html=1;fillColor=#dae8fc;strokeColor=#6c8ebf;" parent="ei4XDJJB2DjugkBJXN4E-335" vertex="1">
          <mxGeometry y="9.555555555555555" width="309.6" height="19.11111111111111" as="geometry" />
        </mxCell>
        <mxCell id="ei4XDJJB2DjugkBJXN4E-338" value="0" style="rounded=0;whiteSpace=wrap;html=1;strokeColor=default;" parent="ei4XDJJB2DjugkBJXN4E-335" vertex="1">
          <mxGeometry y="28.666666666666664" width="34.4" height="19.11111111111111" as="geometry" />
        </mxCell>
        <mxCell id="ei4XDJJB2DjugkBJXN4E-339" value="0" style="rounded=0;whiteSpace=wrap;html=1;strokeColor=default;" parent="ei4XDJJB2DjugkBJXN4E-335" vertex="1">
          <mxGeometry x="34.4" y="28.666666666666664" width="34.4" height="19.11111111111111" as="geometry" />
        </mxCell>
        <mxCell id="ei4XDJJB2DjugkBJXN4E-340" value="-37" style="rounded=0;whiteSpace=wrap;html=1;strokeColor=default;" parent="ei4XDJJB2DjugkBJXN4E-335" vertex="1">
          <mxGeometry x="103.2" y="28.666666666666664" width="34.4" height="19.11111111111111" as="geometry" />
        </mxCell>
        <mxCell id="ei4XDJJB2DjugkBJXN4E-341" value="151" style="rounded=0;whiteSpace=wrap;html=1;strokeColor=default;" parent="ei4XDJJB2DjugkBJXN4E-335" vertex="1">
          <mxGeometry x="240.8" y="28.666666666666664" width="34.4" height="19.11111111111111" as="geometry" />
        </mxCell>
        <mxCell id="ei4XDJJB2DjugkBJXN4E-342" value="-277" style="rounded=0;whiteSpace=wrap;html=1;strokeColor=default;" parent="ei4XDJJB2DjugkBJXN4E-335" vertex="1">
          <mxGeometry x="275.2" y="28.666666666666664" width="34.4" height="19.11111111111111" as="geometry" />
        </mxCell>
        <mxCell id="ei4XDJJB2DjugkBJXN4E-343" value="" style="group" parent="ei4XDJJB2DjugkBJXN4E-335" vertex="1" connectable="0">
          <mxGeometry y="-9.555555555555555" width="309.6" height="66.8888888888889" as="geometry" />
        </mxCell>
        <mxCell id="ei4XDJJB2DjugkBJXN4E-344" value="" style="group" parent="ei4XDJJB2DjugkBJXN4E-343" vertex="1" connectable="0">
          <mxGeometry y="19.111111111111114" width="309.6" height="47.77777777777779" as="geometry" />
        </mxCell>
        <mxCell id="ei4XDJJB2DjugkBJXN4E-345" value="" style="group" parent="ei4XDJJB2DjugkBJXN4E-344" vertex="1" connectable="0">
          <mxGeometry width="309.6" height="47.77777777777779" as="geometry" />
        </mxCell>
        <mxCell id="ei4XDJJB2DjugkBJXN4E-346" value="ID: 0" style="text;html=1;strokeColor=default;fillColor=none;align=center;verticalAlign=middle;whiteSpace=wrap;rounded=0;" parent="ei4XDJJB2DjugkBJXN4E-345" vertex="1">
          <mxGeometry width="68.8" height="19.111111111111118" as="geometry" />
        </mxCell>
        <mxCell id="ei4XDJJB2DjugkBJXN4E-347" value="ID: 1" style="text;html=1;strokeColor=default;fillColor=none;align=center;verticalAlign=middle;whiteSpace=wrap;rounded=0;" parent="ei4XDJJB2DjugkBJXN4E-345" vertex="1">
          <mxGeometry x="68.8" width="68.8" height="19.111111111111118" as="geometry" />
        </mxCell>
        <mxCell id="ei4XDJJB2DjugkBJXN4E-348" value="ID: 2" style="text;html=1;strokeColor=default;fillColor=none;align=center;verticalAlign=middle;whiteSpace=wrap;rounded=0;" parent="ei4XDJJB2DjugkBJXN4E-345" vertex="1">
          <mxGeometry x="137.6" width="68.8" height="19.111111111111118" as="geometry" />
        </mxCell>
        <mxCell id="ei4XDJJB2DjugkBJXN4E-349" value="ID: 20" style="text;html=1;strokeColor=default;fillColor=none;align=center;verticalAlign=middle;whiteSpace=wrap;rounded=0;" parent="ei4XDJJB2DjugkBJXN4E-345" vertex="1">
          <mxGeometry x="240.8" width="68.8" height="19.111111111111118" as="geometry" />
        </mxCell>
        <mxCell id="ei4XDJJB2DjugkBJXN4E-350" value="•••" style="text;html=1;strokeColor=default;fillColor=none;align=center;verticalAlign=middle;whiteSpace=wrap;rounded=0;" parent="ei4XDJJB2DjugkBJXN4E-345" vertex="1">
          <mxGeometry x="206.4" width="34.4" height="19.111111111111118" as="geometry" />
        </mxCell>
        <mxCell id="ei4XDJJB2DjugkBJXN4E-351" value="-66" style="rounded=0;whiteSpace=wrap;html=1;strokeColor=default;" parent="ei4XDJJB2DjugkBJXN4E-345" vertex="1">
          <mxGeometry x="68.8" y="19.111111111111118" width="34.4" height="19.111111111111118" as="geometry" />
        </mxCell>
        <mxCell id="ei4XDJJB2DjugkBJXN4E-352" value="" style="rounded=0;whiteSpace=wrap;html=1;strokeColor=default;" parent="ei4XDJJB2DjugkBJXN4E-345" vertex="1">
          <mxGeometry x="137.6" y="19.111111111111118" width="68.8" height="19.111111111111118" as="geometry" />
        </mxCell>
        <mxCell id="ei4XDJJB2DjugkBJXN4E-353" value="•••" style="text;html=1;strokeColor=none;fillColor=none;align=center;verticalAlign=middle;whiteSpace=wrap;rounded=0;" parent="ei4XDJJB2DjugkBJXN4E-345" vertex="1">
          <mxGeometry x="206.4" y="19.111111111111118" width="34.4" height="19.111111111111118" as="geometry" />
        </mxCell>
        <mxCell id="ei4XDJJB2DjugkBJXN4E-354" value="-112" style="rounded=0;whiteSpace=wrap;html=1;strokeColor=default;" parent="ei4XDJJB2DjugkBJXN4E-345" vertex="1">
          <mxGeometry x="137.6" y="19.111111111111118" width="34.4" height="19.111111111111118" as="geometry" />
        </mxCell>
        <mxCell id="ei4XDJJB2DjugkBJXN4E-355" value="-103" style="rounded=0;whiteSpace=wrap;html=1;strokeColor=default;" parent="ei4XDJJB2DjugkBJXN4E-345" vertex="1">
          <mxGeometry x="172" y="19.111111111111118" width="34.4" height="19.111111111111118" as="geometry" />
        </mxCell>
        <mxCell id="ei4XDJJB2DjugkBJXN4E-356" value="3" style="ellipse;whiteSpace=wrap;html=1;aspect=fixed;strokeColor=default;fontStyle=1;strokeWidth=2;" parent="ei4XDJJB2DjugkBJXN4E-343" vertex="1">
          <mxGeometry width="14.156493506493508" height="14.156493506493508" as="geometry" />
        </mxCell>
        <mxCell id="ei4XDJJB2DjugkBJXN4E-357" value="Преобразование к массиву одной размерности" style="text;html=1;strokeColor=none;fillColor=none;align=left;verticalAlign=middle;whiteSpace=wrap;rounded=0;fontStyle=1" parent="ei4XDJJB2DjugkBJXN4E-334" vertex="1">
          <mxGeometry x="17.2" width="292.40000000000003" height="19.111111111111107" as="geometry" />
        </mxCell>
        <mxCell id="ei4XDJJB2DjugkBJXN4E-358" style="edgeStyle=orthogonalEdgeStyle;rounded=0;orthogonalLoop=1;jettySize=auto;html=1;exitX=0;exitY=0;exitDx=0;exitDy=0;entryX=0;entryY=0;entryDx=0;entryDy=0;strokeWidth=2;endSize=6;startSize=6;jumpSize=6;shadow=0;" parent="ei4XDJJB2DjugkBJXN4E-271" source="ei4XDJJB2DjugkBJXN4E-332" target="ei4XDJJB2DjugkBJXN4E-289" edge="1">
          <mxGeometry relative="1" as="geometry">
            <Array as="points">
              <mxPoint x="8.6" y="21.977777777777778" />
              <mxPoint x="8.6" y="107.97777777777776" />
            </Array>
          </mxGeometry>
        </mxCell>
        <mxCell id="ei4XDJJB2DjugkBJXN4E-359" style="edgeStyle=orthogonalEdgeStyle;rounded=0;orthogonalLoop=1;jettySize=auto;html=1;exitX=0;exitY=0.5;exitDx=0;exitDy=0;entryX=0;entryY=0;entryDx=0;entryDy=0;strokeWidth=2;" parent="ei4XDJJB2DjugkBJXN4E-271" source="ei4XDJJB2DjugkBJXN4E-289" target="ei4XDJJB2DjugkBJXN4E-356" edge="1">
          <mxGeometry relative="1" as="geometry">
            <Array as="points">
              <mxPoint x="8.6" y="114.66666666666666" />
              <mxPoint x="8.6" y="193.97777777777776" />
            </Array>
          </mxGeometry>
        </mxCell>
        <mxCell id="ei4XDJJB2DjugkBJXN4E-360" style="edgeStyle=orthogonalEdgeStyle;rounded=0;orthogonalLoop=1;jettySize=auto;html=1;exitX=0;exitY=0.5;exitDx=0;exitDy=0;entryX=0;entryY=0;entryDx=0;entryDy=0;strokeWidth=2;" parent="ei4XDJJB2DjugkBJXN4E-271" source="ei4XDJJB2DjugkBJXN4E-356" target="ei4XDJJB2DjugkBJXN4E-313" edge="1">
          <mxGeometry relative="1" as="geometry">
            <Array as="points">
              <mxPoint x="8.6" y="200.66666666666666" />
              <mxPoint x="8.6" y="279.97777777777776" />
            </Array>
          </mxGeometry>
        </mxCell>
        <mxCell id="ei4XDJJB2DjugkBJXN4E-361" value="•••" style="text;html=1;strokeColor=none;fillColor=#fad9d5;align=center;verticalAlign=middle;whiteSpace=wrap;rounded=0;fontSize=50;labelBorderColor=none;" parent="uaP6zwDsvVWyuOUaEy8a-1" vertex="1">
          <mxGeometry x="1655.5" y="774" width="86" height="344" as="geometry" />
        </mxCell>
        <mxCell id="ei4XDJJB2DjugkBJXN4E-362" value="" style="rounded=0;whiteSpace=wrap;html=1;labelBorderColor=none;fontSize=50;strokeColor=default;strokeWidth=5;fillColor=none;" parent="uaP6zwDsvVWyuOUaEy8a-1" vertex="1">
          <mxGeometry x="64.5" y="172" width="2236" height="258" as="geometry" />
        </mxCell>
        <mxCell id="ei4XDJJB2DjugkBJXN4E-369" style="edgeStyle=orthogonalEdgeStyle;rounded=0;sketch=0;jumpSize=6;orthogonalLoop=1;jettySize=auto;html=1;exitX=0.5;exitY=1;exitDx=0;exitDy=0;entryX=0.5;entryY=0;entryDx=0;entryDy=0;shadow=0;fontSize=50;startSize=6;endSize=15;strokeWidth=7;" parent="uaP6zwDsvVWyuOUaEy8a-1" target="ei4XDJJB2DjugkBJXN4E-2" edge="1">
          <mxGeometry relative="1" as="geometry">
            <mxPoint x="322.5" y="430" as="sourcePoint" />
          </mxGeometry>
        </mxCell>
        <mxCell id="ei4XDJJB2DjugkBJXN4E-371" style="edgeStyle=orthogonalEdgeStyle;rounded=0;sketch=0;jumpSize=6;orthogonalLoop=1;jettySize=auto;html=1;exitX=0.5;exitY=1;exitDx=0;exitDy=0;entryX=0.5;entryY=0;entryDx=0;entryDy=0;shadow=0;fontSize=50;startSize=6;endSize=15;strokeWidth=8;" parent="uaP6zwDsvVWyuOUaEy8a-1" target="ei4XDJJB2DjugkBJXN4E-92" edge="1">
          <mxGeometry relative="1" as="geometry">
            <mxPoint x="838.5" y="430" as="sourcePoint" />
          </mxGeometry>
        </mxCell>
        <mxCell id="ei4XDJJB2DjugkBJXN4E-372" style="edgeStyle=orthogonalEdgeStyle;rounded=0;sketch=0;jumpSize=6;orthogonalLoop=1;jettySize=auto;html=1;exitX=0.5;exitY=1;exitDx=0;exitDy=0;entryX=0.5;entryY=0;entryDx=0;entryDy=0;shadow=0;fontSize=50;startSize=6;endSize=15;strokeWidth=8;" parent="uaP6zwDsvVWyuOUaEy8a-1" target="ei4XDJJB2DjugkBJXN4E-182" edge="1">
          <mxGeometry relative="1" as="geometry">
            <mxPoint x="1354.5" y="430" as="sourcePoint" />
          </mxGeometry>
        </mxCell>
        <mxCell id="ei4XDJJB2DjugkBJXN4E-373" style="edgeStyle=orthogonalEdgeStyle;rounded=0;sketch=0;jumpSize=6;orthogonalLoop=1;jettySize=auto;html=1;entryX=0.5;entryY=0;entryDx=0;entryDy=0;shadow=0;fontSize=50;startSize=6;endSize=15;strokeWidth=8;jumpStyle=arc;" parent="uaP6zwDsvVWyuOUaEy8a-1" target="ei4XDJJB2DjugkBJXN4E-272" edge="1">
          <mxGeometry relative="1" as="geometry">
            <mxPoint x="2042.5" y="430" as="sourcePoint" />
          </mxGeometry>
        </mxCell>
        <mxCell id="ei4XDJJB2DjugkBJXN4E-367" value="•••" style="text;html=1;strokeColor=#000000;fillColor=#d5e8d4;align=center;verticalAlign=middle;whiteSpace=wrap;rounded=0;labelBorderColor=none;fontSize=50;strokeWidth=5;" parent="uaP6zwDsvVWyuOUaEy8a-1" vertex="1">
          <mxGeometry x="1612.5" y="172" width="172" height="86" as="geometry" />
        </mxCell>
        <mxCell id="ei4XDJJB2DjugkBJXN4E-374" value="1 кадр" style="text;html=1;strokeColor=default;fillColor=#d5e8d4;align=center;verticalAlign=middle;whiteSpace=wrap;rounded=0;labelBorderColor=none;fontSize=50;strokeWidth=5;perimeterSpacing=5;shadow=0;glass=0;" parent="uaP6zwDsvVWyuOUaEy8a-1" vertex="1">
          <mxGeometry x="64.5" y="172" width="516" height="86" as="geometry" />
        </mxCell>
        <mxCell id="ei4XDJJB2DjugkBJXN4E-375" value="ID: 0" style="text;html=1;strokeColor=#000000;fillColor=#dae8fc;align=center;verticalAlign=middle;whiteSpace=wrap;rounded=0;labelBorderColor=none;fontSize=45;strokeWidth=5;" parent="uaP6zwDsvVWyuOUaEy8a-1" vertex="1">
          <mxGeometry x="64.5" y="258" width="215" height="86" as="geometry" />
        </mxCell>
        <mxCell id="ei4XDJJB2DjugkBJXN4E-377" value="ID: 20" style="text;html=1;strokeColor=#000000;fillColor=#dae8fc;align=center;verticalAlign=middle;whiteSpace=wrap;rounded=0;labelBorderColor=none;fontSize=45;strokeWidth=5;" parent="uaP6zwDsvVWyuOUaEy8a-1" vertex="1">
          <mxGeometry x="365.5" y="258" width="215" height="86" as="geometry" />
        </mxCell>
        <mxCell id="ei4XDJJB2DjugkBJXN4E-378" value="•••" style="text;html=1;strokeColor=#000000;fillColor=#dae8fc;align=center;verticalAlign=middle;whiteSpace=wrap;rounded=0;labelBorderColor=none;fontSize=45;strokeWidth=5;" parent="uaP6zwDsvVWyuOUaEy8a-1" vertex="1">
          <mxGeometry x="279.5" y="258" width="86" height="86" as="geometry" />
        </mxCell>
        <mxCell id="ei4XDJJB2DjugkBJXN4E-396" value="&lt;font style=&quot;font-size: 37px;&quot;&gt;[551, 465]&lt;/font&gt;" style="text;html=1;strokeColor=#000000;fillColor=default;align=center;verticalAlign=middle;whiteSpace=wrap;rounded=0;labelBorderColor=none;fontSize=50;strokeWidth=5;" parent="uaP6zwDsvVWyuOUaEy8a-1" vertex="1">
          <mxGeometry x="64.5" y="344" width="215" height="86" as="geometry" />
        </mxCell>
        <mxCell id="ei4XDJJB2DjugkBJXN4E-397" value="&lt;font style=&quot;font-size: 37px;&quot;&gt;[702, 188]&lt;/font&gt;" style="text;html=1;strokeColor=#000000;fillColor=default;align=center;verticalAlign=middle;whiteSpace=wrap;rounded=0;labelBorderColor=none;fontSize=50;strokeWidth=5;" parent="uaP6zwDsvVWyuOUaEy8a-1" vertex="1">
          <mxGeometry x="365.5" y="344" width="215" height="86" as="geometry" />
        </mxCell>
        <mxCell id="ei4XDJJB2DjugkBJXN4E-398" value="•••" style="text;html=1;strokeColor=#000000;fillColor=default;align=center;verticalAlign=middle;whiteSpace=wrap;rounded=0;labelBorderColor=none;fontSize=37;strokeWidth=5;" parent="uaP6zwDsvVWyuOUaEy8a-1" vertex="1">
          <mxGeometry x="279.5" y="344" width="86" height="86" as="geometry" />
        </mxCell>
        <mxCell id="ei4XDJJB2DjugkBJXN4E-399" value="2 кадр" style="text;html=1;strokeColor=#000000;fillColor=#d5e8d4;align=center;verticalAlign=middle;whiteSpace=wrap;rounded=0;labelBorderColor=none;fontSize=50;strokeWidth=5;" parent="uaP6zwDsvVWyuOUaEy8a-1" vertex="1">
          <mxGeometry x="580.5" y="172" width="516" height="86" as="geometry" />
        </mxCell>
        <mxCell id="ei4XDJJB2DjugkBJXN4E-400" value="ID: 0" style="text;html=1;strokeColor=#000000;fillColor=#dae8fc;align=center;verticalAlign=middle;whiteSpace=wrap;rounded=0;labelBorderColor=none;fontSize=45;strokeWidth=5;" parent="uaP6zwDsvVWyuOUaEy8a-1" vertex="1">
          <mxGeometry x="580.5" y="258" width="215" height="86" as="geometry" />
        </mxCell>
        <mxCell id="ei4XDJJB2DjugkBJXN4E-401" value="ID: 20" style="text;html=1;strokeColor=#000000;fillColor=#dae8fc;align=center;verticalAlign=middle;whiteSpace=wrap;rounded=0;labelBorderColor=none;fontSize=45;strokeWidth=5;" parent="uaP6zwDsvVWyuOUaEy8a-1" vertex="1">
          <mxGeometry x="881.5" y="258" width="215" height="86" as="geometry" />
        </mxCell>
        <mxCell id="ei4XDJJB2DjugkBJXN4E-402" value="•••" style="text;html=1;strokeColor=#000000;fillColor=#dae8fc;align=center;verticalAlign=middle;whiteSpace=wrap;rounded=0;labelBorderColor=none;fontSize=45;strokeWidth=5;" parent="uaP6zwDsvVWyuOUaEy8a-1" vertex="1">
          <mxGeometry x="795.5" y="258" width="86" height="86" as="geometry" />
        </mxCell>
        <mxCell id="ei4XDJJB2DjugkBJXN4E-403" value="&lt;font style=&quot;font-size: 37px;&quot;&gt;[485, 428]&lt;/font&gt;" style="text;html=1;strokeColor=#000000;fillColor=default;align=center;verticalAlign=middle;whiteSpace=wrap;rounded=0;labelBorderColor=none;fontSize=50;strokeWidth=5;" parent="uaP6zwDsvVWyuOUaEy8a-1" vertex="1">
          <mxGeometry x="580.5" y="344" width="215" height="86" as="geometry" />
        </mxCell>
        <mxCell id="ei4XDJJB2DjugkBJXN4E-404" value="&lt;font style=&quot;font-size: 37px;&quot;&gt;[439, 362]&lt;/font&gt;" style="text;html=1;strokeColor=#000000;fillColor=default;align=center;verticalAlign=middle;whiteSpace=wrap;rounded=0;labelBorderColor=none;fontSize=50;strokeWidth=5;" parent="uaP6zwDsvVWyuOUaEy8a-1" vertex="1">
          <mxGeometry x="881.5" y="344" width="215" height="86" as="geometry" />
        </mxCell>
        <mxCell id="ei4XDJJB2DjugkBJXN4E-405" value="•••" style="text;html=1;strokeColor=#000000;fillColor=default;align=center;verticalAlign=middle;whiteSpace=wrap;rounded=0;labelBorderColor=none;fontSize=37;strokeWidth=5;" parent="uaP6zwDsvVWyuOUaEy8a-1" vertex="1">
          <mxGeometry x="795.5" y="344" width="86" height="86" as="geometry" />
        </mxCell>
        <mxCell id="ei4XDJJB2DjugkBJXN4E-406" value="3 кадр" style="text;html=1;strokeColor=#000000;fillColor=#d5e8d4;align=center;verticalAlign=middle;whiteSpace=wrap;rounded=0;labelBorderColor=none;fontSize=50;strokeWidth=5;" parent="uaP6zwDsvVWyuOUaEy8a-1" vertex="1">
          <mxGeometry x="1096.5" y="172" width="516" height="86" as="geometry" />
        </mxCell>
        <mxCell id="ei4XDJJB2DjugkBJXN4E-407" value="ID: 0" style="text;html=1;strokeColor=#000000;fillColor=#dae8fc;align=center;verticalAlign=middle;whiteSpace=wrap;rounded=0;labelBorderColor=none;fontSize=45;strokeWidth=5;" parent="uaP6zwDsvVWyuOUaEy8a-1" vertex="1">
          <mxGeometry x="1096.5" y="258" width="215" height="86" as="geometry" />
        </mxCell>
        <mxCell id="ei4XDJJB2DjugkBJXN4E-408" value="ID: 20" style="text;html=1;strokeColor=#000000;fillColor=#dae8fc;align=center;verticalAlign=middle;whiteSpace=wrap;rounded=0;labelBorderColor=none;fontSize=45;strokeWidth=5;" parent="uaP6zwDsvVWyuOUaEy8a-1" vertex="1">
          <mxGeometry x="1397.5" y="258" width="215" height="86" as="geometry" />
        </mxCell>
        <mxCell id="ei4XDJJB2DjugkBJXN4E-409" value="•••" style="text;html=1;strokeColor=#000000;fillColor=#dae8fc;align=center;verticalAlign=middle;whiteSpace=wrap;rounded=0;labelBorderColor=none;fontSize=45;strokeWidth=5;" parent="uaP6zwDsvVWyuOUaEy8a-1" vertex="1">
          <mxGeometry x="1311.5" y="258" width="86" height="86" as="geometry" />
        </mxCell>
        <mxCell id="ei4XDJJB2DjugkBJXN4E-410" value="&lt;font style=&quot;font-size: 37px;&quot;&gt;[408, 307]&lt;/font&gt;" style="text;html=1;strokeColor=#000000;fillColor=default;align=center;verticalAlign=middle;whiteSpace=wrap;rounded=0;labelBorderColor=none;fontSize=50;strokeWidth=5;" parent="uaP6zwDsvVWyuOUaEy8a-1" vertex="1">
          <mxGeometry x="1096.5" y="344" width="215" height="86" as="geometry" />
        </mxCell>
        <mxCell id="ei4XDJJB2DjugkBJXN4E-411" value="&lt;font style=&quot;font-size: 37px;&quot;&gt;[633, 315]&lt;/font&gt;" style="text;html=1;strokeColor=#000000;fillColor=default;align=center;verticalAlign=middle;whiteSpace=wrap;rounded=0;labelBorderColor=none;fontSize=50;strokeWidth=5;" parent="uaP6zwDsvVWyuOUaEy8a-1" vertex="1">
          <mxGeometry x="1397.5" y="344" width="215" height="86" as="geometry" />
        </mxCell>
        <mxCell id="ei4XDJJB2DjugkBJXN4E-412" value="•••" style="text;html=1;strokeColor=#000000;fillColor=default;align=center;verticalAlign=middle;whiteSpace=wrap;rounded=0;labelBorderColor=none;fontSize=37;strokeWidth=5;" parent="uaP6zwDsvVWyuOUaEy8a-1" vertex="1">
          <mxGeometry x="1311.5" y="344" width="86" height="86" as="geometry" />
        </mxCell>
        <mxCell id="ei4XDJJB2DjugkBJXN4E-413" value="4 кадр" style="text;html=1;strokeColor=#000000;fillColor=#d5e8d4;align=center;verticalAlign=middle;whiteSpace=wrap;rounded=0;labelBorderColor=none;fontSize=50;strokeWidth=5;" parent="uaP6zwDsvVWyuOUaEy8a-1" vertex="1">
          <mxGeometry x="1784.5" y="172" width="516" height="86" as="geometry" />
        </mxCell>
        <mxCell id="ei4XDJJB2DjugkBJXN4E-414" value="ID: 0" style="text;html=1;strokeColor=#000000;fillColor=#dae8fc;align=center;verticalAlign=middle;whiteSpace=wrap;rounded=0;labelBorderColor=none;fontSize=45;strokeWidth=5;" parent="uaP6zwDsvVWyuOUaEy8a-1" vertex="1">
          <mxGeometry x="1784.5" y="258" width="215" height="86" as="geometry" />
        </mxCell>
        <mxCell id="ei4XDJJB2DjugkBJXN4E-415" value="ID: 20" style="text;html=1;strokeColor=#000000;fillColor=#dae8fc;align=center;verticalAlign=middle;whiteSpace=wrap;rounded=0;labelBorderColor=none;fontSize=45;strokeWidth=5;" parent="uaP6zwDsvVWyuOUaEy8a-1" vertex="1">
          <mxGeometry x="2085.5" y="258" width="215" height="86" as="geometry" />
        </mxCell>
        <mxCell id="ei4XDJJB2DjugkBJXN4E-416" value="•••" style="text;html=1;strokeColor=#000000;fillColor=#dae8fc;align=center;verticalAlign=middle;whiteSpace=wrap;rounded=0;labelBorderColor=none;fontSize=45;strokeWidth=5;" parent="uaP6zwDsvVWyuOUaEy8a-1" vertex="1">
          <mxGeometry x="1999.5" y="258" width="86" height="86" as="geometry" />
        </mxCell>
        <mxCell id="ei4XDJJB2DjugkBJXN4E-417" value="&lt;font style=&quot;font-size: 37px;&quot;&gt;[688, 261]&lt;/font&gt;" style="text;html=1;strokeColor=#000000;fillColor=default;align=center;verticalAlign=middle;whiteSpace=wrap;rounded=0;labelBorderColor=none;fontSize=50;strokeWidth=5;" parent="uaP6zwDsvVWyuOUaEy8a-1" vertex="1">
          <mxGeometry x="1784.5" y="344" width="215" height="86" as="geometry" />
        </mxCell>
        <mxCell id="ei4XDJJB2DjugkBJXN4E-418" value="&lt;font style=&quot;font-size: 37px;&quot;&gt;[687, 225]&lt;/font&gt;" style="text;html=1;strokeColor=#000000;fillColor=default;align=center;verticalAlign=middle;whiteSpace=wrap;rounded=0;labelBorderColor=none;fontSize=50;strokeWidth=5;" parent="uaP6zwDsvVWyuOUaEy8a-1" vertex="1">
          <mxGeometry x="2085.5" y="344" width="215" height="86" as="geometry" />
        </mxCell>
        <mxCell id="ei4XDJJB2DjugkBJXN4E-419" value="•••" style="text;html=1;strokeColor=#000000;fillColor=default;align=center;verticalAlign=middle;whiteSpace=wrap;rounded=0;labelBorderColor=none;fontSize=37;strokeWidth=5;" parent="uaP6zwDsvVWyuOUaEy8a-1" vertex="1">
          <mxGeometry x="1999.5" y="344" width="86" height="86" as="geometry" />
        </mxCell>
        <mxCell id="vQEVoECj0ROeTH8SETTA-1" value="•••" style="text;html=1;strokeColor=#000000;fillColor=#dae8fc;align=center;verticalAlign=middle;whiteSpace=wrap;rounded=0;labelBorderColor=none;fontSize=45;strokeWidth=5;" parent="uaP6zwDsvVWyuOUaEy8a-1" vertex="1">
          <mxGeometry x="1612.5" y="258" width="172" height="86" as="geometry" />
        </mxCell>
        <mxCell id="vQEVoECj0ROeTH8SETTA-2" value="•••" style="text;html=1;strokeColor=default;fillColor=default;align=center;verticalAlign=middle;whiteSpace=wrap;rounded=0;labelBorderColor=none;fontSize=37;strokeWidth=5;" parent="uaP6zwDsvVWyuOUaEy8a-1" vertex="1">
          <mxGeometry x="1612.5" y="344" width="172" height="86" as="geometry" />
        </mxCell>
        <mxCell id="vQEVoECj0ROeTH8SETTA-3" value="•••" style="text;html=1;strokeColor=#000000;fillColor=#d5e8d4;align=center;verticalAlign=middle;whiteSpace=wrap;rounded=0;labelBorderColor=none;fontSize=50;strokeWidth=5;" parent="uaP6zwDsvVWyuOUaEy8a-1" vertex="1">
          <mxGeometry x="2300.5" y="172" width="172" height="86" as="geometry" />
        </mxCell>
        <mxCell id="vQEVoECj0ROeTH8SETTA-4" value="•••" style="text;html=1;strokeColor=#000000;fillColor=#dae8fc;align=center;verticalAlign=middle;whiteSpace=wrap;rounded=0;labelBorderColor=none;fontSize=45;strokeWidth=5;" parent="uaP6zwDsvVWyuOUaEy8a-1" vertex="1">
          <mxGeometry x="2300.5" y="258" width="172" height="86" as="geometry" />
        </mxCell>
        <mxCell id="vQEVoECj0ROeTH8SETTA-5" value="•••" style="text;html=1;strokeColor=default;fillColor=default;align=center;verticalAlign=middle;whiteSpace=wrap;rounded=0;labelBorderColor=none;fontSize=37;strokeWidth=5;" parent="uaP6zwDsvVWyuOUaEy8a-1" vertex="1">
          <mxGeometry x="2300.5" y="344" width="172" height="86" as="geometry" />
        </mxCell>
        <mxCell id="ICjR6lyzN32xZvHr4_eY-13" style="edgeStyle=orthogonalEdgeStyle;rounded=1;sketch=0;jumpStyle=arc;jumpSize=6;orthogonalLoop=1;jettySize=auto;html=1;exitX=0.5;exitY=1;exitDx=0;exitDy=0;shadow=0;fontFamily=Helvetica;fontSize=37;startSize=6;endSize=15;strokeColor=default;strokeWidth=8;" parent="uaP6zwDsvVWyuOUaEy8a-1" source="vQEVoECj0ROeTH8SETTA-6" edge="1">
          <mxGeometry relative="1" as="geometry">
            <mxPoint x="1483.5" y="1634" as="targetPoint" />
            <Array as="points">
              <mxPoint x="2386.5" y="1419" />
              <mxPoint x="1483.5" y="1419" />
            </Array>
          </mxGeometry>
        </mxCell>
        <mxCell id="vQEVoECj0ROeTH8SETTA-6" value="•••" style="text;html=1;strokeColor=none;fillColor=#fad9d5;align=center;verticalAlign=middle;whiteSpace=wrap;rounded=0;fontSize=50;labelBorderColor=none;" parent="uaP6zwDsvVWyuOUaEy8a-1" vertex="1">
          <mxGeometry x="2343.5" y="774" width="86" height="344" as="geometry" />
        </mxCell>
        <mxCell id="vQEVoECj0ROeTH8SETTA-8" value="&lt;font style=&quot;font-size: 50px;&quot;&gt;1&lt;/font&gt;" style="ellipse;whiteSpace=wrap;html=1;aspect=fixed;strokeColor=default;fontStyle=1;strokeWidth=5;" parent="uaP6zwDsvVWyuOUaEy8a-1" vertex="1">
          <mxGeometry x="64.5" y="86" width="86" height="86" as="geometry" />
        </mxCell>
        <mxCell id="vQEVoECj0ROeTH8SETTA-9" value="Исходные массивы координат точек" style="text;html=1;align=left;verticalAlign=middle;whiteSpace=wrap;rounded=0;dashed=1;labelBorderColor=none;fontSize=50;labelBackgroundColor=default;fontStyle=1;fillColor=none;strokeColor=none;" parent="uaP6zwDsvVWyuOUaEy8a-1" vertex="1">
          <mxGeometry x="193.5" y="86" width="2279" height="86" as="geometry" />
        </mxCell>
        <mxCell id="vQEVoECj0ROeTH8SETTA-11" value="&lt;font style=&quot;font-size: 50px;&quot;&gt;2&lt;/font&gt;" style="ellipse;whiteSpace=wrap;html=1;aspect=fixed;strokeColor=default;fontStyle=1;strokeWidth=5;" parent="uaP6zwDsvVWyuOUaEy8a-1" vertex="1">
          <mxGeometry x="64.5" y="628" width="86" height="86" as="geometry" />
        </mxCell>
        <mxCell id="vQEVoECj0ROeTH8SETTA-10" value="Преобразования массивов" style="text;html=1;align=left;verticalAlign=middle;whiteSpace=wrap;rounded=0;dashed=1;labelBorderColor=none;fontSize=50;fillColor=none;labelBackgroundColor=default;fontFamily=Helvetica;fontStyle=1" parent="uaP6zwDsvVWyuOUaEy8a-1" vertex="1">
          <mxGeometry x="193.5" y="628" width="2279" height="86" as="geometry" />
        </mxCell>
        <mxCell id="ICjR6lyzN32xZvHr4_eY-4" value="" style="endArrow=classic;html=1;shadow=0;sketch=0;fontFamily=Helvetica;fontSize=37;startSize=6;endSize=15;strokeColor=default;strokeWidth=8;jumpStyle=arc;jumpSize=6;rounded=1;" parent="uaP6zwDsvVWyuOUaEy8a-1" edge="1">
          <mxGeometry width="50" height="50" relative="1" as="geometry">
            <mxPoint x="322.5" y="1118" as="sourcePoint" />
            <mxPoint x="1268.87" y="1634" as="targetPoint" />
            <Array as="points">
              <mxPoint x="322.87" y="1376" />
              <mxPoint x="1268.87" y="1376" />
            </Array>
          </mxGeometry>
        </mxCell>
        <mxCell id="ICjR6lyzN32xZvHr4_eY-5" value="" style="endArrow=classic;html=1;rounded=1;shadow=0;sketch=0;fontFamily=Helvetica;fontSize=37;startSize=6;endSize=15;strokeColor=#000000;strokeWidth=8;jumpStyle=arc;jumpSize=6;" parent="uaP6zwDsvVWyuOUaEy8a-1" edge="1">
          <mxGeometry width="50" height="50" relative="1" as="geometry">
            <mxPoint x="838.1300000000001" y="1118" as="sourcePoint" />
            <mxPoint x="1311.5" y="1634" as="targetPoint" />
            <Array as="points">
              <mxPoint x="838.5" y="1290" />
              <mxPoint x="1311.5" y="1290" />
            </Array>
          </mxGeometry>
        </mxCell>
        <mxCell id="ICjR6lyzN32xZvHr4_eY-6" value="" style="endArrow=classic;html=1;rounded=0;shadow=0;sketch=0;fontFamily=Helvetica;fontSize=37;startSize=6;endSize=15;strokeColor=#000000;strokeWidth=8;jumpStyle=arc;jumpSize=6;" parent="uaP6zwDsvVWyuOUaEy8a-1" edge="1">
          <mxGeometry width="50" height="50" relative="1" as="geometry">
            <mxPoint x="1354.13" y="1118" as="sourcePoint" />
            <mxPoint x="1354.5" y="1634" as="targetPoint" />
          </mxGeometry>
        </mxCell>
        <mxCell id="ICjR6lyzN32xZvHr4_eY-8" value="" style="endArrow=classic;html=1;rounded=1;shadow=0;sketch=0;fontFamily=Helvetica;fontSize=37;startSize=6;endSize=15;strokeColor=#000000;strokeWidth=8;jumpStyle=arc;jumpSize=6;" parent="uaP6zwDsvVWyuOUaEy8a-1" edge="1">
          <mxGeometry width="50" height="50" relative="1" as="geometry">
            <mxPoint x="2042.13" y="1118" as="sourcePoint" />
            <mxPoint x="1440.5" y="1634" as="targetPoint" />
            <Array as="points">
              <mxPoint x="2042.5" y="1376" />
              <mxPoint x="1440.5" y="1376" />
            </Array>
          </mxGeometry>
        </mxCell>
        <mxCell id="ICjR6lyzN32xZvHr4_eY-10" style="edgeStyle=orthogonalEdgeStyle;rounded=0;sketch=0;jumpSize=6;orthogonalLoop=1;jettySize=auto;html=1;entryX=0.5;entryY=0;entryDx=0;entryDy=0;shadow=0;fontSize=50;startSize=6;endSize=15;strokeWidth=8;jumpStyle=arc;" parent="uaP6zwDsvVWyuOUaEy8a-1" edge="1">
          <mxGeometry relative="1" as="geometry">
            <mxPoint x="1696.8300000000008" y="430" as="sourcePoint" />
            <mxPoint x="1696.8300000000008" y="774.0000000000005" as="targetPoint" />
          </mxGeometry>
        </mxCell>
        <mxCell id="ICjR6lyzN32xZvHr4_eY-11" style="edgeStyle=orthogonalEdgeStyle;rounded=0;sketch=0;jumpSize=6;orthogonalLoop=1;jettySize=auto;html=1;entryX=0.5;entryY=0;entryDx=0;entryDy=0;shadow=0;fontSize=50;startSize=6;endSize=15;strokeWidth=8;jumpStyle=arc;" parent="uaP6zwDsvVWyuOUaEy8a-1" edge="1">
          <mxGeometry relative="1" as="geometry">
            <mxPoint x="2384.830000000001" y="430" as="sourcePoint" />
            <mxPoint x="2384.830000000001" y="774.0000000000005" as="targetPoint" />
          </mxGeometry>
        </mxCell>
        <mxCell id="ICjR6lyzN32xZvHr4_eY-12" value="" style="endArrow=classic;html=1;rounded=1;shadow=0;sketch=0;fontFamily=Helvetica;fontSize=37;startSize=6;endSize=15;strokeColor=default;strokeWidth=8;jumpStyle=arc;jumpSize=6;exitX=0.5;exitY=1;exitDx=0;exitDy=0;" parent="uaP6zwDsvVWyuOUaEy8a-1" source="ei4XDJJB2DjugkBJXN4E-361" edge="1">
          <mxGeometry width="50" height="50" relative="1" as="geometry">
            <mxPoint x="1655.5" y="1297" as="sourcePoint" />
            <mxPoint x="1397.5" y="1634" as="targetPoint" />
            <Array as="points">
              <mxPoint x="1698.5" y="1333" />
              <mxPoint x="1397.5" y="1333" />
            </Array>
          </mxGeometry>
        </mxCell>
        <mxCell id="ICjR6lyzN32xZvHr4_eY-14" value="" style="rounded=0;whiteSpace=wrap;html=1;shadow=0;glass=0;labelBackgroundColor=default;labelBorderColor=none;fontFamily=Helvetica;fontSize=37;strokeColor=default;strokeWidth=5;fillColor=none;" parent="uaP6zwDsvVWyuOUaEy8a-1" vertex="1">
          <mxGeometry x="64.5" y="1634" width="2408" height="258" as="geometry" />
        </mxCell>
        <mxCell id="vhUVrHwWMQ6QW9J7ZPH3-1" value="&lt;font style=&quot;font-size: 50px;&quot;&gt;3&lt;/font&gt;" style="ellipse;whiteSpace=wrap;html=1;aspect=fixed;strokeColor=default;fontStyle=1;strokeWidth=5;" parent="uaP6zwDsvVWyuOUaEy8a-1" vertex="1">
          <mxGeometry x="64.5" y="1505" width="86" height="86" as="geometry" />
        </mxCell>
        <mxCell id="vhUVrHwWMQ6QW9J7ZPH3-2" value="Преобразование к массиву одной размерности (кратной 21)" style="text;html=1;align=left;verticalAlign=middle;whiteSpace=wrap;rounded=0;dashed=1;labelBorderColor=none;fontSize=50;fillColor=none;labelBackgroundColor=default;fontFamily=Helvetica;fontStyle=1" parent="uaP6zwDsvVWyuOUaEy8a-1" vertex="1">
          <mxGeometry x="193.5" y="1505" width="2279" height="86" as="geometry" />
        </mxCell>
        <mxCell id="vhUVrHwWMQ6QW9J7ZPH3-3" value="&lt;span style=&quot;font-size: 50px;&quot;&gt;&amp;nbsp;ID: 0&lt;/span&gt;" style="text;html=1;strokeColor=#000000;fillColor=#dae8fc;align=center;verticalAlign=middle;whiteSpace=wrap;rounded=0;shadow=0;glass=0;labelBackgroundColor=none;labelBorderColor=none;fontFamily=Helvetica;fontSize=37;strokeWidth=5;" parent="uaP6zwDsvVWyuOUaEy8a-1" vertex="1">
          <mxGeometry x="64.5" y="1634" width="258" height="129" as="geometry" />
        </mxCell>
        <mxCell id="vhUVrHwWMQ6QW9J7ZPH3-4" value="&lt;span style=&quot;font-size: 50px;&quot;&gt;•••&lt;/span&gt;" style="text;html=1;strokeColor=#000000;fillColor=#dae8fc;align=center;verticalAlign=middle;whiteSpace=wrap;rounded=0;shadow=0;glass=0;labelBackgroundColor=none;labelBorderColor=none;fontFamily=Helvetica;fontSize=37;strokeWidth=5;" parent="uaP6zwDsvVWyuOUaEy8a-1" vertex="1">
          <mxGeometry x="322.5" y="1634" width="86" height="129" as="geometry" />
        </mxCell>
        <mxCell id="vhUVrHwWMQ6QW9J7ZPH3-7" value="&lt;span style=&quot;font-size: 50px;&quot;&gt;0&lt;/span&gt;" style="text;html=1;strokeColor=#000000;fillColor=default;align=center;verticalAlign=middle;whiteSpace=wrap;rounded=0;shadow=0;glass=0;labelBackgroundColor=none;labelBorderColor=none;fontFamily=Helvetica;fontSize=37;strokeWidth=5;" parent="uaP6zwDsvVWyuOUaEy8a-1" vertex="1">
          <mxGeometry x="64.5" y="1763" width="129" height="129" as="geometry" />
        </mxCell>
        <mxCell id="vhUVrHwWMQ6QW9J7ZPH3-8" value="&lt;span style=&quot;font-size: 50px;&quot;&gt;0&lt;/span&gt;" style="text;html=1;strokeColor=#000000;fillColor=default;align=center;verticalAlign=middle;whiteSpace=wrap;rounded=0;shadow=0;glass=0;labelBackgroundColor=none;labelBorderColor=none;fontFamily=Helvetica;fontSize=37;strokeWidth=5;" parent="uaP6zwDsvVWyuOUaEy8a-1" vertex="1">
          <mxGeometry x="193.5" y="1763" width="129" height="129" as="geometry" />
        </mxCell>
        <mxCell id="vhUVrHwWMQ6QW9J7ZPH3-9" value="&lt;span style=&quot;font-size: 50px;&quot;&gt;•••&lt;/span&gt;" style="text;html=1;strokeColor=#000000;fillColor=default;align=center;verticalAlign=middle;whiteSpace=wrap;rounded=0;shadow=0;glass=0;labelBackgroundColor=none;labelBorderColor=none;fontFamily=Helvetica;fontSize=37;strokeWidth=5;" parent="uaP6zwDsvVWyuOUaEy8a-1" vertex="1">
          <mxGeometry x="322.5" y="1763" width="86" height="129" as="geometry" />
        </mxCell>
        <mxCell id="vhUVrHwWMQ6QW9J7ZPH3-17" value="&lt;span style=&quot;font-size: 50px;&quot;&gt;&amp;nbsp;ID: 0&lt;/span&gt;" style="text;html=1;strokeColor=#000000;fillColor=#dae8fc;align=center;verticalAlign=middle;whiteSpace=wrap;rounded=0;shadow=0;glass=0;labelBackgroundColor=none;labelBorderColor=none;fontFamily=Helvetica;fontSize=37;strokeWidth=5;" parent="uaP6zwDsvVWyuOUaEy8a-1" vertex="1">
          <mxGeometry x="408.5" y="1634" width="258" height="129" as="geometry" />
        </mxCell>
        <mxCell id="vhUVrHwWMQ6QW9J7ZPH3-18" value="&lt;span style=&quot;font-size: 50px;&quot;&gt;•••&lt;/span&gt;" style="text;html=1;strokeColor=#000000;fillColor=#dae8fc;align=center;verticalAlign=middle;whiteSpace=wrap;rounded=0;shadow=0;glass=0;labelBackgroundColor=none;labelBorderColor=none;fontFamily=Helvetica;fontSize=37;strokeWidth=5;" parent="uaP6zwDsvVWyuOUaEy8a-1" vertex="1">
          <mxGeometry x="666.5" y="1634" width="86" height="129" as="geometry" />
        </mxCell>
        <mxCell id="vhUVrHwWMQ6QW9J7ZPH3-19" value="&lt;span style=&quot;font-size: 50px;&quot;&gt;0&lt;/span&gt;" style="text;html=1;strokeColor=#000000;fillColor=default;align=center;verticalAlign=middle;whiteSpace=wrap;rounded=0;shadow=0;glass=0;labelBackgroundColor=none;labelBorderColor=none;fontFamily=Helvetica;fontSize=37;strokeWidth=5;" parent="uaP6zwDsvVWyuOUaEy8a-1" vertex="1">
          <mxGeometry x="408.5" y="1763" width="129" height="129" as="geometry" />
        </mxCell>
        <mxCell id="vhUVrHwWMQ6QW9J7ZPH3-20" value="&lt;span style=&quot;font-size: 50px;&quot;&gt;0&lt;/span&gt;" style="text;html=1;strokeColor=#000000;fillColor=default;align=center;verticalAlign=middle;whiteSpace=wrap;rounded=0;shadow=0;glass=0;labelBackgroundColor=none;labelBorderColor=none;fontFamily=Helvetica;fontSize=37;strokeWidth=5;" parent="uaP6zwDsvVWyuOUaEy8a-1" vertex="1">
          <mxGeometry x="537.5" y="1763" width="129" height="129" as="geometry" />
        </mxCell>
        <mxCell id="vhUVrHwWMQ6QW9J7ZPH3-21" value="&lt;span style=&quot;font-size: 50px;&quot;&gt;•••&lt;/span&gt;" style="text;html=1;strokeColor=#000000;fillColor=default;align=center;verticalAlign=middle;whiteSpace=wrap;rounded=0;shadow=0;glass=0;labelBackgroundColor=none;labelBorderColor=none;fontFamily=Helvetica;fontSize=37;strokeWidth=5;" parent="uaP6zwDsvVWyuOUaEy8a-1" vertex="1">
          <mxGeometry x="666.5" y="1763" width="86" height="129" as="geometry" />
        </mxCell>
        <mxCell id="vhUVrHwWMQ6QW9J7ZPH3-22" value="&lt;span style=&quot;font-size: 50px;&quot;&gt;&amp;nbsp;ID: 0&lt;/span&gt;" style="text;html=1;strokeColor=#000000;fillColor=#dae8fc;align=center;verticalAlign=middle;whiteSpace=wrap;rounded=0;shadow=0;glass=0;labelBackgroundColor=none;labelBorderColor=none;fontFamily=Helvetica;fontSize=37;strokeWidth=5;" parent="uaP6zwDsvVWyuOUaEy8a-1" vertex="1">
          <mxGeometry x="752.5" y="1634" width="258" height="129" as="geometry" />
        </mxCell>
        <mxCell id="vhUVrHwWMQ6QW9J7ZPH3-23" value="&lt;span style=&quot;font-size: 50px;&quot;&gt;•••&lt;/span&gt;" style="text;html=1;strokeColor=#000000;fillColor=#dae8fc;align=center;verticalAlign=middle;whiteSpace=wrap;rounded=0;shadow=0;glass=0;labelBackgroundColor=none;labelBorderColor=none;fontFamily=Helvetica;fontSize=37;strokeWidth=5;" parent="uaP6zwDsvVWyuOUaEy8a-1" vertex="1">
          <mxGeometry x="1010.5" y="1634" width="86" height="129" as="geometry" />
        </mxCell>
        <mxCell id="vhUVrHwWMQ6QW9J7ZPH3-24" value="&lt;span style=&quot;font-size: 50px;&quot;&gt;0&lt;/span&gt;" style="text;html=1;strokeColor=#000000;fillColor=default;align=center;verticalAlign=middle;whiteSpace=wrap;rounded=0;shadow=0;glass=0;labelBackgroundColor=none;labelBorderColor=none;fontFamily=Helvetica;fontSize=37;strokeWidth=5;" parent="uaP6zwDsvVWyuOUaEy8a-1" vertex="1">
          <mxGeometry x="752.5" y="1763" width="129" height="129" as="geometry" />
        </mxCell>
        <mxCell id="vhUVrHwWMQ6QW9J7ZPH3-25" value="&lt;span style=&quot;font-size: 50px;&quot;&gt;0&lt;/span&gt;" style="text;html=1;strokeColor=#000000;fillColor=default;align=center;verticalAlign=middle;whiteSpace=wrap;rounded=0;shadow=0;glass=0;labelBackgroundColor=none;labelBorderColor=none;fontFamily=Helvetica;fontSize=37;strokeWidth=5;" parent="uaP6zwDsvVWyuOUaEy8a-1" vertex="1">
          <mxGeometry x="881.5" y="1763" width="129" height="129" as="geometry" />
        </mxCell>
        <mxCell id="vhUVrHwWMQ6QW9J7ZPH3-26" value="&lt;span style=&quot;font-size: 50px;&quot;&gt;•••&lt;/span&gt;" style="text;html=1;strokeColor=#000000;fillColor=default;align=center;verticalAlign=middle;whiteSpace=wrap;rounded=0;shadow=0;glass=0;labelBackgroundColor=none;labelBorderColor=none;fontFamily=Helvetica;fontSize=37;strokeWidth=5;" parent="uaP6zwDsvVWyuOUaEy8a-1" vertex="1">
          <mxGeometry x="1010.5" y="1763" width="86" height="129" as="geometry" />
        </mxCell>
        <mxCell id="vhUVrHwWMQ6QW9J7ZPH3-27" value="&lt;span style=&quot;font-size: 50px;&quot;&gt;&amp;nbsp;ID: 0&lt;/span&gt;" style="text;html=1;strokeColor=#000000;fillColor=#dae8fc;align=center;verticalAlign=middle;whiteSpace=wrap;rounded=0;shadow=0;glass=0;labelBackgroundColor=none;labelBorderColor=none;fontFamily=Helvetica;fontSize=37;strokeWidth=5;" parent="uaP6zwDsvVWyuOUaEy8a-1" vertex="1">
          <mxGeometry x="1096.5" y="1634" width="258" height="129" as="geometry" />
        </mxCell>
        <mxCell id="vhUVrHwWMQ6QW9J7ZPH3-28" value="&lt;span style=&quot;font-size: 50px;&quot;&gt;•••&lt;/span&gt;" style="text;html=1;strokeColor=#000000;fillColor=#dae8fc;align=center;verticalAlign=middle;whiteSpace=wrap;rounded=0;shadow=0;glass=0;labelBackgroundColor=none;labelBorderColor=none;fontFamily=Helvetica;fontSize=37;strokeWidth=5;" parent="uaP6zwDsvVWyuOUaEy8a-1" vertex="1">
          <mxGeometry x="1354.5" y="1634" width="86" height="129" as="geometry" />
        </mxCell>
        <mxCell id="vhUVrHwWMQ6QW9J7ZPH3-29" value="&lt;span style=&quot;font-size: 50px;&quot;&gt;0&lt;/span&gt;" style="text;html=1;strokeColor=#000000;fillColor=default;align=center;verticalAlign=middle;whiteSpace=wrap;rounded=0;shadow=0;glass=0;labelBackgroundColor=none;labelBorderColor=none;fontFamily=Helvetica;fontSize=37;strokeWidth=5;" parent="uaP6zwDsvVWyuOUaEy8a-1" vertex="1">
          <mxGeometry x="1096.5" y="1763" width="129" height="129" as="geometry" />
        </mxCell>
        <mxCell id="vhUVrHwWMQ6QW9J7ZPH3-30" value="&lt;span style=&quot;font-size: 50px;&quot;&gt;0&lt;/span&gt;" style="text;html=1;strokeColor=#000000;fillColor=default;align=center;verticalAlign=middle;whiteSpace=wrap;rounded=0;shadow=0;glass=0;labelBackgroundColor=none;labelBorderColor=none;fontFamily=Helvetica;fontSize=37;strokeWidth=5;" parent="uaP6zwDsvVWyuOUaEy8a-1" vertex="1">
          <mxGeometry x="1225.5" y="1763" width="129" height="129" as="geometry" />
        </mxCell>
        <mxCell id="vhUVrHwWMQ6QW9J7ZPH3-31" value="&lt;span style=&quot;font-size: 50px;&quot;&gt;•••&lt;/span&gt;" style="text;html=1;strokeColor=#000000;fillColor=default;align=center;verticalAlign=middle;whiteSpace=wrap;rounded=0;shadow=0;glass=0;labelBackgroundColor=none;labelBorderColor=none;fontFamily=Helvetica;fontSize=37;strokeWidth=5;" parent="uaP6zwDsvVWyuOUaEy8a-1" vertex="1">
          <mxGeometry x="1354.5" y="1763" width="86" height="129" as="geometry" />
        </mxCell>
        <mxCell id="vhUVrHwWMQ6QW9J7ZPH3-32" value="&lt;span style=&quot;font-size: 50px;&quot;&gt;&amp;nbsp;ID: 0&lt;/span&gt;" style="text;html=1;strokeColor=#000000;fillColor=#dae8fc;align=center;verticalAlign=middle;whiteSpace=wrap;rounded=0;shadow=0;glass=0;labelBackgroundColor=none;labelBorderColor=none;fontFamily=Helvetica;fontSize=37;strokeWidth=5;" parent="uaP6zwDsvVWyuOUaEy8a-1" vertex="1">
          <mxGeometry x="1440.5" y="1634" width="258" height="129" as="geometry" />
        </mxCell>
        <mxCell id="vhUVrHwWMQ6QW9J7ZPH3-33" value="&lt;span style=&quot;font-size: 50px;&quot;&gt;•••&lt;/span&gt;" style="text;html=1;strokeColor=#000000;fillColor=#dae8fc;align=center;verticalAlign=middle;whiteSpace=wrap;rounded=0;shadow=0;glass=0;labelBackgroundColor=none;labelBorderColor=none;fontFamily=Helvetica;fontSize=37;strokeWidth=5;" parent="uaP6zwDsvVWyuOUaEy8a-1" vertex="1">
          <mxGeometry x="1698.5" y="1634" width="86" height="129" as="geometry" />
        </mxCell>
        <mxCell id="vhUVrHwWMQ6QW9J7ZPH3-34" value="&lt;span style=&quot;font-size: 50px;&quot;&gt;0&lt;/span&gt;" style="text;html=1;strokeColor=#000000;fillColor=default;align=center;verticalAlign=middle;whiteSpace=wrap;rounded=0;shadow=0;glass=0;labelBackgroundColor=none;labelBorderColor=none;fontFamily=Helvetica;fontSize=37;strokeWidth=5;" parent="uaP6zwDsvVWyuOUaEy8a-1" vertex="1">
          <mxGeometry x="1440.5" y="1763" width="129" height="129" as="geometry" />
        </mxCell>
        <mxCell id="vhUVrHwWMQ6QW9J7ZPH3-35" value="&lt;span style=&quot;font-size: 50px;&quot;&gt;0&lt;/span&gt;" style="text;html=1;strokeColor=#000000;fillColor=default;align=center;verticalAlign=middle;whiteSpace=wrap;rounded=0;shadow=0;glass=0;labelBackgroundColor=none;labelBorderColor=none;fontFamily=Helvetica;fontSize=37;strokeWidth=5;" parent="uaP6zwDsvVWyuOUaEy8a-1" vertex="1">
          <mxGeometry x="1569.5" y="1763" width="129" height="129" as="geometry" />
        </mxCell>
        <mxCell id="vhUVrHwWMQ6QW9J7ZPH3-36" value="&lt;span style=&quot;font-size: 50px;&quot;&gt;•••&lt;/span&gt;" style="text;html=1;strokeColor=#000000;fillColor=default;align=center;verticalAlign=middle;whiteSpace=wrap;rounded=0;shadow=0;glass=0;labelBackgroundColor=none;labelBorderColor=none;fontFamily=Helvetica;fontSize=37;strokeWidth=5;" parent="uaP6zwDsvVWyuOUaEy8a-1" vertex="1">
          <mxGeometry x="1698.5" y="1763" width="86" height="129" as="geometry" />
        </mxCell>
        <mxCell id="vhUVrHwWMQ6QW9J7ZPH3-37" value="&lt;span style=&quot;font-size: 50px;&quot;&gt;&amp;nbsp;ID: 0&lt;/span&gt;" style="text;html=1;strokeColor=#000000;fillColor=#dae8fc;align=center;verticalAlign=middle;whiteSpace=wrap;rounded=0;shadow=0;glass=0;labelBackgroundColor=none;labelBorderColor=none;fontFamily=Helvetica;fontSize=37;strokeWidth=5;" parent="uaP6zwDsvVWyuOUaEy8a-1" vertex="1">
          <mxGeometry x="1784.5" y="1634" width="258" height="129" as="geometry" />
        </mxCell>
        <mxCell id="vhUVrHwWMQ6QW9J7ZPH3-38" value="&lt;span style=&quot;font-size: 50px;&quot;&gt;•••&lt;/span&gt;" style="text;html=1;strokeColor=#000000;fillColor=#dae8fc;align=center;verticalAlign=middle;whiteSpace=wrap;rounded=0;shadow=0;glass=0;labelBackgroundColor=none;labelBorderColor=none;fontFamily=Helvetica;fontSize=37;strokeWidth=5;" parent="uaP6zwDsvVWyuOUaEy8a-1" vertex="1">
          <mxGeometry x="2042.5" y="1634" width="86" height="129" as="geometry" />
        </mxCell>
        <mxCell id="vhUVrHwWMQ6QW9J7ZPH3-39" value="&lt;span style=&quot;font-size: 50px;&quot;&gt;0&lt;/span&gt;" style="text;html=1;strokeColor=#000000;fillColor=default;align=center;verticalAlign=middle;whiteSpace=wrap;rounded=0;shadow=0;glass=0;labelBackgroundColor=none;labelBorderColor=none;fontFamily=Helvetica;fontSize=37;strokeWidth=5;" parent="uaP6zwDsvVWyuOUaEy8a-1" vertex="1">
          <mxGeometry x="1784.5" y="1763" width="129" height="129" as="geometry" />
        </mxCell>
        <mxCell id="vhUVrHwWMQ6QW9J7ZPH3-40" value="&lt;span style=&quot;font-size: 50px;&quot;&gt;0&lt;/span&gt;" style="text;html=1;strokeColor=#000000;fillColor=default;align=center;verticalAlign=middle;whiteSpace=wrap;rounded=0;shadow=0;glass=0;labelBackgroundColor=none;labelBorderColor=none;fontFamily=Helvetica;fontSize=37;strokeWidth=5;" parent="uaP6zwDsvVWyuOUaEy8a-1" vertex="1">
          <mxGeometry x="1913.5" y="1763" width="129" height="129" as="geometry" />
        </mxCell>
        <mxCell id="vhUVrHwWMQ6QW9J7ZPH3-41" value="&lt;span style=&quot;font-size: 50px;&quot;&gt;•••&lt;/span&gt;" style="text;html=1;strokeColor=#000000;fillColor=default;align=center;verticalAlign=middle;whiteSpace=wrap;rounded=0;shadow=0;glass=0;labelBackgroundColor=none;labelBorderColor=none;fontFamily=Helvetica;fontSize=37;strokeWidth=5;" parent="uaP6zwDsvVWyuOUaEy8a-1" vertex="1">
          <mxGeometry x="2042.5" y="1763" width="86" height="129" as="geometry" />
        </mxCell>
        <mxCell id="vhUVrHwWMQ6QW9J7ZPH3-43" value="&lt;span style=&quot;font-size: 50px;&quot;&gt;•••&lt;/span&gt;" style="text;html=1;strokeColor=#000000;fillColor=#dae8fc;align=center;verticalAlign=middle;whiteSpace=wrap;rounded=0;shadow=0;glass=0;labelBackgroundColor=none;labelBorderColor=none;fontFamily=Helvetica;fontSize=37;strokeWidth=5;" parent="uaP6zwDsvVWyuOUaEy8a-1" vertex="1">
          <mxGeometry x="2128.5" y="1634" width="344" height="129" as="geometry" />
        </mxCell>
        <mxCell id="vhUVrHwWMQ6QW9J7ZPH3-46" value="&lt;span style=&quot;font-size: 50px;&quot;&gt;•••&lt;/span&gt;" style="text;html=1;strokeColor=#000000;fillColor=default;align=center;verticalAlign=middle;whiteSpace=wrap;rounded=0;shadow=0;glass=0;labelBackgroundColor=none;labelBorderColor=none;fontFamily=Helvetica;fontSize=37;strokeWidth=5;" parent="uaP6zwDsvVWyuOUaEy8a-1" vertex="1">
          <mxGeometry x="2128.5" y="1763" width="344" height="129" as="geometry" />
        </mxCell>
      </root>
    </mxGraphModel>
  </diagram>
  <diagram id="ePfMNcc0Tg9gkWhreN2p" name="Page-3">
    <mxGraphModel dx="1901" dy="1025" grid="1" gridSize="10" guides="1" tooltips="1" connect="1" arrows="1" fold="1" page="1" pageScale="1" pageWidth="1169" pageHeight="827" math="0" shadow="0">
      <root>
        <mxCell id="0" />
        <mxCell id="1" parent="0" />
      </root>
    </mxGraphModel>
  </diagram>
</mxfile>
